<?xml version="1.0" encoding="UTF-8" standalone="no"?>
<!-- Created with Inkscape (http://www.inkscape.org/) -->

<svg
   xmlns:dc="http://purl.org/dc/elements/1.1/"
   xmlns:cc="http://creativecommons.org/ns#"
   xmlns:rdf="http://www.w3.org/1999/02/22-rdf-syntax-ns#"
   xmlns:svg="http://www.w3.org/2000/svg"
   xmlns="http://www.w3.org/2000/svg"
   xmlns:sodipodi="http://sodipodi.sourceforge.net/DTD/sodipodi-0.dtd"
   xmlns:inkscape="http://www.inkscape.org/namespaces/inkscape"
   id="svg2"
   version="1.1"
   inkscape:version="0.48.3.1 r9886"
   width="332.34128"
   height="82.565987"
   xml:space="preserve"
   sodipodi:docname="images02.pdf"><metadata
     id="metadata8"><rdf:RDF><cc:Work
         rdf:about=""><dc:format>image/svg+xml</dc:format><dc:type
           rdf:resource="http://purl.org/dc/dcmitype/StillImage" /><dc:title></dc:title></cc:Work></rdf:RDF></metadata><defs
     id="defs6" /><sodipodi:namedview
     pagecolor="#ffffff"
     bordercolor="#666666"
     borderopacity="1"
     objecttolerance="10"
     gridtolerance="10"
     guidetolerance="10"
     inkscape:pageopacity="0"
     inkscape:pageshadow="2"
     inkscape:window-width="1440"
     inkscape:window-height="844"
     id="namedview4"
     showgrid="false"
     fit-margin-top="0"
     fit-margin-left="0"
     fit-margin-right="0"
     fit-margin-bottom="0"
     inkscape:zoom="1.9586132"
     inkscape:cx="191.31295"
     inkscape:cy="-20.591666"
     inkscape:window-x="0"
     inkscape:window-y="27"
     inkscape:window-maximized="1"
     inkscape:current-layer="g10" /><g
     id="g10"
     inkscape:groupmode="layer"
     inkscape:label="images02"
     transform="matrix(1.25,0,0,-1.25,-190.42433,844.95014)"><g
       id="g14"
       transform="translate(290.353,638.553)"><g
         id="g16" /><g
         id="g18"><g
           id="g20"><g
             id="g22"><path
               inkscape:connector-curvature="0"
               id="path24"
               style="fill:#ccccff;fill-opacity:1;fill-rule:nonzero;stroke:#000000;stroke-width:0.59776002;stroke-linecap:butt;stroke-linejoin:miter;stroke-miterlimit:10;stroke-opacity:1;stroke-dasharray:none"
               d="m -106.30054,0 c 0,3.91391 -3.17277,7.08669 -7.0867,7.08669 -3.91391,0 -7.08668,-3.17278 -7.08668,-7.08669 0,-3.91391 3.17277,-7.08669 7.08668,-7.08669 3.91393,0 7.0867,3.17278 7.0867,7.08669 z" /></g><g
             transform="translate(-113.386,0)"
             id="g26"><g
               id="g28" /><g
               transform="translate(113.386,0)"
               id="g30" /></g></g><g
           id="g32"><g
             transform="translate(-138.32,10.714)"
             id="g34"><g
               id="g36"><g
                 transform="translate(-152.033,-649.267)"
                 id="g38"><text
                   id="text40"
                   transform="matrix(1,0,0,-1,152.033,649.267)"><tspan
                     id="tspan42"
                     sodipodi:role="line"
                     y="0"
                     x="0 2.7676103 8.3028307 11.070441 14.944897 17.712507 22.693806 28.778963 32.708214 36.582668 41.563969 45.438423"
                     style="font-size:9.96259975px;font-variant:normal;font-weight:normal;writing-mode:lr-tb;fill:#000000;fill-opacity:1;fill-rule:nonzero;stroke:none;font-family:CMR10;-inkscape-font-specification:CMR10">initialstate</tspan></text>
<g
                   transform="translate(152.033,649.267)"
                   id="g44" /></g></g><g
               transform="translate(138.32,-10.714)"
               id="g46" /></g></g><g
           id="g48"><g
             id="g50"><path
               inkscape:connector-curvature="0"
               id="path52"
               style="fill:#ccccff;fill-opacity:1;fill-rule:nonzero;stroke:#000000;stroke-width:0.59776002;stroke-linecap:butt;stroke-linejoin:miter;stroke-miterlimit:10;stroke-opacity:1;stroke-dasharray:none"
               d="m -42.52022,0 c 0,7.82784 -6.34555,14.17339 -14.1734,14.17339 C -64.52145,14.17339 -70.867,7.82784 -70.867,0 c 0,-7.82784 6.34555,-14.17339 14.17338,-14.17339 7.82785,0 14.1734,6.34555 14.1734,14.17339 z" /></g><g
             transform="translate(-56.693,0)"
             id="g54"><g
               id="g56" /><g
               transform="translate(56.693,0)"
               id="g58" /></g></g><g
           id="g60"><g
             id="g62"><path
               inkscape:connector-curvature="0"
               id="path64"
               style="fill:none;stroke:#000000;stroke-width:0.79701;stroke-linecap:butt;stroke-linejoin:miter;stroke-miterlimit:10;stroke-opacity:1;stroke-dasharray:none"
               d="m -106.00165,0 34.12839,0" /><g
               transform="translate(-71.87326,0)"
               id="g66"><g
                 id="g68"><path
                   inkscape:connector-curvature="0"
                   id="path70"
                   style="fill:none;stroke:#000000;stroke-width:0.6376;stroke-linecap:round;stroke-linejoin:round;stroke-miterlimit:10;stroke-opacity:1;stroke-dasharray:none"
                   d="M -1.55415,2.0722 C -1.42464,1.29512 0,0.1295 0.38852,0 0,-0.1295 -1.42464,-1.29512 -1.55415,-2.0722" /></g></g></g></g><g
           id="g72"><g
             id="g74"><path
               inkscape:connector-curvature="0"
               id="path76"
               style="fill:#ccccff;fill-opacity:1;fill-rule:nonzero;stroke:#000000;stroke-width:0.59776002;stroke-linecap:butt;stroke-linejoin:miter;stroke-miterlimit:10;stroke-opacity:1;stroke-dasharray:none"
               d="m 35.43349,0 c 0,11.74178 -9.51831,21.2601 -21.2601,21.2601 C 2.43161,21.2601 -7.0867,11.74178 -7.0867,0 c 0,-11.74178 9.51831,-21.2601 21.26009,-21.2601 11.74179,0 21.2601,9.51832 21.2601,21.2601 z" /></g><g
             transform="translate(14.173,0)"
             id="g78"><g
               id="g80" /><g
               transform="translate(-14.173,0)"
               id="g82" /></g></g><g
           id="g84"><g
             id="g86"><path
               inkscape:connector-curvature="0"
               id="path88"
               style="fill:none;stroke:#000000;stroke-width:0.79701;stroke-linecap:butt;stroke-linejoin:miter;stroke-miterlimit:10;stroke-opacity:1;stroke-dasharray:none"
               d="M -42.22133,0 -8.09294,0" /><g
               transform="translate(-8.09294,0)"
               id="g90"><g
                 id="g92"><path
                   inkscape:connector-curvature="0"
                   id="path94"
                   style="fill:none;stroke:#000000;stroke-width:0.6376;stroke-linecap:round;stroke-linejoin:round;stroke-miterlimit:10;stroke-opacity:1;stroke-dasharray:none"
                   d="M -1.55415,2.0722 C -1.42464,1.29512 0,0.1295 0.38852,0 0,-0.1295 -1.42464,-1.29512 -1.55415,-2.0722" /></g></g></g></g><g
           id="g96"><g
             id="g98"><path
               inkscape:connector-curvature="0"
               id="path100"
               style="fill:#ccccff;fill-opacity:1;fill-rule:nonzero;stroke:#000000;stroke-width:0.59776002;stroke-linecap:butt;stroke-linejoin:miter;stroke-miterlimit:10;stroke-opacity:1;stroke-dasharray:none"
               d="m 127.56062,0 c 0,15.6557 -12.69108,28.3468 -28.3468,28.3468 C 83.5581,28.3468 70.867,15.6557 70.867,0 c 0,-15.6557 12.6911,-28.3468 28.34682,-28.3468 15.65572,0 28.3468,12.6911 28.3468,28.3468 z" /></g><g
             transform="translate(99.213,0)"
             id="g102"><g
               id="g104" /><g
               transform="translate(-99.213,0)"
               id="g106" /></g></g><g
           id="g108"><g
             id="g110"><path
               inkscape:connector-curvature="0"
               id="path112"
               style="fill:none;stroke:#000000;stroke-width:0.79701;stroke-linecap:butt;stroke-linejoin:miter;stroke-miterlimit:10;stroke-opacity:1;stroke-dasharray:none"
               d="M 35.73238,0 69.86076,0" /><g
               transform="translate(69.86076,0)"
               id="g114"><g
                 id="g116"><path
                   inkscape:connector-curvature="0"
                   id="path118"
                   style="fill:none;stroke:#000000;stroke-width:0.6376;stroke-linecap:round;stroke-linejoin:round;stroke-miterlimit:10;stroke-opacity:1;stroke-dasharray:none"
                   d="M -1.55415,2.0722 C -1.42464,1.29512 0,0.1295 0.38852,0 0,-0.1295 -1.42464,-1.29512 -1.55415,-2.0722" /></g></g></g></g></g></g><g
       id="g124"
       transform="translate(307.938,523.573)" /><g
       id="g140"
       transform="matrix(0.91095791,0,0,0.91095791,338.76568,621.01713)"><g
         id="g142" /><g
         id="g144"
         transform="translate(38.567,53.289)"><g
           id="g146"><g
             id="g148"
             transform="translate(-346.505,-576.862)"><text
               transform="matrix(1,0,0,-1,346.505,576.862)"
               id="text150"><tspan
                 style="font-size:9.96259975px;font-variant:normal;font-weight:normal;writing-mode:lr-tb;fill:#ff0000;fill-opacity:1;fill-rule:nonzero;stroke:none;font-family:CMR10;-inkscape-font-specification:CMR10"
                 x="0 6.7805457 14.114016 21.168533 28.917442"
                 y="0"
                 sodipodi:role="line"
                 id="tspan152">ERROR</tspan></text>
<g
               id="g154"
               transform="translate(346.505,576.862)" /></g></g><g
           id="g156"
           transform="translate(-38.567,-53.289)" /></g></g><g
       id="g3783"
       transform="matrix(0.12915782,0,0,0.12915782,364.26669,571.92412)"><g
         transform="translate(307.938,523.573)"
         id="g128"><g
           id="g130"><path
             inkscape:connector-curvature="0"
             id="path132"
             style="fill:#ffcccc;fill-opacity:1;fill-rule:nonzero;stroke:#000000;stroke-width:0.59776002;stroke-linecap:butt;stroke-linejoin:miter;stroke-miterlimit:10;stroke-opacity:1;stroke-dasharray:none"
             d="m 42.52023,28.3468 c 0,31.31142 -25.38221,56.69364 -56.69362,56.69364 -31.31143,0 -56.69363,-25.38222 -56.69363,-56.69364 0,-31.3114 25.3822,-56.69362 56.69363,-56.69362 31.31141,0 56.69362,25.38222 56.69362,56.69362 z" /></g><g
           transform="translate(-14.173,28.346)"
           id="g134"><g
             id="g136" /><g
             transform="translate(14.173,-28.346)"
             id="g138" /></g></g><g
         transform="translate(307.938,523.573)"
         id="g158"><g
           id="g160"><path
             inkscape:connector-curvature="0"
             id="path162"
             style="fill:#ccccff;fill-opacity:1;fill-rule:nonzero;stroke:#000000;stroke-width:0.59776002;stroke-linecap:butt;stroke-linejoin:miter;stroke-miterlimit:10;stroke-opacity:1;stroke-dasharray:none"
             d="M 23.2863,0 C 23.2863,5.29546 12.86082,9.58815 0,9.58815 -12.86082,9.58815 -23.2863,5.29546 -23.2863,0 c 0,-5.29546 10.42548,-9.58815 23.2863,-9.58815 12.86082,0 23.2863,4.29269 23.2863,9.58815 z" /></g><g
           transform="translate(-13.145,-3.459)"
           id="g164"><g
             id="g166"><g
               transform="translate(-294.793,-520.114)"
               id="g168"><text
                 id="text170"
                 transform="matrix(1,0,0,-1,294.793,520.114)"><tspan
                   id="tspan172"
                   sodipodi:role="line"
                   y="0"
                   x="0 7.1949897 9.9625998 12.73021 17.157589 22.413858"
                   style="font-size:9.96259975px;font-variant:normal;font-weight:normal;writing-mode:lr-tb;fill:#000000;fill-opacity:1;fill-rule:nonzero;stroke:none;font-family:CMR10;-inkscape-font-specification:CMR10">Client</tspan></text>
<g
                 transform="translate(294.793,520.114)"
                 id="g174" /></g></g><g
             transform="translate(13.145,3.459)"
             id="g176" /></g></g><g
         transform="translate(307.938,523.573)"
         id="g178"><g
           id="g180"><path
             inkscape:connector-curvature="0"
             id="path182"
             style="fill:#ccccff;fill-opacity:1;fill-rule:nonzero;stroke:#000000;stroke-width:0.59776002;stroke-linecap:butt;stroke-linejoin:miter;stroke-miterlimit:10;stroke-opacity:1;stroke-dasharray:none"
             d="m -5.06049,56.69362 c 0,5.29545 -10.42549,9.58815 -23.28631,9.58815 -12.86083,0 -23.28632,-4.2927 -23.28632,-9.58815 0,-5.29547 10.42549,-9.58817 23.28632,-9.58817 12.86082,0 23.28631,4.2927 23.28631,9.58817 z" /></g><g
           transform="translate(-41.491,53.234)"
           id="g184"><g
             id="g186"><g
               transform="translate(-266.447,-576.807)"
               id="g188"><text
                 id="text190"
                 transform="matrix(1,0,0,-1,266.447,576.807)"><tspan
                   id="tspan192"
                   sodipodi:role="line"
                   y="0"
                   x="0 7.1949897 9.9625998 12.73021 17.157589 22.413858"
                   style="font-size:9.96259975px;font-variant:normal;font-weight:normal;writing-mode:lr-tb;fill:#000000;fill-opacity:1;fill-rule:nonzero;stroke:none;font-family:CMR10;-inkscape-font-specification:CMR10">Client</tspan></text>
<g
                 transform="translate(266.447,576.807)"
                 id="g194" /></g></g><g
             transform="translate(41.491,-53.234)"
             id="g196" /></g></g><g
         transform="translate(307.938,523.573)"
         id="g198"><path
           inkscape:connector-curvature="0"
           id="path200"
           style="fill:none;stroke:#000000;stroke-width:0.59776002;stroke-linecap:butt;stroke-linejoin:miter;stroke-miterlimit:10;stroke-opacity:1;stroke-dasharray:none"
           d="M -23.4992,46.99863 -5.1082,10.21626" /><g
           transform="matrix(0.44719,-0.89442,0.89442,0.44719,-5.1082,10.21626)"
           id="g202"><g
             id="g204"><path
               inkscape:connector-curvature="0"
               id="path206"
               style="fill:none;stroke:#000000;stroke-width:0.47819999;stroke-linecap:round;stroke-linejoin:round;stroke-miterlimit:10;stroke-opacity:1;stroke-dasharray:none"
               d="M -1.37483,1.83311 C -1.26025,1.14569 0,0.11455 0.34369,0 0,-0.11455 -1.26025,-1.14569 -1.37483,-1.83311" /></g></g><g
           id="g208"><g
             transform="translate(-43.363,26.202)"
             id="g210"><g
               id="g212"><g
                 transform="translate(-264.575,-549.775)"
                 id="g214"><text
                   id="text216"
                   transform="matrix(1,0,0,-1,264.575,549.775)"><tspan
                     id="tspan218"
                     sodipodi:role="line"
                     y="0"
                     x="0 3.9292495 8.3566284 12.258979 17.238287 21.665667"
                     style="font-size:9.96259975px;font-variant:normal;font-weight:normal;writing-mode:lr-tb;fill:#000000;fill-opacity:1;fill-rule:nonzero;stroke:none;font-family:CMR10;-inkscape-font-specification:CMR10">server</tspan></text>
<g
                   transform="translate(264.575,549.775)"
                   id="g220" /></g></g><g
               transform="translate(43.363,-26.202)"
               id="g222" /></g></g></g><g
         transform="translate(307.938,523.573)"
         id="g224"><path
           inkscape:connector-curvature="0"
           id="path226"
           style="fill:none;stroke:#000000;stroke-width:0.59776002;stroke-linecap:butt;stroke-linejoin:miter;stroke-miterlimit:10;stroke-opacity:1;stroke-dasharray:none"
           d="m -75.3013,-14.17339 c 0,5.25222 -10.70584,9.50989 -23.91252,9.50989 -13.20667,0 -23.91251,-4.25767 -23.91251,-9.50989 0,-5.25222 10.70584,-9.50988 23.91251,-9.50988 13.20668,0 23.91252,4.25766 23.91252,9.50988 z" /><g
           transform="translate(-112.8,-17.577)"
           id="g228"><g
             id="g230"><g
               transform="translate(-195.138,-505.996)"
               id="g232"><text
                 id="text234"
                 transform="matrix(1,0,0,-1,195.138,505.996)"><tspan
                   id="tspan236"
                   sodipodi:role="line"
                   y="0"
                   x="0 5.5352206 9.9625998 13.86495 18.844257 23.271637"
                   style="font-size:9.96259975px;font-variant:normal;font-weight:normal;writing-mode:lr-tb;fill:#000000;fill-opacity:1;fill-rule:nonzero;stroke:none;font-family:CMR10;-inkscape-font-specification:CMR10">Server</tspan></text>
<g
                 transform="translate(195.138,505.996)"
                 id="g238" /></g></g><g
             transform="translate(112.8,17.577)"
             id="g240" /></g></g><g
         transform="translate(307.938,523.573)"
         id="g242"><path
           inkscape:connector-curvature="0"
           id="path244"
           style="fill:none;stroke:#000000;stroke-width:0.59776002;stroke-linecap:butt;stroke-linejoin:miter;stroke-miterlimit:10;stroke-opacity:1;stroke-dasharray:none"
           d="M -22.32993,-3.18956 -75.7844,-10.82635" /><g
           transform="matrix(-0.99034,-0.14146,0.14146,-0.99034,-75.7844,-10.82635)"
           id="g246"><g
             id="g248"><path
               inkscape:connector-curvature="0"
               id="path250"
               style="fill:none;stroke:#000000;stroke-width:0.47819999;stroke-linecap:round;stroke-linejoin:round;stroke-miterlimit:10;stroke-opacity:1;stroke-dasharray:none"
               d="M -1.37483,1.83311 C -1.26025,1.14569 0,0.11455 0.34369,0 0,-0.11455 -1.26025,-1.14569 -1.37483,-1.83311" /></g></g><g
           id="g252"><g
             transform="translate(-62.13,-3.43)"
             id="g254"><g
               id="g256"><g
                 transform="translate(-245.808,-520.143)"
                 id="g258"><text
                   id="text260"
                   transform="matrix(1,0,0,-1,245.808,520.143)"><tspan
                     id="tspan262"
                     sodipodi:role="line"
                     y="0"
                     x="0 3.9292495 8.3566284 12.258979 17.238287 21.665667"
                     style="font-size:9.96259975px;font-variant:normal;font-weight:normal;writing-mode:lr-tb;fill:#000000;fill-opacity:1;fill-rule:nonzero;stroke:none;font-family:CMR10;-inkscape-font-specification:CMR10">server</tspan></text>
<g
                   transform="translate(245.808,520.143)"
                   id="g264" /></g></g><g
               transform="translate(62.13,3.43)"
               id="g266" /></g></g></g><g
         transform="translate(307.938,523.573)"
         id="g268"><g
           id="g270"><g
             transform="translate(-107.716,56.693)"
             id="g272"><g
               id="g274" /><g
               transform="translate(107.716,-56.693)"
               id="g276" /></g></g><g
           id="g278"><g
             transform="translate(-136.063,36.85)"
             id="g280"><g
               id="g282" /><g
               transform="translate(136.063,-36.85)"
               id="g284" /></g></g><g
           id="g286"><g
             transform="translate(-155.905,14.173)"
             id="g288"><g
               id="g290" /><g
               transform="translate(155.905,-14.173)"
               id="g292" /></g></g><g
           id="g294"><g
             id="g296"><path
               inkscape:connector-curvature="0"
               id="path298"
               style="fill:none;stroke:#000000;stroke-width:0.59776002;stroke-linecap:butt;stroke-linejoin:miter;stroke-miterlimit:10;stroke-opacity:1;stroke-dasharray:2.98883, 2.98883;stroke-dashoffset:0"
               d="m -107.28368,53.07416 6.82482,-56.86724" /><g
               transform="matrix(0.11926,-0.994,0.994,0.11926,-100.45886,-3.79308)"
               id="g300"><g
                 id="g302"><path
                   inkscape:connector-curvature="0"
                   id="path304"
                   style="fill:none;stroke:#000000;stroke-width:0.47819999;stroke-linecap:round;stroke-linejoin:round;stroke-miterlimit:10;stroke-opacity:1;stroke-dasharray:none"
                   d="M -1.37483,1.83311 C -1.26025,1.14569 0,0.11455 0.34369,0 0,-0.11455 -1.26025,-1.14569 -1.37483,-1.83311" /></g></g></g></g><g
           id="g306"><g
             id="g308"><path
               inkscape:connector-curvature="0"
               id="path310"
               style="fill:none;stroke:#000000;stroke-width:0.59776002;stroke-linecap:butt;stroke-linejoin:miter;stroke-miterlimit:10;stroke-opacity:1;stroke-dasharray:2.98883, 2.98883;stroke-dashoffset:0"
               d="m -133.45135,33.23148 27.0924,-37.51138" /><g
               transform="matrix(0.5861,-0.81152,0.81152,0.5861,-106.35895,-4.2799)"
               id="g312"><g
                 id="g314"><path
                   inkscape:connector-curvature="0"
                   id="path316"
                   style="fill:none;stroke:#000000;stroke-width:0.47819999;stroke-linecap:round;stroke-linejoin:round;stroke-miterlimit:10;stroke-opacity:1;stroke-dasharray:none"
                   d="M -1.37483,1.83311 C -1.26025,1.14569 0,0.11455 0.34369,0 0,-0.11455 -1.26025,-1.14569 -1.37483,-1.83311" /></g></g></g></g><g
           id="g318"><g
             id="g320"><path
               inkscape:connector-curvature="0"
               id="path322"
               style="fill:none;stroke:#000000;stroke-width:0.59776002;stroke-linecap:butt;stroke-linejoin:miter;stroke-miterlimit:10;stroke-opacity:1;stroke-dasharray:2.98883, 2.98883;stroke-dashoffset:0"
               d="m -152.28798,12.36394 37.3071,-18.65372" /><g
               transform="matrix(0.898,-0.44899,0.44899,0.898,-114.98088,-6.28978)"
               id="g324"><g
                 id="g326"><path
                   inkscape:connector-curvature="0"
                   id="path328"
                   style="fill:none;stroke:#000000;stroke-width:0.47819999;stroke-linecap:round;stroke-linejoin:round;stroke-miterlimit:10;stroke-opacity:1;stroke-dasharray:none"
                   d="M -1.37483,1.83311 C -1.26025,1.14569 0,0.11455 0.34369,0 0,-0.11455 -1.26025,-1.14569 -1.37483,-1.83311" /></g></g></g></g></g></g></g></svg>