<?xml version="1.0" encoding="UTF-8" standalone="no"?>
<!-- Created with Inkscape (http://www.inkscape.org/) -->

<svg
   xmlns:dc="http://purl.org/dc/elements/1.1/"
   xmlns:cc="http://creativecommons.org/ns#"
   xmlns:rdf="http://www.w3.org/1999/02/22-rdf-syntax-ns#"
   xmlns:svg="http://www.w3.org/2000/svg"
   xmlns="http://www.w3.org/2000/svg"
   xmlns:sodipodi="http://sodipodi.sourceforge.net/DTD/sodipodi-0.dtd"
   xmlns:inkscape="http://www.inkscape.org/namespaces/inkscape"
   id="svg2"
   version="1.1"
   inkscape:version="0.48.3.1 r9886"
   width="200.69701"
   height="184.16838"
   xml:space="preserve"
   sodipodi:docname="images03.pdf"><metadata
     id="metadata8"><rdf:RDF><cc:Work
         rdf:about=""><dc:format>image/svg+xml</dc:format><dc:type
           rdf:resource="http://purl.org/dc/dcmitype/StillImage" /><dc:title></dc:title></cc:Work></rdf:RDF></metadata><defs
     id="defs6" /><sodipodi:namedview
     pagecolor="#ffffff"
     bordercolor="#666666"
     borderopacity="1"
     objecttolerance="10"
     gridtolerance="10"
     guidetolerance="10"
     inkscape:pageopacity="0"
     inkscape:pageshadow="2"
     inkscape:window-width="1006"
     inkscape:window-height="781"
     id="namedview4"
     showgrid="false"
     fit-margin-top="0"
     fit-margin-left="0"
     fit-margin-right="0"
     fit-margin-bottom="0"
     inkscape:zoom="2.2836788"
     inkscape:cx="98.936102"
     inkscape:cy="83.035938"
     inkscape:window-x="0"
     inkscape:window-y="27"
     inkscape:window-maximized="0"
     inkscape:current-layer="g10" /><g
     id="g10"
     inkscape:groupmode="layer"
     inkscape:label="images03"
     transform="matrix(1.25,0,0,-1.25,-185.8895,833.99831)"><g
       id="g14"
       transform="translate(214.817,600.618)"><g
         id="g16" /><g
         id="g18"><g
           id="g20"><g
             id="g22"><path
               inkscape:connector-curvature="0"
               id="path24"
               style="fill:#ffcccc;fill-opacity:1;fill-rule:nonzero;stroke:#000000;stroke-width:0.59776002;stroke-linecap:butt;stroke-linejoin:miter;stroke-miterlimit:10;stroke-opacity:1;stroke-dasharray:none"
               d="M 23.9125,0 C 23.9125,5.25221 13.20667,9.50987 0,9.50987 -13.20667,9.50987 -23.9125,5.25221 -23.9125,0 c 0,-5.25221 10.70583,-9.50987 23.9125,-9.50987 13.20667,0 23.9125,4.25766 23.9125,9.50987 z" /></g><g
             transform="translate(-13.588,-3.404)"
             id="g26"><g
               id="g28"><g
                 transform="translate(-201.229,-597.214)"
                 id="g30"><text
                   id="text32"
                   transform="matrix(1,0,0,-1,201.229,597.214)"><tspan
                     id="tspan34"
                     sodipodi:role="line"
                     y="0"
                     x="0 5.5352206 9.9625998 13.86495 18.844257 23.271637"
                     style="font-size:9.96259975px;font-variant:normal;font-weight:normal;writing-mode:lr-tb;fill:#000000;fill-opacity:1;fill-rule:nonzero;stroke:none;font-family:CMR10;-inkscape-font-specification:CMR10">Server</tspan></text>
<g
                   transform="translate(201.229,597.214)"
                   id="g36" /></g></g><g
               transform="translate(13.588,3.404)"
               id="g38" /></g></g><g
           id="g40"><g
             id="g42"><path
               inkscape:connector-curvature="0"
               id="path44"
               style="fill:#ccccff;fill-opacity:1;fill-rule:nonzero;stroke:#000000;stroke-width:0.59776002;stroke-linecap:butt;stroke-linejoin:miter;stroke-miterlimit:10;stroke-opacity:1;stroke-dasharray:none"
               d="m -19.23389,56.69362 c 0,5.29545 -10.42549,9.58815 -23.28631,9.58815 -12.86083,0 -23.28632,-4.2927 -23.28632,-9.58815 0,-5.29547 10.42549,-9.58817 23.28632,-9.58817 12.86082,0 23.28631,4.2927 23.28631,9.58817 z" /></g><g
             transform="translate(-55.665,53.234)"
             id="g46"><g
               id="g48"><g
                 transform="translate(-159.152,-653.852)"
                 id="g50"><text
                   id="text52"
                   transform="matrix(1,0,0,-1,159.152,653.852)"><tspan
                     id="tspan54"
                     sodipodi:role="line"
                     y="0"
                     x="0 7.1949897 9.9625998 12.73021 17.157589 22.413858"
                     style="font-size:9.96259975px;font-variant:normal;font-weight:normal;writing-mode:lr-tb;fill:#000000;fill-opacity:1;fill-rule:nonzero;stroke:none;font-family:CMR10;-inkscape-font-specification:CMR10">Client</tspan></text>
<g
                   transform="translate(159.152,653.852)"
                   id="g56" /></g></g><g
               transform="translate(55.665,-53.234)"
               id="g58" /></g></g><g
           id="g60"><path
             inkscape:connector-curvature="0"
             id="path62"
             style="fill:none;stroke:#000000;stroke-width:0.59776002;stroke-linecap:butt;stroke-linejoin:miter;stroke-miterlimit:10;stroke-opacity:1;stroke-dasharray:none"
             d="M -35.43666,47.24995 -7.39557,9.86133" /><g
             transform="matrix(0.6,-0.8,0.8,0.6,-7.39557,9.86133)"
             id="g64"><g
               id="g66"><path
                 inkscape:connector-curvature="0"
                 id="path68"
                 style="fill:none;stroke:#000000;stroke-width:0.47819999;stroke-linecap:round;stroke-linejoin:round;stroke-miterlimit:10;stroke-opacity:1;stroke-dasharray:none"
                 d="M -1.37483,1.83311 C -1.26025,1.14569 0,0.11455 0.34369,0 0,-0.11455 -1.26025,-1.14569 -1.37483,-1.83311" /></g></g><g
             id="g70"><g
               transform="translate(-24.861,28.322)"
               id="g72"><g
                 id="g74" /><g
                 transform="translate(24.861,-28.322)"
                 id="g76" /></g></g></g><g
           id="g78"><g
             id="g80"><path
               inkscape:connector-curvature="0"
               id="path82"
               style="fill:#ccccff;fill-opacity:1;fill-rule:nonzero;stroke:#000000;stroke-width:0.59776002;stroke-linecap:butt;stroke-linejoin:miter;stroke-miterlimit:10;stroke-opacity:1;stroke-dasharray:none"
               d="m -10.72977,56.69362 c 0,5.29545 -10.42547,9.58815 -23.28631,9.58815 -12.86082,0 -23.2863,-4.2927 -23.2863,-9.58815 0,-5.29547 10.42548,-9.58817 23.2863,-9.58817 12.86084,0 23.28631,4.2927 23.28631,9.58817 z" /></g><g
             transform="translate(-47.161,53.234)"
             id="g84"><g
               id="g86"><g
                 transform="translate(-167.656,-653.852)"
                 id="g88"><text
                   id="text90"
                   transform="matrix(1,0,0,-1,167.656,653.852)"><tspan
                     id="tspan92"
                     sodipodi:role="line"
                     y="0"
                     x="0 7.1949897 9.9625998 12.73021 17.157589 22.413858"
                     style="font-size:9.96259975px;font-variant:normal;font-weight:normal;writing-mode:lr-tb;fill:#000000;fill-opacity:1;fill-rule:nonzero;stroke:none;font-family:CMR10;-inkscape-font-specification:CMR10">Client</tspan></text>
<g
                   transform="translate(167.656,653.852)"
                   id="g94" /></g></g><g
               transform="translate(47.161,-53.234)"
               id="g96" /></g></g><g
           id="g98"><path
             inkscape:connector-curvature="0"
             id="path100"
             style="fill:none;stroke:#000000;stroke-width:0.59776002;stroke-linecap:butt;stroke-linejoin:miter;stroke-miterlimit:10;stroke-opacity:1;stroke-dasharray:none"
             d="M -28.2605,47.10182 -6.02376,10.03983" /><g
             transform="matrix(0.51678,-0.86127,0.86127,0.51678,-6.02376,10.03983)"
             id="g102"><g
               id="g104"><path
                 inkscape:connector-curvature="0"
                 id="path106"
                 style="fill:none;stroke:#000000;stroke-width:0.47819999;stroke-linecap:round;stroke-linejoin:round;stroke-miterlimit:10;stroke-opacity:1;stroke-dasharray:none"
                 d="M -1.37483,1.83311 C -1.26025,1.14569 0,0.11455 0.34369,0 0,-0.11455 -1.26025,-1.14569 -1.37483,-1.83311" /></g></g></g><g
           id="g108"><g
             id="g110"><path
               inkscape:connector-curvature="0"
               id="path112"
               style="fill:#ccccff;fill-opacity:1;fill-rule:nonzero;stroke:#000000;stroke-width:0.59776002;stroke-linecap:butt;stroke-linejoin:miter;stroke-miterlimit:10;stroke-opacity:1;stroke-dasharray:none"
               d="m -2.22562,56.69362 c 0,5.29545 -10.42549,9.58815 -23.28631,9.58815 -12.86084,0 -23.28632,-4.2927 -23.28632,-9.58815 0,-5.29547 10.42548,-9.58817 23.28632,-9.58817 12.86082,0 23.28631,4.2927 23.28631,9.58817 z" /></g><g
             transform="translate(-38.657,53.234)"
             id="g114"><g
               id="g116"><g
                 transform="translate(-176.16,-653.852)"
                 id="g118"><text
                   id="text120"
                   transform="matrix(1,0,0,-1,176.16,653.852)"><tspan
                     id="tspan122"
                     sodipodi:role="line"
                     y="0"
                     x="0 7.1949897 9.9625998 12.73021 17.157589 22.413858"
                     style="font-size:9.96259975px;font-variant:normal;font-weight:normal;writing-mode:lr-tb;fill:#000000;fill-opacity:1;fill-rule:nonzero;stroke:none;font-family:CMR10;-inkscape-font-specification:CMR10">Client</tspan></text>
<g
                   transform="translate(176.16,653.852)"
                   id="g124" /></g></g><g
               transform="translate(38.657,-53.234)"
               id="g126" /></g></g><g
           id="g128"><path
             inkscape:connector-curvature="0"
             id="path130"
             style="fill:none;stroke:#000000;stroke-width:0.59776002;stroke-linecap:butt;stroke-linejoin:miter;stroke-miterlimit:10;stroke-opacity:1;stroke-dasharray:none"
             d="M -21.1329,46.96303 -4.58263,10.18504" /><g
             transform="matrix(0.41037,-0.91193,0.91193,0.41037,-4.58263,10.18504)"
             id="g132"><g
               id="g134"><path
                 inkscape:connector-curvature="0"
                 id="path136"
                 style="fill:none;stroke:#000000;stroke-width:0.47819999;stroke-linecap:round;stroke-linejoin:round;stroke-miterlimit:10;stroke-opacity:1;stroke-dasharray:none"
                 d="M -1.37483,1.83311 C -1.26025,1.14569 0,0.11455 0.34369,0 0,-0.11455 -1.26025,-1.14569 -1.37483,-1.83311" /></g></g></g><g
           id="g138"><g
             id="g140"><path
               inkscape:connector-curvature="0"
               id="path142"
               style="fill:#ccccff;fill-opacity:1;fill-rule:nonzero;stroke:#000000;stroke-width:0.59776002;stroke-linecap:butt;stroke-linejoin:miter;stroke-miterlimit:10;stroke-opacity:1;stroke-dasharray:none"
               d="m 6.27806,56.69362 c 0,5.29545 -10.42548,9.58815 -23.2863,9.58815 -12.86082,0 -23.28632,-4.2927 -23.28632,-9.58815 0,-5.29547 10.4255,-9.58817 23.28632,-9.58817 12.86082,0 23.2863,4.2927 23.2863,9.58817 z" /></g><g
             transform="translate(-30.153,53.234)"
             id="g144"><g
               id="g146"><g
                 transform="translate(-184.664,-653.852)"
                 id="g148"><text
                   id="text150"
                   transform="matrix(1,0,0,-1,184.664,653.852)"><tspan
                     id="tspan152"
                     sodipodi:role="line"
                     y="0"
                     x="0 7.1949897 9.9625998 12.73021 17.157589 22.413858"
                     style="font-size:9.96259975px;font-variant:normal;font-weight:normal;writing-mode:lr-tb;fill:#000000;fill-opacity:1;fill-rule:nonzero;stroke:none;font-family:CMR10;-inkscape-font-specification:CMR10">Client</tspan></text>
<g
                   transform="translate(184.664,653.852)"
                   id="g154" /></g></g><g
               transform="translate(30.153,-53.234)"
               id="g156" /></g></g><g
           id="g158"><path
             inkscape:connector-curvature="0"
             id="path160"
             style="fill:none;stroke:#000000;stroke-width:0.59776002;stroke-linecap:butt;stroke-linejoin:miter;stroke-miterlimit:10;stroke-opacity:1;stroke-dasharray:none"
             d="M -14.06334,46.87703 -3.08858,10.29712" /><g
             transform="matrix(0.28735,-0.95782,0.95782,0.28735,-3.08858,10.29712)"
             id="g162"><g
               id="g164"><path
                 inkscape:connector-curvature="0"
                 id="path166"
                 style="fill:none;stroke:#000000;stroke-width:0.47819999;stroke-linecap:round;stroke-linejoin:round;stroke-miterlimit:10;stroke-opacity:1;stroke-dasharray:none"
                 d="M -1.37483,1.83311 C -1.26025,1.14569 0,0.11455 0.34369,0 0,-0.11455 -1.26025,-1.14569 -1.37483,-1.83311" /></g></g></g><g
           id="g168"><g
             id="g170"><path
               inkscape:connector-curvature="0"
               id="path172"
               style="fill:#ccccff;fill-opacity:1;fill-rule:nonzero;stroke:#000000;stroke-width:0.59776002;stroke-linecap:butt;stroke-linejoin:miter;stroke-miterlimit:10;stroke-opacity:1;stroke-dasharray:none"
               d="m 14.78218,56.69362 c 0,5.29545 -10.42549,9.58815 -23.2863,9.58815 -12.86082,0 -23.28632,-4.2927 -23.28632,-9.58815 0,-5.29547 10.4255,-9.58817 23.28632,-9.58817 12.86081,0 23.2863,4.2927 23.2863,9.58817 z" /></g><g
             transform="translate(-21.649,53.234)"
             id="g174"><g
               id="g176"><g
                 transform="translate(-193.168,-653.852)"
                 id="g178"><text
                   id="text180"
                   transform="matrix(1,0,0,-1,193.168,653.852)"><tspan
                     id="tspan182"
                     sodipodi:role="line"
                     y="0"
                     x="0 7.1949897 9.9625998 12.73021 17.157589 22.413858"
                     style="font-size:9.96259975px;font-variant:normal;font-weight:normal;writing-mode:lr-tb;fill:#000000;fill-opacity:1;fill-rule:nonzero;stroke:none;font-family:CMR10;-inkscape-font-specification:CMR10">Client</tspan></text>
<g
                   transform="translate(193.168,653.852)"
                   id="g184" /></g></g><g
               transform="translate(21.649,-53.234)"
               id="g186" /></g></g><g
           id="g188"><path
             inkscape:connector-curvature="0"
             id="path190"
             style="fill:none;stroke:#000000;stroke-width:0.59776002;stroke-linecap:butt;stroke-linejoin:miter;stroke-miterlimit:10;stroke-opacity:1;stroke-dasharray:none"
             d="m -7.02393,46.82439 5.46958,-36.4561" /><g
             transform="matrix(0.14857,-0.99034,0.99034,0.14857,-1.55435,10.36829)"
             id="g192"><g
               id="g194"><path
                 inkscape:connector-curvature="0"
                 id="path196"
                 style="fill:none;stroke:#000000;stroke-width:0.47819999;stroke-linecap:round;stroke-linejoin:round;stroke-miterlimit:10;stroke-opacity:1;stroke-dasharray:none"
                 d="M -1.37483,1.83311 C -1.26025,1.14569 0,0.11455 0.34369,0 0,-0.11455 -1.26025,-1.14569 -1.37483,-1.83311" /></g></g></g><g
           id="g198"><g
             id="g200"><path
               inkscape:connector-curvature="0"
               id="path202"
               style="fill:#ccccff;fill-opacity:1;fill-rule:nonzero;stroke:#000000;stroke-width:0.59776002;stroke-linecap:butt;stroke-linejoin:miter;stroke-miterlimit:10;stroke-opacity:1;stroke-dasharray:none"
               d="m 23.2863,56.69362 c 0,5.29545 -10.42548,9.58815 -23.2863,9.58815 -12.86082,0 -23.2863,-4.2927 -23.2863,-9.58815 0,-5.29547 10.42548,-9.58817 23.2863,-9.58817 12.86082,0 23.2863,4.2927 23.2863,9.58817 z" /></g><g
             transform="translate(-13.145,53.234)"
             id="g204"><g
               id="g206"><g
                 transform="translate(-201.672,-653.852)"
                 id="g208"><text
                   id="text210"
                   transform="matrix(1,0,0,-1,201.672,653.852)"><tspan
                     id="tspan212"
                     sodipodi:role="line"
                     y="0"
                     x="0 7.1949897 9.9625998 12.73021 17.157589 22.413858"
                     style="font-size:9.96259975px;font-variant:normal;font-weight:normal;writing-mode:lr-tb;fill:#000000;fill-opacity:1;fill-rule:nonzero;stroke:none;font-family:CMR10;-inkscape-font-specification:CMR10">Client</tspan></text>
<g
                   transform="translate(201.672,653.852)"
                   id="g214" /></g></g><g
               transform="translate(13.145,-53.234)"
               id="g216" /></g></g><g
           id="g218"><path
             inkscape:connector-curvature="0"
             id="path220"
             style="fill:none;stroke:#000000;stroke-width:0.59776002;stroke-linecap:butt;stroke-linejoin:miter;stroke-miterlimit:10;stroke-opacity:1;stroke-dasharray:none"
             d="M 0,46.80656 0,10.39159" /><g
             transform="matrix(0,-1,1,0,0,10.39159)"
             id="g222"><g
               id="g224"><path
                 inkscape:connector-curvature="0"
                 id="path226"
                 style="fill:none;stroke:#000000;stroke-width:0.47819999;stroke-linecap:round;stroke-linejoin:round;stroke-miterlimit:10;stroke-opacity:1;stroke-dasharray:none"
                 d="M -1.37483,1.83311 C -1.26025,1.14569 0,0.11455 0.34369,0 0,-0.11455 -1.26025,-1.14569 -1.37483,-1.83311" /></g></g></g><g
           id="g228"><g
             id="g230"><path
               inkscape:connector-curvature="0"
               id="path232"
               style="fill:#ccccff;fill-opacity:1;fill-rule:nonzero;stroke:#000000;stroke-width:0.59776002;stroke-linecap:butt;stroke-linejoin:miter;stroke-miterlimit:10;stroke-opacity:1;stroke-dasharray:none"
               d="m 31.79044,56.69362 c 0,5.29545 -10.4255,9.58815 -23.28632,9.58815 -12.86081,0 -23.2863,-4.2927 -23.2863,-9.58815 0,-5.29547 10.42549,-9.58817 23.2863,-9.58817 12.86082,0 23.28632,4.2927 23.28632,9.58817 z" /></g><g
             transform="translate(-4.641,53.234)"
             id="g234"><g
               id="g236"><g
                 transform="translate(-210.176,-653.852)"
                 id="g238"><text
                   id="text240"
                   transform="matrix(1,0,0,-1,210.176,653.852)"><tspan
                     id="tspan242"
                     sodipodi:role="line"
                     y="0"
                     x="0 7.1949897 9.9625998 12.73021 17.157589 22.413858"
                     style="font-size:9.96259975px;font-variant:normal;font-weight:normal;writing-mode:lr-tb;fill:#000000;fill-opacity:1;fill-rule:nonzero;stroke:none;font-family:CMR10;-inkscape-font-specification:CMR10">Client</tspan></text>
<g
                   transform="translate(210.176,653.852)"
                   id="g244" /></g></g><g
               transform="translate(4.641,-53.234)"
               id="g246" /></g></g><g
           id="g248"><path
             inkscape:connector-curvature="0"
             id="path250"
             style="fill:none;stroke:#000000;stroke-width:0.59776002;stroke-linecap:butt;stroke-linejoin:miter;stroke-miterlimit:10;stroke-opacity:1;stroke-dasharray:none"
             d="M 7.02393,46.82439 1.55435,10.36829" /><g
             transform="matrix(-0.14857,-0.99034,0.99034,-0.14857,1.55435,10.36829)"
             id="g252"><g
               id="g254"><path
                 inkscape:connector-curvature="0"
                 id="path256"
                 style="fill:none;stroke:#000000;stroke-width:0.47819999;stroke-linecap:round;stroke-linejoin:round;stroke-miterlimit:10;stroke-opacity:1;stroke-dasharray:none"
                 d="M -1.37483,1.83311 C -1.26025,1.14569 0,0.11455 0.34369,0 0,-0.11455 -1.26025,-1.14569 -1.37483,-1.83311" /></g></g></g><g
           id="g258"><g
             id="g260"><path
               inkscape:connector-curvature="0"
               id="path262"
               style="fill:#ccccff;fill-opacity:1;fill-rule:nonzero;stroke:#000000;stroke-width:0.59776002;stroke-linecap:butt;stroke-linejoin:miter;stroke-miterlimit:10;stroke-opacity:1;stroke-dasharray:none"
               d="m 40.29456,56.69362 c 0,5.29545 -10.4255,9.58815 -23.28632,9.58815 -12.86082,0 -23.2863,-4.2927 -23.2863,-9.58815 0,-5.29547 10.42548,-9.58817 23.2863,-9.58817 12.86082,0 23.28632,4.2927 23.28632,9.58817 z" /></g><g
             transform="translate(3.863,53.234)"
             id="g264"><g
               id="g266"><g
                 transform="translate(-218.68,-653.852)"
                 id="g268"><text
                   id="text270"
                   transform="matrix(1,0,0,-1,218.68,653.852)"><tspan
                     id="tspan272"
                     sodipodi:role="line"
                     y="0"
                     x="0 7.1949897 9.9625998 12.73021 17.157589 22.413858"
                     style="font-size:9.96259975px;font-variant:normal;font-weight:normal;writing-mode:lr-tb;fill:#000000;fill-opacity:1;fill-rule:nonzero;stroke:none;font-family:CMR10;-inkscape-font-specification:CMR10">Client</tspan></text>
<g
                   transform="translate(218.68,653.852)"
                   id="g274" /></g></g><g
               transform="translate(-3.863,-53.234)"
               id="g276" /></g></g><g
           id="g278"><path
             inkscape:connector-curvature="0"
             id="path280"
             style="fill:none;stroke:#000000;stroke-width:0.59776002;stroke-linecap:butt;stroke-linejoin:miter;stroke-miterlimit:10;stroke-opacity:1;stroke-dasharray:none"
             d="M 14.06334,46.87703 3.08858,10.29712" /><g
             transform="matrix(-0.28735,-0.95782,0.95782,-0.28735,3.08858,10.29712)"
             id="g282"><g
               id="g284"><path
                 inkscape:connector-curvature="0"
                 id="path286"
                 style="fill:none;stroke:#000000;stroke-width:0.47819999;stroke-linecap:round;stroke-linejoin:round;stroke-miterlimit:10;stroke-opacity:1;stroke-dasharray:none"
                 d="M -1.37483,1.83311 C -1.26025,1.14569 0,0.11455 0.34369,0 0,-0.11455 -1.26025,-1.14569 -1.37483,-1.83311" /></g></g></g><g
           id="g288"><g
             id="g290"><path
               inkscape:connector-curvature="0"
               id="path292"
               style="fill:#ccccff;fill-opacity:1;fill-rule:nonzero;stroke:#000000;stroke-width:0.59776002;stroke-linecap:butt;stroke-linejoin:miter;stroke-miterlimit:10;stroke-opacity:1;stroke-dasharray:none"
               d="m 48.79825,56.69362 c 0,5.29545 -10.42548,9.58815 -23.28632,9.58815 -12.86082,0 -23.28631,-4.2927 -23.28631,-9.58815 0,-5.29547 10.42549,-9.58817 23.28631,-9.58817 12.86084,0 23.28632,4.2927 23.28632,9.58817 z" /></g><g
             transform="translate(12.366,53.234)"
             id="g294"><g
               id="g296"><g
                 transform="translate(-227.183,-653.852)"
                 id="g298"><text
                   id="text300"
                   transform="matrix(1,0,0,-1,227.183,653.852)"><tspan
                     id="tspan302"
                     sodipodi:role="line"
                     y="0"
                     x="0 7.1949897 9.9625998 12.73021 17.157589 22.413858"
                     style="font-size:9.96259975px;font-variant:normal;font-weight:normal;writing-mode:lr-tb;fill:#000000;fill-opacity:1;fill-rule:nonzero;stroke:none;font-family:CMR10;-inkscape-font-specification:CMR10">Client</tspan></text>
<g
                   transform="translate(227.183,653.852)"
                   id="g304" /></g></g><g
               transform="translate(-12.366,-53.234)"
               id="g306" /></g></g><g
           id="g308"><path
             inkscape:connector-curvature="0"
             id="path310"
             style="fill:none;stroke:#000000;stroke-width:0.59776002;stroke-linecap:butt;stroke-linejoin:miter;stroke-miterlimit:10;stroke-opacity:1;stroke-dasharray:none"
             d="M 21.1329,46.96303 4.58263,10.18504" /><g
             transform="matrix(-0.41037,-0.91193,0.91193,-0.41037,4.58263,10.18504)"
             id="g312"><g
               id="g314"><path
                 inkscape:connector-curvature="0"
                 id="path316"
                 style="fill:none;stroke:#000000;stroke-width:0.47819999;stroke-linecap:round;stroke-linejoin:round;stroke-miterlimit:10;stroke-opacity:1;stroke-dasharray:none"
                 d="M -1.37483,1.83311 C -1.26025,1.14569 0,0.11455 0.34369,0 0,-0.11455 -1.26025,-1.14569 -1.37483,-1.83311" /></g></g></g><g
           id="g318"><g
             id="g320"><path
               inkscape:connector-curvature="0"
               id="path322"
               style="fill:#ccccff;fill-opacity:1;fill-rule:nonzero;stroke:#000000;stroke-width:0.59776002;stroke-linecap:butt;stroke-linejoin:miter;stroke-miterlimit:10;stroke-opacity:1;stroke-dasharray:none"
               d="m 57.30238,56.69362 c 0,5.29545 -10.42548,9.58815 -23.2863,9.58815 -12.86084,0 -23.28631,-4.2927 -23.28631,-9.58815 0,-5.29547 10.42547,-9.58817 23.28631,-9.58817 12.86082,0 23.2863,4.2927 23.2863,9.58817 z" /></g><g
             transform="translate(20.87,53.234)"
             id="g324"><g
               id="g326"><g
                 transform="translate(-235.687,-653.852)"
                 id="g328"><text
                   id="text330"
                   transform="matrix(1,0,0,-1,235.687,653.852)"><tspan
                     id="tspan332"
                     sodipodi:role="line"
                     y="0"
                     x="0 7.1949897 9.9625998 12.73021 17.157589 22.413858"
                     style="font-size:9.96259975px;font-variant:normal;font-weight:normal;writing-mode:lr-tb;fill:#000000;fill-opacity:1;fill-rule:nonzero;stroke:none;font-family:CMR10;-inkscape-font-specification:CMR10">Client</tspan></text>
<g
                   transform="translate(235.687,653.852)"
                   id="g334" /></g></g><g
               transform="translate(-20.87,-53.234)"
               id="g336" /></g></g><g
           id="g338"><path
             inkscape:connector-curvature="0"
             id="path340"
             style="fill:none;stroke:#000000;stroke-width:0.59776002;stroke-linecap:butt;stroke-linejoin:miter;stroke-miterlimit:10;stroke-opacity:1;stroke-dasharray:none"
             d="M 28.2605,47.10182 6.02376,10.03983" /><g
             transform="matrix(-0.51678,-0.86127,0.86127,-0.51678,6.02376,10.03983)"
             id="g342"><g
               id="g344"><path
                 inkscape:connector-curvature="0"
                 id="path346"
                 style="fill:none;stroke:#000000;stroke-width:0.47819999;stroke-linecap:round;stroke-linejoin:round;stroke-miterlimit:10;stroke-opacity:1;stroke-dasharray:none"
                 d="M -1.37483,1.83311 C -1.26025,1.14569 0,0.11455 0.34369,0 0,-0.11455 -1.26025,-1.14569 -1.37483,-1.83311" /></g></g></g><g
           id="g348"><g
             id="g350"><path
               inkscape:connector-curvature="0"
               id="path352"
               style="fill:#ccccff;fill-opacity:1;fill-rule:nonzero;stroke:#000000;stroke-width:0.59776002;stroke-linecap:butt;stroke-linejoin:miter;stroke-miterlimit:10;stroke-opacity:1;stroke-dasharray:none"
               d="m 65.80652,56.69362 c 0,5.29545 -10.42549,9.58815 -23.28632,9.58815 -12.86082,0 -23.28631,-4.2927 -23.28631,-9.58815 0,-5.29547 10.42549,-9.58817 23.28631,-9.58817 12.86083,0 23.28632,4.2927 23.28632,9.58817 z" /></g><g
             transform="translate(29.374,53.234)"
             id="g354"><g
               id="g356"><g
                 transform="translate(-244.191,-653.852)"
                 id="g358"><text
                   id="text360"
                   transform="matrix(1,0,0,-1,244.191,653.852)"><tspan
                     id="tspan362"
                     sodipodi:role="line"
                     y="0"
                     x="0 7.1949897 9.9625998 12.73021 17.157589 22.413858"
                     style="font-size:9.96259975px;font-variant:normal;font-weight:normal;writing-mode:lr-tb;fill:#000000;fill-opacity:1;fill-rule:nonzero;stroke:none;font-family:CMR10;-inkscape-font-specification:CMR10">Client</tspan></text>
<g
                   transform="translate(244.191,653.852)"
                   id="g364" /></g></g><g
               transform="translate(-29.374,-53.234)"
               id="g366" /></g></g><g
           id="g368"><path
             inkscape:connector-curvature="0"
             id="path370"
             style="fill:none;stroke:#000000;stroke-width:0.59776002;stroke-linecap:butt;stroke-linejoin:miter;stroke-miterlimit:10;stroke-opacity:1;stroke-dasharray:none"
             d="M 35.43666,47.24995 7.39557,9.86133" /><g
             transform="matrix(-0.6,-0.8,0.8,-0.6,7.39557,9.86133)"
             id="g372"><g
               id="g374"><path
                 inkscape:connector-curvature="0"
                 id="path376"
                 style="fill:none;stroke:#000000;stroke-width:0.47819999;stroke-linecap:round;stroke-linejoin:round;stroke-miterlimit:10;stroke-opacity:1;stroke-dasharray:none"
                 d="M -1.37483,1.83311 C -1.26025,1.14569 0,0.11455 0.34369,0 0,-0.11455 -1.26025,-1.14569 -1.37483,-1.83311" /></g></g><g
             id="g378"><g
               transform="translate(17.622,28.322)"
               id="g380"><g
                 id="g382" /><g
                 transform="translate(-17.622,-28.322)"
                 id="g384" /></g></g></g><g
           id="g386"><g
             id="g388"><path
               inkscape:connector-curvature="0"
               id="path390"
               style="fill:#ccccff;fill-opacity:1;fill-rule:nonzero;stroke:#000000;stroke-width:0.59776002;stroke-linecap:butt;stroke-linejoin:miter;stroke-miterlimit:10;stroke-opacity:1;stroke-dasharray:none"
               d="m 94.15332,-70.867 c 0,5.29545 -10.42548,9.58815 -23.28632,9.58815 -12.86082,0 -23.28631,-4.2927 -23.28631,-9.58815 0,-5.29546 10.42549,-9.58817 23.28631,-9.58817 12.86084,0 23.28632,4.29271 23.28632,9.58817 z" /></g><g
             transform="translate(57.721,-74.325)"
             id="g392"><g
               id="g394"><g
                 transform="translate(-272.538,-526.293)"
                 id="g396"><text
                   id="text398"
                   transform="matrix(1,0,0,-1,272.538,526.293)"><tspan
                     id="tspan400"
                     sodipodi:role="line"
                     y="0"
                     x="0 7.1949897 9.9625998 12.73021 17.157589 22.413858"
                     style="font-size:9.96259975px;font-variant:normal;font-weight:normal;writing-mode:lr-tb;fill:#000000;fill-opacity:1;fill-rule:nonzero;stroke:none;font-family:CMR10;-inkscape-font-specification:CMR10">Client</tspan></text>
<g
                   transform="translate(272.538,526.293)"
                   id="g402" /></g></g><g
               transform="translate(-57.721,74.325)"
               id="g404" /></g></g><g
           id="g406"><path
             inkscape:connector-curvature="0"
             id="path408"
             style="fill:none;stroke:#000000;stroke-width:0.59776002;stroke-linecap:butt;stroke-linejoin:miter;stroke-miterlimit:10;stroke-opacity:1;stroke-dasharray:none"
             d="M 61.71883,-61.71906 9.5187,-9.51923" /><g
             transform="matrix(-0.7071,0.70712,-0.70712,-0.7071,9.5187,-9.51923)"
             id="g410"><g
               id="g412"><path
                 inkscape:connector-curvature="0"
                 id="path414"
                 style="fill:none;stroke:#000000;stroke-width:0.47819999;stroke-linecap:round;stroke-linejoin:round;stroke-miterlimit:10;stroke-opacity:1;stroke-dasharray:none"
                 d="M -1.37483,1.83311 C -1.26025,1.14569 0,0.11455 0.34369,0 0,-0.11455 -1.26025,-1.14569 -1.37483,-1.83311" /></g></g><g
             id="g416"><g
               transform="translate(31.793,-39.032)"
               id="g418"><g
                 id="g420" /><g
                 transform="translate(-31.793,39.032)"
                 id="g422" /></g></g></g><g
           id="g424"><g
             id="g426"><path
               inkscape:connector-curvature="0"
               id="path428"
               style="fill:#ffffff;fill-opacity:1;fill-rule:nonzero;stroke:#000000;stroke-width:0.79701;stroke-linecap:butt;stroke-linejoin:miter;stroke-miterlimit:10;stroke-opacity:1;stroke-dasharray:none"
               d="m 48.18948,-28.34679 17.00824,0 0,11.33855 -17.00824,0 0,-11.33855 z" /></g><g
             transform="translate(56.693,-22.677)"
             id="g430"><g
               id="g432" /><g
               transform="translate(-56.693,22.677)"
               id="g434" /></g></g><g
           id="g436"><path
             inkscape:connector-curvature="0"
             id="path438"
             style="fill:none;stroke:#000000;stroke-width:0.79701;stroke-linecap:butt;stroke-linejoin:miter;stroke-miterlimit:10;stroke-opacity:1;stroke-dasharray:none"
             d="m 56.69362,-22.67752 -8.50414,5.66928 m 8.50414,-5.66928 8.50412,5.66928" /></g><g
           id="g440"><path
             inkscape:connector-curvature="0"
             id="path442"
             style="fill:none;stroke:#000000;stroke-width:0.59776002;stroke-linecap:butt;stroke-linejoin:miter;stroke-miterlimit:10;stroke-opacity:1;stroke-dasharray:none"
             d="m 58.47766,-28.74529 9.33775,-31.74539" /><g
             transform="matrix(0.28249,-0.96042,0.96042,0.28249,67.81541,-60.49068)"
             id="g444"><g
               id="g446"><path
                 inkscape:connector-curvature="0"
                 id="path448"
                 style="fill:none;stroke:#000000;stroke-width:0.47819999;stroke-linecap:round;stroke-linejoin:round;stroke-miterlimit:10;stroke-opacity:1;stroke-dasharray:none"
                 d="M -1.37483,1.83311 C -1.26025,1.14569 0,0.11455 0.34369,0 0,-0.11455 -1.26025,-1.14569 -1.37483,-1.83311" /></g></g><g
             id="g450"><g
               transform="translate(66.847,-44.897)"
               id="g452"><g
                 id="g454" /><g
                 transform="translate(-66.847,44.897)"
                 id="g456" /></g></g></g><g
           id="g458"><path
             inkscape:connector-curvature="0"
             id="path460"
             style="fill:none;stroke:#000000;stroke-width:0.59776002;stroke-linecap:butt;stroke-linejoin:miter;stroke-miterlimit:10;stroke-opacity:1;stroke-dasharray:none"
             d="M 47.79099,-19.11667 17.83519,-7.13402" /><g
             transform="matrix(-0.93166,0.37267,-0.37267,-0.93166,17.83519,-7.13402)"
             id="g462"><g
               id="g464"><path
                 inkscape:connector-curvature="0"
                 id="path466"
                 style="fill:none;stroke:#000000;stroke-width:0.47819999;stroke-linecap:round;stroke-linejoin:round;stroke-miterlimit:10;stroke-opacity:1;stroke-dasharray:none"
                 d="M -1.37483,1.83311 C -1.26025,1.14569 0,0.11455 0.34369,0 0,-0.11455 -1.26025,-1.14569 -1.37483,-1.83311" /></g></g><g
             id="g468"><g
               transform="translate(36.161,-9.397)"
               id="g470"><g
                 id="g472" /><g
                 transform="translate(-36.161,9.397)"
                 id="g474" /></g></g></g><g
           id="g476"><g
             id="g478"><path
               inkscape:connector-curvature="0"
               id="path480"
               style="fill:none;stroke:#000000;stroke-width:2.98883009;stroke-linecap:butt;stroke-linejoin:miter;stroke-miterlimit:10;stroke-opacity:1;stroke-dasharray:none"
               d="M 34.71906,47.33278 C -28.3468,-28.3468 70.867,0 70.867,-58.90273" /><g
               id="g482"><path
                 inkscape:connector-curvature="0"
                 id="path484"
                 style="fill:none;stroke:#ffffff;stroke-width:0.59776002;stroke-linecap:butt;stroke-linejoin:miter;stroke-miterlimit:10;stroke-opacity:1;stroke-dasharray:none"
                 d="M 34.71906,47.33278 C -28.3468,-28.3468 70.867,0 70.867,-58.90273" /></g><g
               transform="matrix(0,-1,1,0,70.867,-58.90273)"
               id="g486"><g
                 id="g488"><path
                   inkscape:connector-curvature="0"
                   id="path490"
                   style="fill:none;stroke:#000000;stroke-width:2.39106989;stroke-linecap:round;stroke-linejoin:round;stroke-miterlimit:10;stroke-opacity:1;stroke-dasharray:none"
                   d="M -3.52684,4.70245 C -3.23293,2.93903 0,0.2939 0.8817,0 0,-0.2939 -3.23293,-2.93903 -3.52684,-4.70245" /></g></g></g></g></g></g></g></svg>