<svg width="354pt" height="279pt" viewBox="0.00 0.00 354.00 279.00" xmlns="http://www.w3.org/2000/svg" xmlns:xlink="http://www.w3.org/1999/xlink">
<g id="graph1" class="graph" transform="scale(1 1) rotate(0) translate(4 275)">
<title>t_9</title>
<polygon fill="white" stroke="white" points="-4,5 -4,-275 351,-275 351,5 -4,5"></polygon>
<g id="graph2" class="cluster"><title>cluster_t_9_src</title>
<polygon fill="none" stroke="black" points="8,-8 8,-263 156,-263 156,-8 8,-8"></polygon>
<text text-anchor="middle" x="82" y="-246.4" font-family="Times Roman,serif" font-size="14.00">LHS(cover_3)</text>
</g>
<g id="graph3" class="cluster"><title>cluster_t_9_to</title>
<polygon fill="none" stroke="black" points="164,-8 164,-263 338,-263 338,-8 164,-8"></polygon>
<text text-anchor="middle" x="251" y="-246.4" font-family="Times Roman,serif" font-size="14.00">RHS(cover_7)</text>
</g>
<!-- cluster_t_9_src0 -->
<g id="node2" class="node"><title>cluster_t_9_src0</title>
<polygon fill="none" stroke="black" points="16,-154.5 16,-229.5 148,-229.5 148,-154.5 16,-154.5"></polygon>
<text text-anchor="middle" x="82" y="-212.9" font-family="Times Roman,serif" font-size="14.00">callee: Iter</text>
<polyline fill="none" stroke="black" points="16,-204.5 148,-204.5 "></polyline>
<text text-anchor="middle" x="82" y="-187.9" font-family="Times Roman,serif" font-size="14.00">(mover,Set,true)</text>
<polyline fill="none" stroke="black" points="16,-179.5 148,-179.5 "></polyline>
<text text-anchor="middle" x="82" y="-162.9" font-family="Times Roman,serif" font-size="14.00">(sync,Set,false)</text>
</g>
<!-- cluster_t_9_src1 -->
<g id="node3" class="node"><title>cluster_t_9_src1</title>
<polygon fill="none" stroke="black" points="38,-17 38,-117 126,-117 126,-17 38,-17"></polygon>
<text text-anchor="middle" x="82" y="-100.4" font-family="Times Roman,serif" font-size="14.00">s0: Set</text>
<polyline fill="none" stroke="black" points="38,-92 126,-92 "></polyline>
<text text-anchor="middle" x="82" y="-75.4" font-family="Times Roman,serif" font-size="14.00">empty</text>
<polyline fill="none" stroke="black" points="38,-67 126,-67 "></polyline>
<text text-anchor="middle" x="82" y="-50.4" font-family="Times Roman,serif" font-size="14.00">not mover</text>
<polyline fill="none" stroke="black" points="38,-42 126,-42 "></polyline>
<text text-anchor="middle" x="82" y="-25.4" font-family="Times Roman,serif" font-size="14.00">sync</text>
</g>
<!-- cluster_t_9_src0&#45;&gt;cluster_t_9_src1 -->
<g id="edge3" class="edge"><title>cluster_t_9_src0-&gt;cluster_t_9_src1</title>
<path fill="none" stroke="black" d="M82,-154.496C82,-146.031 82,-136.835 82,-127.69"></path>
<polygon fill="black" stroke="black" points="85.5001,-127.428 82,-117.429 78.5001,-127.429 85.5001,-127.428"></polygon>
</g>
<!-- cluster_t_9_to0 -->
<g id="node6" class="node"><title>cluster_t_9_to0</title>
<polygon fill="none" stroke="black" points="172,-154.5 172,-229.5 330,-229.5 330,-154.5 172,-154.5"></polygon>
<text text-anchor="middle" x="251" y="-212.9" font-family="Times Roman,serif" font-size="14.00">callee: IterErrorSync</text>
<polyline fill="none" stroke="black" points="172,-204.5 330,-204.5 "></polyline>
<text text-anchor="middle" x="251" y="-187.9" font-family="Times Roman,serif" font-size="14.00">(mover,Set,true)</text>
<polyline fill="none" stroke="black" points="172,-179.5 330,-179.5 "></polyline>
<text text-anchor="middle" x="251" y="-162.9" font-family="Times Roman,serif" font-size="14.00">(sync,Set,false)</text>
</g>
<!-- cluster_t_9_to1 -->
<g id="node7" class="node"><title>cluster_t_9_to1</title>
<polygon fill="none" stroke="black" points="207,-17 207,-117 295,-117 295,-17 207,-17"></polygon>
<text text-anchor="middle" x="251" y="-100.4" font-family="Times Roman,serif" font-size="14.00">s0: Set</text>
<polyline fill="none" stroke="black" points="207,-92 295,-92 "></polyline>
<text text-anchor="middle" x="251" y="-75.4" font-family="Times Roman,serif" font-size="14.00">empty</text>
<polyline fill="none" stroke="black" points="207,-67 295,-67 "></polyline>
<text text-anchor="middle" x="251" y="-50.4" font-family="Times Roman,serif" font-size="14.00">not mover</text>
<polyline fill="none" stroke="black" points="207,-42 295,-42 "></polyline>
<text text-anchor="middle" x="251" y="-25.4" font-family="Times Roman,serif" font-size="14.00">sync</text>
</g>
<!-- cluster_t_9_to0&#45;&gt;cluster_t_9_to1 -->
<g id="edge6" class="edge"><title>cluster_t_9_to0-&gt;cluster_t_9_to1</title>
<path fill="none" stroke="black" d="M251,-154.496C251,-146.031 251,-136.835 251,-127.69"></path>
<polygon fill="black" stroke="black" points="254.5,-127.428 251,-117.429 247.5,-127.429 254.5,-127.428"></polygon>
</g>
</g>
</svg>
