<svg width="1116pt" height="483pt" viewBox="0.00 0.00 1116.00 483.00" xmlns="http://www.w3.org/2000/svg" xmlns:xlink="http://www.w3.org/1999/xlink">
<g id="graph1" class="graph" transform="scale(1 1) rotate(0) translate(4 479)">
<title>t_12</title>
<polygon fill="white" stroke="white" points="-4,5 -4,-479 1113,-479 1113,5 -4,5"></polygon>
<g id="graph2" class="cluster"><title>cluster_t_12_src</title>
<polygon fill="none" stroke="black" points="8,-146 8,-467 628,-467 628,-146 8,-146"></polygon>
<text text-anchor="middle" x="318" y="-450.4" font-family="Times Roman,serif" font-size="14.00">LHS(cover_3)</text>
</g>
<g id="graph3" class="cluster"><title>cluster_cluster_t_12_src_1</title>
<polygon fill="none" stroke="black" stroke-dasharray="5,2" points="158,-317 158,-434 308,-434 308,-317 158,-317"></polygon>
<text text-anchor="middle" x="233" y="-417.4" font-family="Times Roman,serif" font-size="14.00">*</text>
</g>
<g id="graph4" class="cluster"><title>cluster_cluster_t_12_src_3</title>
<polygon fill="none" stroke="black" stroke-dasharray="5,2" points="472,-317 472,-434 620,-434 620,-317 472,-317"></polygon>
<text text-anchor="middle" x="546" y="-417.4" font-family="Times Roman,serif" font-size="14.00">*</text>
</g>
<g id="graph5" class="cluster"><title>cluster_cluster_t_12_src_2</title>
<polygon fill="none" stroke="black" stroke-dasharray="5,2" points="316,-317 316,-434 464,-434 464,-317 316,-317"></polygon>
<text text-anchor="middle" x="390" y="-417.4" font-family="Times Roman,serif" font-size="14.00">*</text>
</g>
<g id="graph6" class="cluster"><title>cluster_t_12_to</title>
<polygon fill="none" stroke="black" points="636,-8 636,-309 1100,-309 1100,-8 636,-8"></polygon>
<text text-anchor="middle" x="868" y="-292.4" font-family="Times Roman,serif" font-size="14.00">RHS(cover_3)</text>
</g>
<g id="graph7" class="cluster"><title>cluster_cluster_t_12_to_1</title>
<polygon fill="none" stroke="black" stroke-dasharray="5,2" points="786,-159 786,-276 936,-276 936,-159 786,-159"></polygon>
<text text-anchor="middle" x="861" y="-259.4" font-family="Times Roman,serif" font-size="14.00">*</text>
</g>
<g id="graph8" class="cluster"><title>cluster_cluster_t_12_to_2</title>
<polygon fill="none" stroke="black" stroke-dasharray="5,2" points="944,-159 944,-276 1092,-276 1092,-159 944,-159"></polygon>
<text text-anchor="middle" x="1018" y="-259.4" font-family="Times Roman,serif" font-size="14.00">*</text>
</g>
<!-- cluster_t_12_src0 -->
<g id="node2" class="node"><title>cluster_t_12_src0</title>
<polygon fill="none" stroke="black" points="267,-155 267,-255 355,-255 355,-155 267,-155"></polygon>
<text text-anchor="middle" x="311" y="-238.4" font-family="Times Roman,serif" font-size="14.00">s0: Set</text>
<polyline fill="none" stroke="black" points="267,-230 355,-230 "></polyline>
<text text-anchor="middle" x="311" y="-213.4" font-family="Times Roman,serif" font-size="14.00">not mover</text>
<polyline fill="none" stroke="black" points="267,-205 355,-205 "></polyline>
<text text-anchor="middle" x="311" y="-188.4" font-family="Times Roman,serif" font-size="14.00">not empty</text>
<polyline fill="none" stroke="black" points="267,-180 355,-180 "></polyline>
<text text-anchor="middle" x="311" y="-163.4" font-family="Times Roman,serif" font-size="14.00">sync</text>
</g>
<!-- cluster_t_12_src4 -->
<g id="node3" class="node"><title>cluster_t_12_src4</title>
<polygon fill="none" stroke="black" points="16,-325.5 16,-400.5 148,-400.5 148,-325.5 16,-325.5"></polygon>
<text text-anchor="middle" x="82" y="-383.9" font-family="Times Roman,serif" font-size="14.00">callee: Iter</text>
<polyline fill="none" stroke="black" points="16,-375.5 148,-375.5 "></polyline>
<text text-anchor="middle" x="82" y="-358.9" font-family="Times Roman,serif" font-size="14.00">(mover,Set,true)</text>
<polyline fill="none" stroke="black" points="16,-350.5 148,-350.5 "></polyline>
<text text-anchor="middle" x="82" y="-333.9" font-family="Times Roman,serif" font-size="14.00">(sync,Set,true)</text>
</g>
<!-- cluster_t_12_src4&#45;&gt;cluster_t_12_src0 -->
<g id="edge9" class="edge"><title>cluster_t_12_src4-&gt;cluster_t_12_src0</title>
<path fill="none" stroke="black" d="M136.56,-325.356C173.425,-299.921 221.834,-266.521 258.301,-241.36"></path>
<polygon fill="black" stroke="black" points="260.586,-244.036 266.829,-235.476 256.61,-238.274 260.586,-244.036"></polygon>
</g>
<!-- cluster_t_12_src1 -->
<g id="node4" class="node"><title>cluster_t_12_src1</title>
<polygon fill="none" stroke="black" points="324,-325.5 324,-400.5 456,-400.5 456,-325.5 324,-325.5"></polygon>
<text text-anchor="middle" x="390" y="-383.9" font-family="Times Roman,serif" font-size="14.00">Iter</text>
<polyline fill="none" stroke="black" points="324,-375.5 456,-375.5 "></polyline>
<text text-anchor="middle" x="390" y="-358.9" font-family="Times Roman,serif" font-size="14.00">(mover,Set,true)</text>
<polyline fill="none" stroke="black" points="324,-350.5 456,-350.5 "></polyline>
<text text-anchor="middle" x="390" y="-333.9" font-family="Times Roman,serif" font-size="14.00">(sync,Set,true)</text>
</g>
<!-- cluster_t_12_src1&#45;&gt;cluster_t_12_src0 -->
<g id="edge3" class="edge"><title>cluster_t_12_src1-&gt;cluster_t_12_src0</title>
<path fill="none" stroke="black" d="M371.078,-325.155C361.973,-306.946 350.845,-284.69 340.651,-264.303"></path>
<polygon fill="black" stroke="black" points="343.647,-262.468 336.044,-255.089 337.386,-265.598 343.647,-262.468"></polygon>
</g>
<!-- cluster_t_12_to1 -->
<g id="node18" class="node"><title>cluster_t_12_to1</title>
<polygon fill="none" stroke="black" points="952,-167.5 952,-242.5 1084,-242.5 1084,-167.5 952,-167.5"></polygon>
<text text-anchor="middle" x="1018" y="-225.9" font-family="Times Roman,serif" font-size="14.00">Iter</text>
<polyline fill="none" stroke="black" points="952,-217.5 1084,-217.5 "></polyline>
<text text-anchor="middle" x="1018" y="-200.9" font-family="Times Roman,serif" font-size="14.00">(mover,Set,true)</text>
<polyline fill="none" stroke="black" points="952,-192.5 1084,-192.5 "></polyline>
<text text-anchor="middle" x="1018" y="-175.9" font-family="Times Roman,serif" font-size="14.00">(sync,Set,false)</text>
</g>
<!-- cluster_t_12_src1&#45;&gt;cluster_t_12_to1 -->
<g id="edge23" class="edge"><title>cluster_t_12_src1-&gt;cluster_t_12_to1</title>
<path fill="none" stroke="#0000ff" d="M446.418,-325.302C453.456,-321.946 460.737,-319.048 468,-317 493.241,-309.881 916.643,-320.927 940,-309 964.115,-296.686 982.758,-273.073 995.761,-251.456"></path>
<polygon fill="#0000ff" stroke="#0000ff" points="998.863,-253.083 1000.81,-242.669 992.795,-249.593 998.863,-253.083"></polygon>
</g>
<!-- cluster_t_12_to2 -->
<g id="node20" class="node"><title>cluster_t_12_to2</title>
<polygon fill="none" stroke="black" points="794,-167.5 794,-242.5 928,-242.5 928,-167.5 794,-167.5"></polygon>
<text text-anchor="middle" x="861" y="-225.9" font-family="Times Roman,serif" font-size="14.00">Iter</text>
<polyline fill="none" stroke="black" points="794,-217.5 928,-217.5 "></polyline>
<text text-anchor="middle" x="861" y="-200.9" font-family="Times Roman,serif" font-size="14.00">(mover,Set,false)</text>
<polyline fill="none" stroke="black" points="794,-192.5 928,-192.5 "></polyline>
<text text-anchor="middle" x="861" y="-175.9" font-family="Times Roman,serif" font-size="14.00">(sync,Set,false)</text>
</g>
<!-- cluster_t_12_src1&#45;&gt;cluster_t_12_to2 -->
<g id="edge25" class="edge"><title>cluster_t_12_src1-&gt;cluster_t_12_to2</title>
<path fill="none" stroke="#0000ff" d="M446.434,-325.359C453.469,-321.992 460.745,-319.077 468,-317 502.406,-307.149 758.563,-326.105 790,-309 812.936,-296.52 829.925,-273.048 841.524,-251.556"></path>
<polygon fill="#0000ff" stroke="#0000ff" points="844.717,-253 846.166,-242.505 838.488,-249.805 844.717,-253"></polygon>
</g>
<!-- cluster_t_12_src2 -->
<g id="node6" class="node"><title>cluster_t_12_src2</title>
<polygon fill="none" stroke="black" points="480,-325.5 480,-400.5 612,-400.5 612,-325.5 480,-325.5"></polygon>
<text text-anchor="middle" x="546" y="-383.9" font-family="Times Roman,serif" font-size="14.00">Iter</text>
<polyline fill="none" stroke="black" points="480,-375.5 612,-375.5 "></polyline>
<text text-anchor="middle" x="546" y="-358.9" font-family="Times Roman,serif" font-size="14.00">(mover,Set,true)</text>
<polyline fill="none" stroke="black" points="480,-350.5 612,-350.5 "></polyline>
<text text-anchor="middle" x="546" y="-333.9" font-family="Times Roman,serif" font-size="14.00">(sync,Set,false)</text>
</g>
<!-- cluster_t_12_src2&#45;&gt;cluster_t_12_src0 -->
<g id="edge5" class="edge"><title>cluster_t_12_src2-&gt;cluster_t_12_src0</title>
<path fill="none" stroke="black" d="M490.01,-325.356C451.803,-299.667 401.511,-265.854 363.965,-240.61"></path>
<polygon fill="black" stroke="black" points="365.445,-237.388 355.193,-234.713 361.539,-243.197 365.445,-237.388"></polygon>
</g>
<!-- cluster_t_12_src2&#45;&gt;cluster_t_12_to1 -->
<g id="edge27" class="edge"><title>cluster_t_12_src2-&gt;cluster_t_12_to1</title>
<path fill="none" stroke="#0000ff" d="M612.157,-360.058C709.552,-354.711 885.847,-340.857 940,-309 962.894,-295.532 981.223,-272.468 994.346,-251.477"></path>
<polygon fill="#0000ff" stroke="#0000ff" points="997.503,-253.017 999.649,-242.641 991.502,-249.414 997.503,-253.017"></polygon>
</g>
<!-- cluster_t_12_src2&#45;&gt;cluster_t_12_to2 -->
<g id="edge29" class="edge"><title>cluster_t_12_src2-&gt;cluster_t_12_to2</title>
<path fill="none" stroke="#0000ff" d="M612.241,-353.941C674.226,-344.477 761.431,-328.327 790,-309 810.978,-294.808 827.51,-272.161 839.324,-251.618"></path>
<polygon fill="#0000ff" stroke="#0000ff" points="842.494,-253.118 844.258,-242.671 836.364,-249.738 842.494,-253.118"></polygon>
</g>
<!-- cluster_t_12_src3 -->
<g id="node8" class="node"><title>cluster_t_12_src3</title>
<polygon fill="none" stroke="black" points="166,-325.5 166,-400.5 300,-400.5 300,-325.5 166,-325.5"></polygon>
<text text-anchor="middle" x="233" y="-383.9" font-family="Times Roman,serif" font-size="14.00">Iter</text>
<polyline fill="none" stroke="black" points="166,-375.5 300,-375.5 "></polyline>
<text text-anchor="middle" x="233" y="-358.9" font-family="Times Roman,serif" font-size="14.00">(mover,Set,false)</text>
<polyline fill="none" stroke="black" points="166,-350.5 300,-350.5 "></polyline>
<text text-anchor="middle" x="233" y="-333.9" font-family="Times Roman,serif" font-size="14.00">(sync,Set,true)</text>
</g>
<!-- cluster_t_12_src3&#45;&gt;cluster_t_12_src0 -->
<g id="edge7" class="edge"><title>cluster_t_12_src3-&gt;cluster_t_12_src0</title>
<path fill="none" stroke="black" d="M251.683,-325.155C260.672,-306.946 271.659,-284.69 281.724,-264.303"></path>
<polygon fill="black" stroke="black" points="284.984,-265.605 286.273,-255.089 278.707,-262.506 284.984,-265.605"></polygon>
</g>
<!-- cluster_t_12_src3&#45;&gt;cluster_t_12_to2 -->
<g id="edge31" class="edge"><title>cluster_t_12_src3-&gt;cluster_t_12_to2</title>
<path fill="none" stroke="#0000ff" d="M290.177,-325.299C297.298,-321.943 304.662,-319.047 312,-317 337.583,-309.864 766.619,-321.599 790,-309 812.986,-296.613 829.979,-273.147 841.567,-251.636"></path>
<polygon fill="#0000ff" stroke="#0000ff" points="844.764,-253.071 846.204,-242.574 838.532,-249.882 844.764,-253.071"></polygon>
</g>
<!-- cluster_t_12_to0 -->
<g id="node15" class="node"><title>cluster_t_12_to0</title>
<polygon fill="none" stroke="black" points="644,-167.5 644,-242.5 776,-242.5 776,-167.5 644,-167.5"></polygon>
<text text-anchor="middle" x="710" y="-225.9" font-family="Times Roman,serif" font-size="14.00">callee: Iter</text>
<polyline fill="none" stroke="black" points="644,-217.5 776,-217.5 "></polyline>
<text text-anchor="middle" x="710" y="-200.9" font-family="Times Roman,serif" font-size="14.00">(mover,Set,true)</text>
<polyline fill="none" stroke="black" points="644,-192.5 776,-192.5 "></polyline>
<text text-anchor="middle" x="710" y="-175.9" font-family="Times Roman,serif" font-size="14.00">(sync,Set,true)</text>
</g>
<!-- cluster_t_12_to3 -->
<g id="node16" class="node"><title>cluster_t_12_to3</title>
<polygon fill="none" stroke="black" points="817,-17 817,-117 905,-117 905,-17 817,-17"></polygon>
<text text-anchor="middle" x="861" y="-100.4" font-family="Times Roman,serif" font-size="14.00">s0: Set</text>
<polyline fill="none" stroke="black" points="817,-92 905,-92 "></polyline>
<text text-anchor="middle" x="861" y="-75.4" font-family="Times Roman,serif" font-size="14.00">not mover</text>
<polyline fill="none" stroke="black" points="817,-67 905,-67 "></polyline>
<text text-anchor="middle" x="861" y="-50.4" font-family="Times Roman,serif" font-size="14.00">not empty</text>
<polyline fill="none" stroke="black" points="817,-42 905,-42 "></polyline>
<text text-anchor="middle" x="861" y="-25.4" font-family="Times Roman,serif" font-size="14.00">sync</text>
</g>
<!-- cluster_t_12_to0&#45;&gt;cluster_t_12_to3 -->
<g id="edge15" class="edge"><title>cluster_t_12_to0-&gt;cluster_t_12_to3</title>
<path fill="none" stroke="black" d="M751.261,-167.291C769.223,-150.876 790.464,-131.463 809.451,-114.111"></path>
<polygon fill="black" stroke="black" points="811.86,-116.651 816.881,-107.321 807.138,-111.484 811.86,-116.651"></polygon>
</g>
<!-- cluster_t_12_to1&#45;&gt;cluster_t_12_to3 -->
<g id="edge17" class="edge"><title>cluster_t_12_to1-&gt;cluster_t_12_to3</title>
<path fill="none" stroke="black" d="M975.099,-167.291C955.858,-150.379 932.997,-130.284 912.81,-112.54"></path>
<polygon fill="black" stroke="black" points="915.038,-109.839 905.216,-105.865 910.417,-115.096 915.038,-109.839"></polygon>
</g>
<!-- cluster_t_12_to2&#45;&gt;cluster_t_12_to3 -->
<g id="edge19" class="edge"><title>cluster_t_12_to2-&gt;cluster_t_12_to3</title>
<path fill="none" stroke="black" d="M861,-167.291C861,-154.954 861,-140.924 861,-127.347"></path>
<polygon fill="black" stroke="black" points="864.5,-127.089 861,-117.089 857.5,-127.09 864.5,-127.089"></polygon>
</g>
</g>
</svg>
