<?xml version="1.0" encoding="UTF-8" standalone="no"?>
<svg
   xmlns:dc="http://purl.org/dc/elements/1.1/"
   xmlns:cc="http://creativecommons.org/ns#"
   xmlns:rdf="http://www.w3.org/1999/02/22-rdf-syntax-ns#"
   xmlns:svg="http://www.w3.org/2000/svg"
   xmlns="http://www.w3.org/2000/svg"
   xmlns:xlink="http://www.w3.org/1999/xlink"
   xmlns:sodipodi="http://sodipodi.sourceforge.net/DTD/sodipodi-0.dtd"
   xmlns:inkscape="http://www.inkscape.org/namespaces/inkscape"
   sodipodi:docname="Monty-MiddleCarSwitch.svg"
   version="1.0"
   inkscape:version="1.0.1 (3bc2e813f5, 2020-09-07)"
   sodipodi:version="0.32"
   id="svg2"
   height="109.99935"
   width="179.44"
   inkscape:output_extension="org.inkscape.output.svg.inkscape">
  <defs
     id="defs4">
    <linearGradient
       inkscape:collect="always"
       xlink:href="#linearGradient14891"
       id="linearGradient1376"
       gradientUnits="userSpaceOnUse"
       x1="112.13223"
       y1="65.066559"
       x2="113.08676"
       y2="65.581429" />
    <linearGradient
       id="linearGradient14915">
      <stop
         id="stop14917"
         offset="0"
         style="stop-color:#cc4f00;stop-opacity:1;" />
      <stop
         id="stop14919"
         offset="1"
         style="stop-color:#984815;stop-opacity:1;" />
    </linearGradient>
    <linearGradient
       id="linearGradient14905">
      <stop
         id="stop14907"
         offset="0"
         style="stop-color:#c3c3c3;stop-opacity:1;" />
      <stop
         style="stop-color:black;stop-opacity:1;"
         offset="0.55555558"
         id="stop14913" />
      <stop
         id="stop14909"
         offset="1"
         style="stop-color:black;stop-opacity:1;" />
    </linearGradient>
    <linearGradient
       id="linearGradient14891">
      <stop
         id="stop14893"
         offset="0"
         style="stop-color:white;stop-opacity:1;" />
      <stop
         id="stop14895"
         offset="1"
         style="stop-color:#e2e2e2;stop-opacity:1;" />
    </linearGradient>
    <linearGradient
       id="linearGradient6420">
      <stop
         id="stop6422"
         offset="0"
         style="stop-color:#9bd9ff;stop-opacity:1;" />
      <stop
         id="stop6424"
         offset="1"
         style="stop-color:#1da5ff;stop-opacity:1;" />
    </linearGradient>
    <linearGradient
       y2="87.081856"
       x2="105.49163"
       y1="72.271553"
       x1="97.191101"
       gradientTransform="translate(222.1796,419.7149)"
       gradientUnits="userSpaceOnUse"
       id="linearGradient14975"
       xlink:href="#linearGradient14915"
       inkscape:collect="always" />
    <linearGradient
       y2="65.581429"
       x2="113.08676"
       y1="65.066559"
       x1="112.13223"
       gradientUnits="userSpaceOnUse"
       id="linearGradient14977"
       xlink:href="#linearGradient14891"
       inkscape:collect="always" />
    <linearGradient
       gradientTransform="translate(0.772106,0.855522)"
       y2="505.42252"
       x2="376.26169"
       y1="505.42252"
       x1="345.88135"
       gradientUnits="userSpaceOnUse"
       id="linearGradient14991"
       xlink:href="#linearGradient6420"
       inkscape:collect="always" />
    <linearGradient
       y2="534.82318"
       x2="291.55579"
       y1="494.82321"
       x1="251.5558"
       gradientTransform="translate(2.022141,3.459846)"
       gradientUnits="userSpaceOnUse"
       id="linearGradient15001"
       xlink:href="#linearGradient6420"
       inkscape:collect="always" />
    <linearGradient
       y2="534.82318"
       x2="-196.55582"
       y1="494.82321"
       x1="-236.55583"
       gradientTransform="translate(435.1338,3.459846)"
       gradientUnits="userSpaceOnUse"
       id="linearGradient15005"
       xlink:href="#linearGradient6420"
       inkscape:collect="always" />
    <linearGradient
       y2="534.82318"
       x2="-196.55582"
       y1="494.82321"
       x1="-236.55583"
       gradientTransform="translate(435.1338,3.459846)"
       gradientUnits="userSpaceOnUse"
       id="linearGradient15443"
       xlink:href="#linearGradient6420"
       inkscape:collect="always" />
    <linearGradient
       y2="534.82318"
       x2="291.55579"
       y1="494.82321"
       x1="251.5558"
       gradientTransform="translate(2.022141,3.459846)"
       gradientUnits="userSpaceOnUse"
       id="linearGradient15445"
       xlink:href="#linearGradient6420"
       inkscape:collect="always" />
    <linearGradient
       y2="505.42252"
       x2="376.26169"
       y1="505.42252"
       x1="345.88135"
       gradientTransform="translate(0.772106,0.855522)"
       gradientUnits="userSpaceOnUse"
       id="linearGradient15447"
       xlink:href="#linearGradient6420"
       inkscape:collect="always" />
    <linearGradient
       y2="87.081856"
       x2="105.49163"
       y1="72.271553"
       x1="97.191101"
       gradientTransform="translate(222.1796,419.7149)"
       gradientUnits="userSpaceOnUse"
       id="linearGradient15449"
       xlink:href="#linearGradient14915"
       inkscape:collect="always" />
    <linearGradient
       y2="65.581429"
       x2="113.08676"
       y1="65.066559"
       x1="112.13223"
       gradientUnits="userSpaceOnUse"
       id="linearGradient15451"
       xlink:href="#linearGradient14891"
       inkscape:collect="always" />
    <linearGradient
       inkscape:collect="always"
       xlink:href="#linearGradient6420"
       id="linearGradient1346"
       gradientUnits="userSpaceOnUse"
       gradientTransform="translate(1.544202,2.852877)"
       x1="345.88135"
       y1="505.42252"
       x2="376.26169"
       y2="505.42252" />
    <linearGradient
       inkscape:collect="always"
       xlink:href="#linearGradient6420"
       id="linearGradient1351"
       gradientUnits="userSpaceOnUse"
       gradientTransform="matrix(1.000014,0,0,1,2.79149,4.452202)"
       x1="251.5558"
       y1="494.82321"
       x2="291.55579"
       y2="534.82318" />
    <linearGradient
       inkscape:collect="always"
       xlink:href="#linearGradient6420"
       id="linearGradient1355"
       gradientUnits="userSpaceOnUse"
       gradientTransform="matrix(1.000014,0,0,1,435.9092,4.452202)"
       x1="-236.55583"
       y1="494.82321"
       x2="-196.55582"
       y2="534.82318" />
    <linearGradient
       y2="505.42252"
       x2="376.26169"
       y1="505.42252"
       x1="345.88135"
       gradientTransform="matrix(1,0,0,0.999945,1.529128,-14.11916)"
       gradientUnits="userSpaceOnUse"
       id="linearGradient1540"
       xlink:href="#linearGradient6420"
       inkscape:collect="always" />
    <linearGradient
       y2="87.081856"
       x2="105.49163"
       y1="72.271553"
       x1="97.191101"
       gradientTransform="translate(420.7576,877.9903)"
       gradientUnits="userSpaceOnUse"
       id="linearGradient1542"
       xlink:href="#linearGradient14915"
       inkscape:collect="always" />
    <linearGradient
       y2="65.581429"
       x2="113.08676"
       y1="65.066559"
       x1="112.13223"
       gradientUnits="userSpaceOnUse"
       id="linearGradient1544"
       xlink:href="#linearGradient14891"
       inkscape:collect="always" />
    <linearGradient
       inkscape:collect="always"
       xlink:href="#linearGradient6420"
       id="linearGradient3065"
       gradientUnits="userSpaceOnUse"
       gradientTransform="matrix(1.000014,0,0,1,435.9092,4.452202)"
       x1="-236.55583"
       y1="494.82321"
       x2="-196.55582"
       y2="534.82318" />
    <linearGradient
       inkscape:collect="always"
       xlink:href="#linearGradient6420"
       id="linearGradient3067"
       gradientUnits="userSpaceOnUse"
       gradientTransform="matrix(1.000014,0,0,1,2.79149,4.452202)"
       x1="251.5558"
       y1="494.82321"
       x2="291.55579"
       y2="534.82318" />
    <linearGradient
       inkscape:collect="always"
       xlink:href="#linearGradient14891"
       id="linearGradient3069"
       gradientUnits="userSpaceOnUse"
       x1="112.13223"
       y1="65.066559"
       x2="113.08676"
       y2="65.581429" />
  </defs>
  <sodipodi:namedview
     inkscape:guide-bbox="true"
     showguides="true"
     inkscape:window-y="80"
     inkscape:window-x="112"
     inkscape:window-height="1253"
     inkscape:window-width="2108"
     units="px"
     height="109.99935px"
     width="179.44px"
     inkscape:current-layer="layer1"
     inkscape:document-units="px"
     inkscape:cy="36.851227"
     inkscape:cx="-5.7877884"
     inkscape:zoom="2.9140551"
     inkscape:pageshadow="2"
     inkscape:pageopacity="0.0"
     objecttolerance="10"
     guidetolerance="10"
     gridtolerance="10000"
     borderopacity="1.0"
     bordercolor="#666666"
     pagecolor="#ffffff"
     id="base"
     inkscape:document-rotation="0"
     showgrid="false"
     inkscape:window-maximized="0" />
  <metadata
     id="metadata7">
    <rdf:RDF>
      <cc:Work
         rdf:about="">
        <dc:format>image/svg+xml</dc:format>
        <dc:type
           rdf:resource="http://purl.org/dc/dcmitype/StillImage" />
      </cc:Work>
    </rdf:RDF>
  </metadata>
  <g
     transform="translate(-199.35012,-458.37552)"
     id="layer1"
     inkscape:groupmode="layer"
     inkscape:label="Layer 1"
     style="display:inline">
    <g
       id="g3055"
       transform="translate(-55.000682,0)">
      <rect
         y="460.2312"
         x="255.30659"
         height="78.088425"
         width="38.088966"
         id="rect2828"
         style="fill:url(#linearGradient3067);fill-opacity:1;fill-rule:nonzero;stroke:#000000;stroke-width:1.91158605;stroke-miterlimit:4;stroke-opacity:1" />
      <g
         transform="translate(-55.03671,2.668285)"
         id="g1367">
        <path
           style="fill:#f6f6f6;fill-opacity:1;fill-rule:evenodd;stroke:#7f7f7f;stroke-width:1px;stroke-linecap:butt;stroke-linejoin:miter;stroke-opacity:1"
           d="M 332.959,485.88635 C 334.20872,479.63776 324.83583,479.0129 324.83583,479.0129 C 324.83583,479.0129 338.42651,475.21168 337.33301,488.1775 C 337.10945,490.82833 332.19918,489.68546 332.959,485.88635 z "
           id="path14903"
           sodipodi:nodetypes="csss" />
        <path
           sodipodi:nodetypes="cccccccccsccccccc"
           style="fill:#7f7f7f;fill-opacity:1;fill-rule:evenodd;stroke:#7f7f7f;stroke-width:1px;stroke-linecap:butt;stroke-linejoin:miter;stroke-opacity:1"
           d="M 330.2655,484.27655 C 330.02749,484.33925 329.7724,484.57698 329.5155,484.77655 C 328.69629,485.41298 329.47247,485.97078 329.828,486.33905 C 330.40808,486.93991 330.04222,487.05066 331.203,486.8703 C 331.34946,486.3547 331.09693,485.51511 330.85925,484.77655 C 330.71432,484.32617 330.50351,484.21384 330.2655,484.27655 z M 332.54675,487.2453 C 325.88159,488.07844 324.2228,494.11012 319.6405,495.15155 C 315.0582,496.19297 311.79133,495.75171 311.74809,495.77655 L 311.73471,512.21033 C 311.73471,512.20502 315.03509,512.57718 317.32624,512.57718 C 317.32624,512.57718 318.452,528.16101 317.98776,534.24712 C 320.85708,534.24712 319.20247,534.20813 322.10573,534.20813 C 320.56615,528.91958 321.72407,511.18223 322.7655,508.6828 C 323.80693,506.18336 329.13469,495.36489 330.8905,495.5578 C 332.08271,495.68879 332.32285,507.2158 338.36315,503.46664 C 343.2802,500.41469 339.21192,486.41215 332.54675,487.2453 z "
           id="path14002" />
        <path
           sodipodi:type="arc"
           style="fill:url(#linearGradient3069);fill-opacity:1;fill-rule:nonzero;stroke:#7f7f7f;stroke-width:0.5;stroke-miterlimit:4;stroke-opacity:1"
           id="path14004"
           sodipodi:cx="112.78703"
           sodipodi:cy="65.226349"
           sodipodi:rx="1.7704335"
           sodipodi:ry="1.8745767"
           d="M 114.55747 65.226349 A 1.7704335 1.8745767 0 1 1  111.0166,65.226349 A 1.7704335 1.8745767 0 1 1  114.55747 65.226349 z"
           transform="translate(224.0253,429.1998)" />
        <path
           sodipodi:type="arc"
           style="fill:#7f7f7f;fill-opacity:1;fill-rule:nonzero;stroke:none;stroke-width:0.5;stroke-miterlimit:4;stroke-opacity:1"
           id="path14901"
           sodipodi:cx="105.80944"
           sodipodi:cy="86.888123"
           sodipodi:rx="0.4165726"
           sodipodi:ry="0.62485892"
           d="M 106.22601 86.888123 A 0.4165726 0.62485892 0 1 1  105.39287,86.888123 A 0.4165726 0.62485892 0 1 1  106.22601 86.888123 z"
           transform="matrix(1.800406,0,0,1.200271,146.666,390.5077)" />
        <path
           style="fill:#7f7f7f;fill-opacity:1;fill-rule:evenodd;stroke:none;stroke-width:1px;stroke-linecap:butt;stroke-linejoin:miter;stroke-opacity:1"
           d="M 334.29001,503.82491 C 334.76206,504.3388 335.2848,505.06752 335.2989,505.77165 C 335.14225,506.67713 334.19512,507.21643 334.05792,508.12906 C 333.85908,509.18258 334.66043,510.34776 335.77085,510.47259 C 336.14844,510.47662 336.4077,509.9265 336.09017,509.6854 C 335.78776,509.4472 335.29368,509.5147 335.08,509.15751 C 334.70121,508.62625 334.87075,507.86511 335.32624,507.43052 C 335.83144,506.78274 336.38292,506.05652 336.93308,505.21026 C 337.62534,504.18262 337.84425,503.84219 338.5877,502.96133 C 337.3886,503.61081 336.54174,504.13089 336.22516,504.06162 C 335.76099,504.00302 334.41744,503.83413 334.29001,503.82491 z "
           id="path6721"
           sodipodi:nodetypes="ccccccccccc" />
      </g>
      <path
         transform="matrix(0.638353,0,0,0.619578,111.1629,211.4953)"
         d="M 238.54002 466.09964 A 3.9163287 4.0350051 0 1 1  230.70736,466.09964 A 3.9163287 4.0350051 0 1 1  238.54002 466.09964 z"
         sodipodi:ry="4.0350051"
         sodipodi:rx="3.9163287"
         sodipodi:cy="466.09964"
         sodipodi:cx="234.62369"
         id="path2830"
         style="fill:#000000;fill-opacity:1;fill-rule:nonzero;stroke:none;stroke-width:2;stroke-miterlimit:4;stroke-opacity:1"
         sodipodi:type="arc" />
    </g>
    <g
       id="g3030"
       transform="translate(55.000005,-0.3431644)">
      <rect
         y="460.2312"
         x="200.30591"
         height="78.088425"
         width="38.088966"
         id="rect1933"
         style="fill:url(#linearGradient3065);fill-opacity:1;fill-rule:nonzero;stroke:#000000;stroke-width:1.91158605;stroke-miterlimit:4;stroke-opacity:1" />
      <path
         transform="matrix(0.638353,0,0,0.619578,56.16297,211.4953)"
         d="M 238.54002 466.09964 A 3.9163287 4.0350051 0 1 1  230.70736,466.09964 A 3.9163287 4.0350051 0 1 1  238.54002 466.09964 z"
         sodipodi:ry="4.0350051"
         sodipodi:rx="3.9163287"
         sodipodi:cy="466.09964"
         sodipodi:cx="234.62369"
         id="path2822"
         style="fill:#000000;fill-opacity:1;fill-rule:nonzero;stroke:none;stroke-width:2;stroke-miterlimit:4;stroke-opacity:1"
         sodipodi:type="arc" />
      <g
         id="g4293"
         transform="matrix(0.514469,0,0,0.514469,198.5465,459.8237)"
         style="fill:none;stroke:#7f7f7f;stroke-width:2.25;stroke-miterlimit:4;stroke-opacity:1">
        <g
           id="g2971">
          <g
             id="g2943">
            <path
               style="fill-rule:evenodd;stroke-linecap:butt;stroke-linejoin:miter"
               d="M 40.629089,128.07693 L 11.244604,128.07693"
               id="path2149" />
            <g
               id="g2921">
              <path
                 id="path1364"
                 style="fill-rule:evenodd;stroke-linecap:butt;stroke-linejoin:miter"
                 d="M 17.291229,107.60326 L 18.352042,104.68603 L 15.646972,102.80309 L 11.562847,102.72353 L 10.714198,106.75462 L 17.291229,107.60326 z M 27.899349,88.826894 L 20.473666,107.60326 L 17.291231,107.60326 L 25.565562,85.644458"
                 sodipodi:nodetypes="cccccccccc"
                 inkscape:tile-w="17.866907"
                 inkscape:tile-h="22.428396"
                 inkscape:tile-cx="19.147652"
                 inkscape:tile-cy="96.889062" />
              <path
                 style="fill-rule:evenodd;stroke-linecap:butt;stroke-linejoin:miter"
                 d="M 40.841252,85.962701 L 25.565562,85.962701 M 24.398669,88.932974 L 40.416927,88.932974 L 40.416927,91.160679 L 36.598005,91.160679 L 36.598005,93.176221 L 41.159495,93.176221"
                 id="path2145"
                 sodipodi:nodetypes="cccccccc" />
              <path
                 style="fill-rule:evenodd;stroke-linecap:butt;stroke-linejoin:miter"
                 d="M 40.841252,108.23974 L 17.18515,108.13367 L 10.82028,127.33436 L 10.82028,130.72896 L 11.716257,132.0971 L 41.053414,132.0971"
                 id="path2147"
                 sodipodi:nodetypes="cccccc" />
              <path
                 style="fill-rule:evenodd;stroke-linecap:butt;stroke-linejoin:miter"
                 d="M 41.053414,126.37963 L 35.537193,126.37963 L 35.537193,121.60598 L 41.265576,121.60598"
                 id="path2151" />
              <path
                 style="fill:#7f7f7f;fill-opacity:1;fill-rule:evenodd;stroke-linecap:butt;stroke-linejoin:miter"
                 d="M 21.640559,132.7445 L 21.640559,133.59315 L 19.518936,133.59315 L 19.518936,140.0641 L 18.801494,141.30674 L 13.366228,141.30674 L 12.426661,140.36718 L 12.426661,132.63842 L 21.640559,132.7445 z "
                 id="path2153" />
              <path
                 sodipodi:type="arc"
                 style="fill-opacity:1"
                 id="path2919"
                 sodipodi:cx="20.526707"
                 sodipodi:cy="124.31104"
                 sodipodi:rx="2.5989888"
                 sodipodi:ry="2.7050698"
                 d="M 23.125695 124.31104 A 2.5989888 2.7050698 0 1 1  17.927718,124.31104 A 2.5989888 2.7050698 0 1 1  23.125695 124.31104 z"
                 transform="translate(-1.060812,-0.742568)" />
            </g>
          </g>
          <g
             id="g2953"
             transform="matrix(-1,0,0,1,80.83386,1.517008e-2)">
            <path
               style="fill-rule:evenodd;stroke-linecap:butt;stroke-linejoin:miter"
               d="M 40.629089,128.07693 L 11.244604,128.07693"
               id="path2955" />
            <g
               id="g2957">
              <path
                 id="path2959"
                 style="fill-rule:evenodd;stroke-linecap:butt;stroke-linejoin:miter"
                 d="M 17.291229,107.60326 L 18.352042,104.68603 L 15.646972,102.80309 L 11.562847,102.72353 L 10.714198,106.75462 L 17.291229,107.60326 z M 27.793267,88.826894 L 20.473666,107.60326 L 17.291231,107.60326 L 25.565562,85.750539"
                 sodipodi:nodetypes="cccccccccc"
                 inkscape:tile-w="17.866907"
                 inkscape:tile-h="22.428396"
                 inkscape:tile-cx="19.147652"
                 inkscape:tile-cy="96.889062" />
              <path
                 style="fill-rule:evenodd;stroke-linecap:butt;stroke-linejoin:miter"
                 d="M 40.841252,85.962701 L 25.565562,85.962701 M 24.398669,88.932974 L 40.416927,88.932974 L 40.416927,91.160679 L 36.598005,91.160679 L 36.598005,93.176221 L 41.159495,93.176221"
                 id="path2961"
                 sodipodi:nodetypes="cccccccc" />
              <path
                 style="fill-rule:evenodd;stroke-linecap:butt;stroke-linejoin:miter"
                 d="M 40.841252,108.23974 L 17.18515,108.13367 L 10.82028,127.33436 L 10.82028,130.72896 L 11.716257,132.0971 L 41.053414,132.0971"
                 id="path2963"
                 sodipodi:nodetypes="cccccc" />
              <path
                 style="fill-rule:evenodd;stroke-linecap:butt;stroke-linejoin:miter"
                 d="M 41.053414,126.37963 L 35.537193,126.37963 L 35.537193,121.60598 L 41.265576,121.60598"
                 id="path2965" />
              <path
                 style="fill:#7f7f7f;fill-opacity:1;fill-rule:evenodd;stroke-linecap:butt;stroke-linejoin:miter"
                 d="M 21.640559,132.7445 L 21.640559,133.59315 L 19.518936,133.59315 L 19.518936,140.0641 L 18.801494,141.30674 L 13.366228,141.30674 L 12.426661,140.36718 L 12.426661,132.63842 L 21.640559,132.7445 z "
                 id="path2967" />
              <path
                 sodipodi:type="arc"
                 style="fill-opacity:1"
                 id="path2969"
                 sodipodi:cx="20.526707"
                 sodipodi:cy="124.31104"
                 sodipodi:rx="2.5989888"
                 sodipodi:ry="2.7050698"
                 d="M 23.125695 124.31104 A 2.5989888 2.7050698 0 1 1  17.927718,124.31104 A 2.5989888 2.7050698 0 1 1  23.125695 124.31104 z"
                 transform="translate(-1.060812,-0.742568)" />
            </g>
          </g>
        </g>
        <path
           sodipodi:type="arc"
           style="fill-opacity:1"
           id="path2993"
           sodipodi:cx="53.783154"
           sodipodi:cy="107.9215"
           sodipodi:rx="7.2135196"
           sodipodi:ry="7.2135196"
           d="M 47.543881,104.30123 A 7.2135196,7.2135196 0 0 1 59.984122,104.23601"
           transform="matrix(1.061887,0,0,1.061887,-6.086579,-2.700875)"
           sodipodi:start="3.6673551"
           sodipodi:end="5.7469368"
           sodipodi:open="true" />
      </g>
    </g>
    <g
       transform="matrix(0.999964,0,0,1,1.106743e-2,15.99998)"
       id="g1529">
      <path
         style="fill:none;fill-opacity:1;fill-rule:nonzero;stroke:#000000;stroke-width:1.91213751;stroke-miterlimit:4;stroke-opacity:1"
         d="M 310.30442,444.23179 L 310.30442,522.31968 L 348.39227,522.31968 L 348.39227,444.23179 L 310.30442,444.23179 z "
         id="path14935" />
      <path
         style="fill:url(#linearGradient1540);fill-opacity:1;fill-rule:nonzero;stroke:#000000;stroke-width:1.91151977;stroke-miterlimit:4;stroke-opacity:1"
         d="M 348.36629,444.23113 L 348.36629,522.32055 L 376.83504,538.31966 L 376.83504,448.23091 L 348.36629,444.23113 z "
         id="rect2852" />
      <path
         sodipodi:type="arc"
         style="fill:#000000;fill-opacity:1;fill-rule:nonzero;stroke:none;stroke-width:2;stroke-miterlimit:4;stroke-opacity:1"
         id="path7665"
         sodipodi:cx="234.62369"
         sodipodi:cy="466.09964"
         sodipodi:rx="3.9163287"
         sodipodi:ry="4.0350051"
         d="M 238.54002 466.09964 A 3.9163287 4.0350051 0 1 1  230.70736,466.09964 A 3.9163287 4.0350051 0 1 1  238.54002 466.09964 z"
         transform="matrix(0.419375,0,0,0.693927,273.4784,166.5459)" />
      <g
         id="g1504"
         transform="translate(-1.507365e-2,-13.25396)">
        <path
           sodipodi:nodetypes="csss"
           id="path1506"
           d="M 332.959,485.88635 C 334.20872,479.63776 324.83583,479.0129 324.83583,479.0129 C 324.83583,479.0129 338.42651,475.21168 337.33301,488.1775 C 337.10945,490.82833 332.19918,489.68546 332.959,485.88635 z "
           style="fill:#f6f6f6;fill-opacity:1;fill-rule:evenodd;stroke:#000000;stroke-width:1px;stroke-linecap:butt;stroke-linejoin:miter;stroke-opacity:1" />
        <path
           id="path1508"
           d="M 330.2655,484.18165 C 330.02749,484.24436 329.7724,484.48209 329.5155,484.68165 C 328.69629,485.31808 329.47247,485.87588 329.828,486.24415 C 330.40808,486.84501 330.04222,486.95576 331.203,486.7754 C 331.34946,486.25981 331.09693,485.42021 330.85925,484.68165 C 330.71432,484.23127 330.50351,484.11894 330.2655,484.18165 z M 332.54675,487.1504 C 325.88159,487.98354 324.2228,494.01522 319.6405,495.05665 C 315.0582,496.09808 310.8905,495.68165 310.8905,495.68165 L 311.11101,512.11544 C 311.11101,512.11544 315.03509,512.48228 317.32624,512.48228 C 317.32624,512.48228 318.452,529.15759 317.98776,535.24369 C 320.85708,535.24369 319.20247,535.24369 322.10573,535.24369 C 320.56615,529.95513 321.72407,511.08733 322.7655,508.5879 C 323.80693,506.08846 329.13469,495.26999 330.8905,495.4629 C 332.08271,495.59389 332.32285,507.1209 338.36315,503.37175 C 343.2802,500.31979 339.21192,486.31725 332.54675,487.1504 z "
           style="fill:url(#linearGradient1542);fill-opacity:1;fill-rule:evenodd;stroke:#000000;stroke-width:1px;stroke-linecap:butt;stroke-linejoin:miter;stroke-opacity:1"
           sodipodi:nodetypes="ccccccccccccccccc" />
        <path
           transform="translate(224.0253,429.1998)"
           d="M 114.55747 65.226349 A 1.7704335 1.8745767 0 1 1  111.0166,65.226349 A 1.7704335 1.8745767 0 1 1  114.55747 65.226349 z"
           sodipodi:ry="1.8745767"
           sodipodi:rx="1.7704335"
           sodipodi:cy="65.226349"
           sodipodi:cx="112.78703"
           id="path1510"
           style="fill:url(#linearGradient1544);fill-opacity:1;fill-rule:nonzero;stroke:#000000;stroke-width:0.5;stroke-miterlimit:4;stroke-opacity:1"
           sodipodi:type="arc" />
        <path
           transform="matrix(1.800406,0,0,1.200271,146.666,390.5077)"
           d="M 106.22601 86.888123 A 0.4165726 0.62485892 0 1 1  105.39287,86.888123 A 0.4165726 0.62485892 0 1 1  106.22601 86.888123 z"
           sodipodi:ry="0.62485892"
           sodipodi:rx="0.4165726"
           sodipodi:cy="86.888123"
           sodipodi:cx="105.80944"
           id="path1512"
           style="fill:#000000;fill-opacity:1;fill-rule:nonzero;stroke:none;stroke-width:0.5;stroke-miterlimit:4;stroke-opacity:1"
           sodipodi:type="arc" />
        <path
           sodipodi:nodetypes="ccccccccccc"
           id="path1514"
           d="M 334.29001,503.82491 C 334.76206,504.3388 335.2848,505.06752 335.2989,505.77165 C 335.14225,506.67713 334.19512,507.21643 334.05792,508.12906 C 333.85908,509.18258 334.66043,510.34776 335.77085,510.47259 C 336.14844,510.47662 336.4077,509.9265 336.09017,509.6854 C 335.78776,509.4472 335.29368,509.5147 335.08,509.15751 C 334.70121,508.62625 334.87075,507.86511 335.32624,507.43052 C 335.83144,506.78274 336.38292,506.05652 336.93308,505.21026 C 337.62534,504.18262 337.84425,503.84219 338.5877,502.96133 C 337.3886,503.61081 336.54174,504.13089 336.22516,504.06162 C 335.76099,504.00302 334.41744,503.83413 334.29001,503.82491 z "
           style="fill:#000000;fill-opacity:1;fill-rule:evenodd;stroke:none;stroke-width:1px;stroke-linecap:butt;stroke-linejoin:miter;stroke-opacity:1" />
      </g>
    </g>
    <g
       style="display:inline"
       transform="matrix(0.9494091,0,0,1,7.9616676,2.153097e-2)"
       id="g1481">
      <path
         sodipodi:nodetypes="cccccccccc"
         id="path1483"
         d="M 274.37407,553.06088 C 274.35387,553.03725 274.23345,552.89137 274.10644,552.73677 C 273.62976,552.15635 273.01355,551.57115 272.39667,551.1129 C 271.97314,550.79828 271.91427,550.76662 271.81353,550.79956 C 271.74284,550.82264 270.57771,550.23141 270.55459,550.16069 C 270.52171,550.06002 270.4614,550.03115 269.9574,549.8751 C 269.21042,549.64381 268.38367,549.4952 267.5999,549.45136 C 267.37938,549.43902 267.19578,549.41902 267.19181,549.4069 L 275.07729,542.78444 C 275.07729,542.78444 274.40049,553.09181 274.37407,553.06088 z "
         style="fill:#000000" />
      <path
         style="fill:none;fill-rule:evenodd;stroke:#000000;stroke-width:1.79999995;stroke-linecap:butt;stroke-linejoin:miter;stroke-miterlimit:4;stroke-opacity:1"
         d="M 234.78185,559.03478 C 247.04745,568.55002 264.51435,564.45791 271.868,549.49872"
         id="path1485"
         sodipodi:nodetypes="cc" />
    </g>
    <path
       style="font-size:28px;font-style:normal;font-variant:normal;font-weight:normal;font-stretch:normal;text-align:start;line-height:125%;writing-mode:lr-tb;text-anchor:start;fill:#000000;fill-opacity:1;stroke:none;stroke-width:1px;stroke-linecap:butt;stroke-linejoin:miter;stroke-opacity:1;display:inline;font-family:Luxi Serif"
       d="M 225.29368,552.72287 C 225.40568,552.44287 225.43368,552.27487 225.43368,552.13487 C 225.43368,551.21088 224.59368,550.39887 223.58568,550.39887 C 223.38968,550.39887 223.19368,550.45487 222.82968,550.56687 C 222.77368,549.58688 222.07368,548.91487 221.12168,548.91487 C 220.64568,548.91487 220.33768,548.99887 219.83368,549.33487 C 219.83368,548.43888 219.83368,547.68287 219.83368,547.03887 C 219.83368,544.93888 219.80568,544.04287 219.72168,543.56687 C 219.52568,542.25088 219.02168,541.63487 218.23768,541.63487 C 217.70568,541.63487 217.17368,541.97087 216.97768,542.44687 C 216.72568,543.00687 216.61368,543.84688 216.50168,545.41487 C 216.27768,549.16687 216.27768,549.25088 215.96968,551.15487 C 214.84968,552.07887 214.48568,552.61088 214.26168,553.64687 L 214.00968,554.76687 C 213.72968,555.94287 213.70168,556.02688 213.70168,556.64287 C 213.70168,557.37087 213.84168,558.18288 214.09368,558.82687 C 214.42968,559.69487 215.38168,561.26288 215.96968,561.96287 C 216.47368,562.55087 216.50168,562.63487 216.52968,563.02687 C 215.66168,563.89487 215.54968,564.11888 215.54968,564.84687 C 215.54968,564.98687 215.54968,564.98688 215.60568,565.88287 C 215.63368,566.38687 215.68968,566.52687 215.88568,566.75087 C 216.36168,567.28287 217.45368,567.50687 219.41368,567.50687 C 221.56968,567.50687 223.33368,567.19887 224.36968,566.61087 C 224.70568,566.41487 224.81768,566.10687 224.81768,565.29487 C 224.81768,563.95088 224.67768,563.53087 224.08968,562.94287 C 224.34168,562.29888 224.39768,562.15887 224.95768,561.26287 C 226.35768,558.93888 226.69368,558.09887 226.69368,556.95087 C 226.69368,556.69887 226.66568,556.25087 226.63768,555.63487 C 226.83368,554.96288 226.91768,554.57087 226.91768,554.26287 C 226.91768,553.45088 226.35768,552.69487 225.71368,552.69487 C 225.71368,552.69487 225.68568,552.69487 225.65768,552.69487 L 225.29368,552.72287 M 216.94968,549.61487 C 217.31368,546.53488 217.34168,544.65887 217.36968,543.98687 C 217.42568,542.97888 217.76168,542.41887 218.26568,542.41887 C 218.71368,542.41887 218.96568,543.11888 218.99368,544.29487 L 219.02168,546.33887 L 219.04968,548.43887 L 219.04968,549.67087 C 218.51768,549.67087 217.76168,549.92287 217.22968,550.34287 C 217.08968,550.39887 216.97768,550.48287 216.83768,550.56687 L 216.94968,549.61487 M 218.12568,553.39487 L 217.90168,553.78687 L 217.70568,554.34687 C 217.62168,554.54287 217.59368,554.57087 217.50968,554.90687 C 218.18168,555.43887 218.71368,556.05488 219.30168,556.97887 C 219.77768,557.70687 219.97368,558.46288 219.97368,559.61087 L 219.97368,559.77887 C 219.88968,560.56287 219.88968,560.56287 219.88968,560.61887 C 219.88968,560.84287 220.00168,560.98287 220.19768,560.98287 C 220.50568,560.98287 220.72968,560.50687 220.72968,559.86287 C 220.72968,559.33088 220.56168,558.18287 220.44968,557.73487 C 220.33768,557.37087 220.25368,557.20287 219.60968,555.99887 C 219.88968,555.94287 219.91768,555.91487 220.14168,555.80287 C 220.25368,556.69887 220.75768,557.23087 221.51368,557.23087 C 221.62568,557.23087 221.76568,557.20287 221.98968,557.14687 C 221.98968,557.98687 222.60568,558.54687 223.47368,558.54687 C 224.25768,558.54687 225.01368,558.01487 225.99368,556.78287 C 225.93768,557.84687 225.48968,558.91088 224.39768,560.67487 C 224.14568,561.06687 223.94968,561.48687 223.75368,561.87887 C 223.52968,562.35487 223.47368,562.43888 223.19368,562.94287 C 222.68968,563.30687 222.40968,563.41887 221.68168,563.53087 C 221.23368,563.61487 220.67368,563.67087 220.33768,563.67087 L 219.07768,563.64287 C 218.09768,563.61487 217.90168,563.55887 217.31368,563.30687 C 217.36968,563.19487 217.36968,563.13887 217.36968,563.05487 C 217.36968,562.63487 217.20168,562.27087 216.66968,561.59887 C 216.10968,560.84288 215.29768,559.55487 214.96168,558.77087 C 214.62568,558.04288 214.45768,557.37087 214.45768,556.67087 C 214.45768,556.25087 214.65368,555.24287 214.93368,554.26287 C 215.32568,552.83488 215.57768,552.44287 216.72568,551.63087 C 217.62168,550.98688 218.62968,550.45487 218.93768,550.45487 C 219.27368,550.45487 219.49768,550.79088 219.49768,551.29487 C 219.49768,552.05087 219.10568,552.69488 218.32168,553.22687 L 218.12568,553.39487 M 220.00168,550.20287 C 220.47768,549.81087 220.75768,549.67087 221.12168,549.67087 C 221.65368,549.67087 222.12968,550.14688 222.12968,550.70687 C 222.12968,550.95887 221.82168,551.96688 221.56968,552.49887 C 221.51368,552.63887 220.81368,553.95487 220.64568,554.20687 C 220.22568,554.90687 219.77768,555.27087 219.32968,555.27087 C 218.93768,555.27087 218.46168,554.79487 218.46168,554.37487 C 218.46168,554.15087 218.54568,554.03887 218.90968,553.78687 C 219.32968,553.47887 219.80568,552.94687 219.94568,552.61087 C 220.14168,552.19087 220.25368,551.65887 220.25368,551.21087 C 220.25368,550.87487 220.19768,550.65087 220.00168,550.20287 M 223.64168,551.21087 C 224.14568,551.21087 224.59368,551.65887 224.59368,552.13487 C 224.59368,552.58287 224.34168,553.19888 223.69768,554.31887 C 222.77368,555.91487 222.21368,556.50287 221.65368,556.50287 C 221.23368,556.50287 220.86968,556.11087 220.86968,555.66287 C 220.86968,555.35487 220.89768,555.27087 221.37368,554.48687 C 221.59768,554.12287 222.32568,552.66687 222.66168,551.91087 C 222.82968,551.57487 223.30568,551.21087 223.64168,551.21087 M 225.54568,553.45087 C 225.90968,553.45087 226.18968,553.84288 226.18968,554.37487 C 226.18968,555.01887 225.88168,555.69088 225.12568,556.58687 C 224.50968,557.34287 223.86568,557.79087 223.38968,557.79087 C 223.05368,557.79087 222.80168,557.48287 222.80168,557.09087 C 222.80168,556.89487 222.85768,556.81087 223.08168,556.58687 C 223.33368,556.33487 223.22168,556.47487 223.44568,556.16687 C 223.66968,555.85887 223.86568,555.55087 224.03368,555.27087 C 224.62168,554.26288 224.70568,554.12287 224.84568,553.95487 C 225.12568,553.61887 225.34968,553.45087 225.54568,553.45087 M 216.33368,564.65087 C 216.33368,564.31487 216.52968,564.00687 216.72568,564.00687 C 216.78168,564.00687 216.86568,564.03487 216.94968,564.06287 C 217.81768,564.37087 218.48968,564.45487 219.83368,564.45487 C 221.09368,564.45487 222.26968,564.28687 222.94168,564.00687 C 223.38968,563.81087 223.55768,563.75487 223.64168,563.75487 C 223.92168,563.75487 223.97768,564.06288 223.97768,565.43487 C 223.97768,565.88287 223.89368,566.02287 223.44568,566.19087 C 222.43768,566.58287 221.23368,566.77887 219.58168,566.77887 C 218.26568,566.77887 217.22968,566.66687 216.78168,566.49887 C 216.47368,566.35887 216.36168,566.19087 216.36168,565.71487 C 216.36168,565.65887 216.36168,565.60287 216.36168,565.54687 L 216.33368,565.01487 L 216.33368,564.65087"
       id="text2246" />
  </g>
</svg>
