<?xml version="1.0" encoding="UTF-8" standalone="no"?>
<!-- Created with Inkscape (http://www.inkscape.org/) -->

<svg
   xmlns:dc="http://purl.org/dc/elements/1.1/"
   xmlns:cc="http://creativecommons.org/ns#"
   xmlns:rdf="http://www.w3.org/1999/02/22-rdf-syntax-ns#"
   xmlns:svg="http://www.w3.org/2000/svg"
   xmlns="http://www.w3.org/2000/svg"
   xmlns:sodipodi="http://sodipodi.sourceforge.net/DTD/sodipodi-0.dtd"
   xmlns:inkscape="http://www.inkscape.org/namespaces/inkscape"
   id="svg4158"
   sodipodi:docname="GS-text.svg"
   viewBox="0 0 176.38717 215.87609"
   version="1.1"
   inkscape:version="0.92.5 (2060ec1f9f, 2020-04-08)"
   width="176.38716"
   height="215.87608">
  <defs
     id="defs4160" />
  <sodipodi:namedview
     id="base"
     bordercolor="#666666"
     inkscape:pageshadow="2"
     inkscape:window-y="27"
     fit-margin-left="0"
     pagecolor="#ffffff"
     fit-margin-top="0"
     inkscape:window-maximized="1"
     inkscape:zoom="2"
     inkscape:window-x="0"
     inkscape:window-height="2096"
     showgrid="false"
     borderopacity="1.0"
     inkscape:current-layer="g4904"
     inkscape:cx="352.68214"
     inkscape:cy="85.092528"
     fit-margin-right="0"
     fit-margin-bottom="0"
     inkscape:window-width="3840"
     inkscape:pageopacity="0.0"
     inkscape:document-units="px"
     showguides="false" />
  <g
     id="layer1"
     inkscape:label="Layer 1"
     inkscape:groupmode="layer"
     transform="translate(-323.02153,-460.81255)">
    <g
       id="g4842">
      <g
         id="g4904">
        <path
           id="rect4064"
           style="fill:#ffffff"
           inkscape:connector-curvature="0"
           d="m 323.58,493.13 h 175.4 c 0.2375,0 0.42869,0.0116 0.42869,0.026 v 148.61 c 0,0.0144 -0.19119,0.026 -0.42869,0.026 h -175.4 c -0.23749,0 -0.42869,-0.0116 -0.42869,-0.026 v -148.61 c 0,-0.0144 0.1912,-0.026 0.42869,-0.026 z" />
        <path
           id="rect4066"
           style="fill:#666666"
           inkscape:connector-curvature="0"
           d="m 323.58,461.02 h 175.4 c 0.2375,0 0.42869,0.003 0.42869,0.006 v 34.724 c 0,0.004 -0.19119,0.006 -0.42869,0.006 h -175.4 c -0.23749,0 -0.42869,-0.003 -0.42869,-0.006 v -34.724 c 0,-0.004 0.1912,-0.006 0.42869,-0.006 z" />
        <path
           id="rect4088"
           style="fill:#666666"
           inkscape:connector-curvature="0"
           d="m 323.27,641.8 h 175.4 c 0.23749,0 0.42869,0.003 0.42869,0.006 v 34.724 c 0,0.004 -0.1912,0.005 -0.42869,0.006 -58.48317,-0.57742 -175.45949,-0.0364 -175.45949,-0.0364 z"
           sodipodi:nodetypes="csssccc" />
        <path
           id="rect4142"
           style="fill:#666666"
           inkscape:connector-curvature="0"
           d="m 414.82,514.82 h 70.207 c 0.10603,0 0.19139,0.004 0.19139,0.009 v 11.17 c 0,0.005 -0.0854,0.009 -0.19139,0.009 H 414.82 c -0.10602,0 -0.19138,-0.004 -0.19138,-0.009 v -11.17 c 0,-0.005 0.0854,-0.009 0.19138,-0.009 z" />
        <path
           id="path3187"
           style="fill:#666666"
           inkscape:connector-curvature="0"
           d="m 414.82,534.87 h 70.207 c 0.10603,0 0.19139,0.004 0.19139,0.009 v 11.17 c 0,0.005 -0.0854,0.009 -0.19139,0.009 H 414.82 c -0.10602,0 -0.19138,-0.004 -0.19138,-0.009 v -11.17 c 0,-0.005 0.0854,-0.009 0.19138,-0.009 z" />
        <path
           id="path4300"
           style="fill:#666666"
           inkscape:connector-curvature="0"
           d="m 414.82,552.42 h 70.207 c 0.10603,0 0.19139,0.004 0.19139,0.009 v 11.17 c 0,0.005 -0.0854,0.009 -0.19139,0.009 H 414.82 c -0.10602,0 -0.19138,-0.004 -0.19138,-0.009 v -11.17 c 0,-0.005 0.0854,-0.009 0.19138,-0.009 z" />
        <path
           id="path4302"
           style="fill:#666666"
           inkscape:connector-curvature="0"
           d="m 414.82,572.47 h 70.207 c 0.10603,0 0.19139,0.004 0.19139,0.009 v 11.17 c 0,0.005 -0.0854,0.009 -0.19139,0.009 H 414.82 c -0.10602,0 -0.19138,-0.004 -0.19138,-0.009 v -11.17 c 0,-0.005 0.0854,-0.009 0.19138,-0.009 z" />
        <path
           id="path4304"
           style="fill:#666666"
           inkscape:connector-curvature="0"
           d="m 414.82,590.67 h 70.207 c 0.10603,0 0.19139,0.004 0.19139,0.009 v 11.17 c 0,0.005 -0.0854,0.009 -0.19139,0.009 H 414.82 c -0.10602,0 -0.19138,-0.004 -0.19138,-0.009 v -11.17 c 0,-0.005 0.0854,-0.009 0.19138,-0.009 z" />
        <path
           id="path4306"
           style="fill:#666666"
           inkscape:connector-curvature="0"
           d="m 343.7,610.72 h 141.13 c 0.21314,0 0.38474,0.004 0.38474,0.009 v 11.17 c 0,0.005 -0.17168,0.009 -0.38474,0.009 H 343.7 c -0.21313,0 -0.38473,-0.004 -0.38473,-0.009 v -11.17 c 0,-0.005 0.17168,-0.009 0.38473,-0.009 z" />
        <path
           id="rect4308"
           style="fill:none;stroke:#ffffff;stroke-width:0.86031002"
           inkscape:connector-curvature="0"
           d="m 331.18,465.79 h 25.491 c 0.30196,0 0.54505,8.8e-4 0.54505,0.002 v 24.947 c 0,0.001 -0.24309,0.002 -0.54505,0.002 H 331.18 c -0.30196,0 -0.54505,-8.9e-4 -0.54505,-0.002 v -24.947 c 0,-10e-4 0.24309,-0.002 0.54505,-0.002 z" />
        <path
           id="path4892"
           style="fill:#ffffff"
           inkscape:connector-curvature="0"
           d="m 338.66,471.8 0.36899,0.96861 h -0.50077 c -0.11861,0 -0.17791,0.0461 -0.17791,0.13178 0,0.0923 0.0593,0.13838 0.17791,0.13838 h 1.0279 c 0.1186,0 0.1779,-0.0461 0.1779,-0.13838 0,-0.0856 -0.0593,-0.13178 -0.1779,-0.13178 h -0.2438 l -1.2981,-3.4396 h -1.3442 c -0.1186,0 -0.17791,0.0461 -0.17791,0.13179 0,0.0922 0.0593,0.13837 0.17791,0.13837 h 0.7907 l -1.1795,3.1694 h -0.20426 c -0.11861,0 -0.17791,0.0461 -0.17791,0.13178 0,0.0923 0.0593,0.13838 0.17791,0.13838 h 0.99496 c 0.1186,0 0.17791,-0.0461 0.17791,-0.13838 0,-0.0856 -0.0593,-0.13178 -0.17791,-0.13178 h -0.52054 l 0.35581,-0.96861 h 1.7527 m -0.0988,-0.27015 h -1.5484 l 0.71163,-1.9306 h 0.0988 l 0.73799,1.9306" />
        <path
           id="path4828"
           style="fill:none;stroke:#ffffff;stroke-width:0.85131001;stroke-dasharray:1.70262969, 0.85131484"
           inkscape:connector-curvature="0"
           d="m 340.06,471.36 12.175,-0.32939" />
        <path
           id="path4830"
           d="m 335.42,474.98 16.799,-0.32939"
           style="fill:none;stroke:#ffffff;stroke-dasharray:2, 1"
           inkscape:connector-curvature="0" />
        <path
           id="path4832"
           style="fill:none;stroke:#ffffff;stroke-dasharray:2, 1"
           inkscape:connector-curvature="0"
           d="m 335.42,478.43 16.799,-0.32939" />
        <path
           id="path4834"
           d="m 335.42,482.39 16.799,-0.32939"
           style="fill:none;stroke:#ffffff;stroke-dasharray:2, 1"
           inkscape:connector-curvature="0" />
        <path
           id="path4836"
           style="fill:none;stroke:#ffffff;stroke-width:0.74317002;stroke-dasharray:1.48634451, 0.74317225"
           inkscape:connector-curvature="0"
           d="m 335.42,486.35 9.2783,-0.32939" />
        <g
           id="text4838"
           style="fill:#ffffff">
          <path
             id="path4895"
             style="fill:#ffffff"
             inkscape:connector-curvature="0"
             d="m 346.49,486.12 h 0.11185 c 0.061,0 0.0915,-0.0237 0.0915,-0.0712 0,-0.0373 -0.0237,-0.061 -0.0644,-0.0678 v -0.9389 c 0,-0.31184 -0.23049,-0.54571 -0.53894,-0.54571 -0.38301,0 -0.66095,0.37623 -0.66095,0.89144 v 0.55249 c 0,0.24066 0.061,0.45081 0.18303,0.62706 0.12202,0.17287 0.27116,0.25422 0.47453,0.25422 0.25083,0 0.50843,-0.10847 0.50843,-0.21354 0,-0.0339 -0.0305,-0.0644 -0.0678,-0.0644 -0.0237,0 -0.0271,0.003 -0.0644,0.0373 -0.0712,0.061 -0.21015,0.10169 -0.3559,0.10169 -0.16948,0 -0.28811,-0.061 -0.37963,-0.19321 -0.10168,-0.15252 -0.1593,-0.34573 -0.1593,-0.5491 v -0.54232 c 0,-0.44742 0.21693,-0.76264 0.52537,-0.76264 0.23049,0 0.39658,0.16947 0.39658,0.40674 v 0.15931 c -0.34573,-0.003 -0.59656,0.20337 -0.59656,0.48809 0,0.24065 0.19659,0.42369 0.46098,0.42369 0.0339,0 0.0678,-0.003 0.13558,-0.0102 v 0.017 m 0,-0.15931 c -0.0407,0.0102 -0.0881,0.0136 -0.12542,0.0136 -0.19659,0 -0.33217,-0.11864 -0.33217,-0.28811 0,-0.20337 0.1932,-0.34912 0.45759,-0.34912 v 0.62367" />
          <path
             id="path4897"
             style="fill:#ffffff"
             inkscape:connector-curvature="0"
             d="m 348.05,484.66 c -0.28472,0.0339 -0.48809,0.23388 -0.48809,0.47793 0,0.1288 0.061,0.25082 0.15931,0.31861 0.0881,0.0542 0.18642,0.0881 0.40335,0.1288 0.2271,0.0441 0.28133,0.061 0.35929,0.10508 0.0813,0.0508 0.1288,0.13897 0.1288,0.24065 0,0.21354 -0.21015,0.36607 -0.49826,0.36607 -0.25082,0 -0.47792,-0.12541 -0.49148,-0.27116 -0.007,-0.061 -0.0237,-0.0847 -0.0678,-0.0847 -0.0475,0 -0.0712,0.0305 -0.0712,0.0915 v 0.26777 c 0,0.061 0.0237,0.0915 0.0712,0.0915 0.0441,0 0.0678,-0.0305 0.0678,-0.0915 v -0.0542 c 0.0881,0.0983 0.27116,0.17625 0.42708,0.18303 v 0.40335 c 0,0.061 0.0237,0.0915 0.0712,0.0915 0.0441,0 0.0678,-0.0305 0.0678,-0.0915 v -0.40335 c 0.34573,-0.0373 0.56266,-0.23049 0.56266,-0.49826 0,-0.14575 -0.061,-0.26777 -0.16609,-0.33895 -0.0949,-0.0644 -0.18303,-0.0915 -0.42708,-0.13897 -0.19998,-0.0373 -0.27116,-0.0576 -0.33895,-0.0983 -0.0712,-0.0441 -0.11863,-0.12541 -0.11863,-0.21353 0,-0.19321 0.18981,-0.35251 0.42369,-0.35251 0.20676,0 0.39996,0.10507 0.41691,0.22709 0.007,0.0542 0.0271,0.0746 0.0712,0.0746 0.0441,0 0.0678,-0.0305 0.0678,-0.0915 v -0.20338 c 0,-0.061 -0.0203,-0.0915 -0.0678,-0.0915 -0.0441,0 -0.0678,0.0339 -0.0712,0.0983 -0.12202,-0.0949 -0.19998,-0.1288 -0.35251,-0.14236 v -0.17625 c 0,-0.061 -0.0237,-0.0915 -0.0678,-0.0915 -0.0474,0 -0.0712,0.0305 -0.0712,0.0915 v 0.17625" />
          <path
             id="path4899"
             style="fill:#ffffff"
             inkscape:connector-curvature="0"
             d="m 350.15,484.53 -0.60334,0.75586 c -0.0237,0.0271 -0.0305,0.0407 -0.0305,0.061 0,0.0373 0.0305,0.0678 0.0678,0.0678 0.0271,0 0.0441,-0.0102 0.0678,-0.0441 l 0.49826,-0.62706 0.49826,0.62706 c 0.0237,0.0339 0.0407,0.0441 0.0678,0.0441 0.0373,0 0.0678,-0.0305 0.0678,-0.0678 0,-0.017 -0.0102,-0.0373 -0.0305,-0.061 L 350.15005,484.53" />
          <path
             id="path4901"
             style="fill:#ffffff"
             inkscape:connector-curvature="0"
             d="m 352.77,485.2 h -1.1863 v 0.32539 c 0,0.061 0.0237,0.0915 0.0712,0.0915 0.0441,0 0.0678,-0.0305 0.0678,-0.0915 v -0.18642 h 0.85077 l -1.0202,1.1524 v 0.12203 h 1.2677 v -0.32879 c 0,-0.061 -0.0237,-0.0915 -0.0678,-0.0915 -0.0474,0 -0.0712,0.0305 -0.0712,0.0915 v 0.18982 h -0.93889 l 1.027,-1.1524 v -0.12202" />
        </g>
        <rect
           style="opacity:1;fill:none;fill-opacity:1;stroke:#000000;stroke-width:0.37795275;stroke-miterlimit:4;stroke-dasharray:none;stroke-dashoffset:0;stroke-opacity:1"
           id="rect870"
           width="175.78743"
           height="215.49812"
           x="323.21051"
           y="461.00153" />
        <text
           xml:space="preserve"
           style="font-style:normal;font-weight:normal;font-size:16px;line-height:1.25;font-family:sans-serif;letter-spacing:0px;word-spacing:0px;writing-mode:lr-tb;fill:#646464;fill-opacity:1;stroke:none"
           x="331.34998"
           y="592.84998"
           id="text876"><tspan
             sodipodi:role="line"
             id="tspan874"
             x="331.34998"
             y="592.84998"
             style="font-size:96px">#</tspan></text>
        <text
           xml:space="preserve"
           style="font-style:normal;font-weight:normal;font-size:16px;line-height:1.25;font-family:sans-serif;letter-spacing:0px;word-spacing:0px;writing-mode:lr-tb;fill:#ffffff;fill-opacity:1;stroke:none"
           x="368.60001"
           y="489.85001"
           id="text880"><tspan
             sodipodi:role="line"
             id="tspan878"
             x="368.60001"
             y="489.85001"
             style="font-size:32px;fill:#ffffff">Robot</tspan></text>
        <text
           xml:space="preserve"
           style="font-style:normal;font-weight:normal;font-size:16px;line-height:1.25;font-family:sans-serif;letter-spacing:0px;word-spacing:0px;writing-mode:lr-tb;fill:#ffffff;fill-opacity:1;stroke:none"
           x="328.60001"
           y="664.34998"
           id="text884"><tspan
             sodipodi:role="line"
             id="tspan882"
             x="328.60001"
             y="664.34998">Code, CAD, ODEs, ...</tspan></text>
      </g>
    </g>
  </g>
  <metadata
     id="metadata47">
    <rdf:RDF>
      <cc:Work>
        <dc:format>image/svg+xml</dc:format>
        <dc:type
           rdf:resource="http://purl.org/dc/dcmitype/StillImage" />
        <cc:license
           rdf:resource="http://creativecommons.org/publicdomain/zero/1.0/" />
        <dc:publisher>
          <cc:Agent
             rdf:about="http://openclipart.org/">
            <dc:title>Openclipart</dc:title>
          </cc:Agent>
        </dc:publisher>
        <dc:title>Text file icon</dc:title>
        <dc:date>2011-04-04T09:54:06</dc:date>
        <dc:description>Text file icon</dc:description>
        <dc:source>https://openclipart.org/detail/130963/text-file-icon-by-gsagri04</dc:source>
        <dc:creator>
          <cc:Agent>
            <dc:title>gsagri04</dc:title>
          </cc:Agent>
        </dc:creator>
        <dc:subject>
          <rdf:Bag>
            <rdf:li>Txt</rdf:li>
            <rdf:li>code</rdf:li>
            <rdf:li>file</rdf:li>
            <rdf:li>icon</rdf:li>
            <rdf:li>office</rdf:li>
            <rdf:li>text</rdf:li>
          </rdf:Bag>
        </dc:subject>
      </cc:Work>
      <cc:License
         rdf:about="http://creativecommons.org/publicdomain/zero/1.0/">
        <cc:permits
           rdf:resource="http://creativecommons.org/ns#Reproduction" />
        <cc:permits
           rdf:resource="http://creativecommons.org/ns#Distribution" />
        <cc:permits
           rdf:resource="http://creativecommons.org/ns#DerivativeWorks" />
      </cc:License>
    </rdf:RDF>
  </metadata>
</svg>
