<?xml version="1.0" encoding="UTF-8" standalone="no"?>
<svg
   xmlns:dc="http://purl.org/dc/elements/1.1/"
   xmlns:cc="http://creativecommons.org/ns#"
   xmlns:rdf="http://www.w3.org/1999/02/22-rdf-syntax-ns#"
   xmlns:svg="http://www.w3.org/2000/svg"
   xmlns="http://www.w3.org/2000/svg"
   xmlns:sodipodi="http://sodipodi.sourceforge.net/DTD/sodipodi-0.dtd"
   xmlns:inkscape="http://www.inkscape.org/namespaces/inkscape"
   width="258pt"
   height="162.79883pt"
   viewBox="0 0 258 162.79883"
   version="1.2"
   id="svg1511"
   sodipodi:docname="arm-stp2.svg"
   inkscape:version="0.92.4 (5da689c313, 2019-01-14)">
  <metadata
     id="metadata1517">
    <rdf:RDF>
      <cc:Work
         rdf:about="">
        <dc:format>image/svg+xml</dc:format>
        <dc:type
           rdf:resource="http://purl.org/dc/dcmitype/StillImage" />
        <dc:title></dc:title>
      </cc:Work>
    </rdf:RDF>
  </metadata>
  <defs
     id="defs1515" />
  <sodipodi:namedview
     pagecolor="#ffffff"
     bordercolor="#666666"
     borderopacity="1"
     objecttolerance="10"
     gridtolerance="10"
     guidetolerance="10"
     inkscape:pageopacity="0"
     inkscape:pageshadow="2"
     inkscape:window-width="1349"
     inkscape:window-height="839"
     id="namedview1513"
     showgrid="false"
     inkscape:zoom="0.43749763"
     inkscape:cx="106.12486"
     inkscape:cy="-150.85312"
     inkscape:window-x="199"
     inkscape:window-y="1032"
     inkscape:window-maximized="0"
     inkscape:current-layer="surface6424"
     fit-margin-top="0"
     fit-margin-left="0"
     fit-margin-right="0"
     fit-margin-bottom="0" />
  <g
     id="surface6424"
     transform="translate(-432,-0.7011715)">
    <path
       style="fill:none;stroke:#ff0000;stroke-width:20;stroke-linecap:butt;stroke-linejoin:round;stroke-miterlimit:10;stroke-opacity:1"
       d="m 6250,975 h 640 v 160 h -640 z m 0,0"
       transform="matrix(0.1,0,0,-0.1,0,260)"
       id="path1468"
       inkscape:connector-curvature="0" />
    <path
       style="fill:#ffa300;fill-opacity:1;fill-rule:evenodd;stroke:#ff0000"
       d="m 658.80078,130.5 c 0,-2.39844 -3.60156,-2.39844 -3.60156,0 0,2.39844 3.60156,2.39844 3.60156,0 z m 0,0"
       id="path1470"
       inkscape:connector-curvature="0" />
    <path
       style="fill:none;stroke:#ff0000;stroke-width:20;stroke-linecap:butt;stroke-linejoin:round;stroke-miterlimit:10;stroke-opacity:1"
       d="m 6650,1295 c 0,44.1797 -35.8203,80 -80,80 -44.1797,0 -80,-35.8203 -80,-80 0,-44.1797 35.8203,-80 80,-80 44.1797,0 80,35.8203 80,80 z m 0,0"
       transform="matrix(0.1,0,0,-0.1,0,260)"
       id="path1472"
       inkscape:connector-curvature="0" />
    <path
       style="fill:#ffffff;fill-opacity:1;fill-rule:evenodd;stroke:none"
       d="m 562.80078,2.5 c 0,-2.398438 -3.60156,-2.398438 -3.60156,0 0,2.398438 3.60156,2.398438 3.60156,0 z m 0,0"
       id="path1474"
       inkscape:connector-curvature="0" />
    <path
       style="fill:none;stroke:#ff0000;stroke-width:20;stroke-linecap:butt;stroke-linejoin:round;stroke-miterlimit:10;stroke-opacity:1"
       d="m 6250,1135 c 0,176.7188 143.2812,320 320,320 176.7187,0 320,-143.2812 320,-320"
       transform="matrix(0.1,0,0,-0.1,0,260)"
       id="path1482"
       inkscape:connector-curvature="0" />
    <path
       style="fill:none;stroke:#ff0000;stroke-width:20;stroke-linecap:butt;stroke-linejoin:round;stroke-miterlimit:10;stroke-opacity:1"
       d="m 4490,1454.4531 c 0,44.2188 -35.8203,80 -80,80 -44.1797,0 -80,-35.7812 -80,-80 0,-44.1797 35.8203,-80 80,-80 44.1797,0 80,35.8203 80,80 z m 0,0"
       transform="matrix(0.1,0,0,-0.1,0,260)"
       id="path1492"
       inkscape:connector-curvature="0" />
    <path
       style="fill:none;stroke:#ff0000;stroke-width:20;stroke-linecap:butt;stroke-linejoin:round;stroke-miterlimit:10;stroke-opacity:1"
       d="m 5690,1775 c 0,44.1797 -35.8203,80 -80,80 -44.1797,0 -80,-35.8203 -80,-80 0,-44.1797 35.8203,-80 80,-80 44.1797,0 80,35.8203 80,80 z m 0,0"
       transform="matrix(0.1,0,0,-0.1,0,260)"
       id="path1496"
       inkscape:connector-curvature="0" />
    <path
       style="fill:#ffa300;fill-opacity:1;fill-rule:evenodd;stroke:#ff0000"
       d="m 562.80078,82.5 c 0,-2.398438 -3.60156,-2.398438 -3.60156,0 0,2.398438 3.60156,2.398438 3.60156,0 z m 0,0"
       id="path1498"
       inkscape:connector-curvature="0" />
    <path
       style="fill:none;stroke:#ff0000;stroke-width:20;stroke-linecap:butt;stroke-linejoin:round;stroke-miterlimit:10;stroke-opacity:1"
       d="M 6528.0469,1226.875 5579.375,1701.0938"
       transform="matrix(0.1,0,0,-0.1,0,260)"
       id="path1500"
       inkscape:connector-curvature="0" />
    <path
       style="fill:none;stroke:#ff0000;stroke-width:20;stroke-linecap:butt;stroke-linejoin:round;stroke-miterlimit:10;stroke-opacity:1"
       d="m 6608.75,1365 -950.8594,474.1016"
       transform="matrix(0.1,0,0,-0.1,0,260)"
       id="path1502"
       inkscape:connector-curvature="0" />
    <path
       style="fill:none;stroke:#ff0000;stroke-width:20;stroke-linecap:butt;stroke-linejoin:round;stroke-miterlimit:10;stroke-opacity:1"
       d="M 4384.6094,1530.3516 5587.5,1851.7578"
       transform="matrix(0.1,0,0,-0.1,0,260)"
       id="path1504"
       inkscape:connector-curvature="0" />
    <path
       style="fill:none;stroke:#ff0000;stroke-width:20;stroke-linecap:butt;stroke-linejoin:round;stroke-miterlimit:10;stroke-opacity:1"
       d="m 4431.5625,1377.4219 1188.0859,303.5547"
       transform="matrix(0.1,0,0,-0.1,0,260)"
       id="path1506"
       inkscape:connector-curvature="0" />
  </g>
</svg>
