<?xml version="1.0" encoding="UTF-8" standalone="no"?>
<svg
   xmlns:dc="http://purl.org/dc/elements/1.1/"
   xmlns:cc="http://creativecommons.org/ns#"
   xmlns:rdf="http://www.w3.org/1999/02/22-rdf-syntax-ns#"
   xmlns:svg="http://www.w3.org/2000/svg"
   xmlns="http://www.w3.org/2000/svg"
   xmlns:sodipodi="http://sodipodi.sourceforge.net/DTD/sodipodi-0.dtd"
   xmlns:inkscape="http://www.inkscape.org/namespaces/inkscape"
   width="154pt"
   height="105.94531pt"
   viewBox="0 0 154 105.94531"
   version="1.2"
   id="svg911"
   sodipodi:docname="arm-stp1.svg"
   inkscape:version="0.92.4 (5da689c313, 2019-01-14)">
  <metadata
     id="metadata917">
    <rdf:RDF>
      <cc:Work
         rdf:about="">
        <dc:format>image/svg+xml</dc:format>
        <dc:type
           rdf:resource="http://purl.org/dc/dcmitype/StillImage" />
        <dc:title></dc:title>
      </cc:Work>
    </rdf:RDF>
  </metadata>
  <defs
     id="defs915" />
  <sodipodi:namedview
     pagecolor="#ffffff"
     bordercolor="#666666"
     borderopacity="1"
     objecttolerance="10"
     gridtolerance="10"
     guidetolerance="10"
     inkscape:pageopacity="0"
     inkscape:pageshadow="2"
     inkscape:window-width="1362"
     inkscape:window-height="872"
     id="namedview913"
     showgrid="false"
     inkscape:zoom="0.43749764"
     inkscape:cx="6.6895977"
     inkscape:cy="-207.98534"
     inkscape:window-x="2294"
     inkscape:window-y="734"
     inkscape:window-maximized="0"
     inkscape:current-layer="surface3598"
     fit-margin-top="0"
     fit-margin-left="0"
     fit-margin-right="0"
     fit-margin-bottom="0" />
  <g
     id="surface3598"
     transform="translate(-624,-57.55469)">
    <path
       style="fill:none;stroke:#ff0000;stroke-width:20;stroke-linecap:butt;stroke-linejoin:round;stroke-miterlimit:10;stroke-opacity:1"
       d="m 6250,975 h 640 v 160 h -640 z m 0,0"
       transform="matrix(0.1,0,0,-0.1,0,260)"
       id="path868"
       inkscape:connector-curvature="0" />
    <path
       style="fill:#ffa300;fill-opacity:1;fill-rule:evenodd;stroke:#ff0000"
       d="m 658.80078,130.5 c 0,-2.39844 -3.60156,-2.39844 -3.60156,0 0,2.39844 3.60156,2.39844 3.60156,0 z m 0,0"
       id="path870"
       inkscape:connector-curvature="0" />
    <path
       style="fill:none;stroke:#ff0000;stroke-width:20;stroke-linecap:butt;stroke-linejoin:round;stroke-miterlimit:10;stroke-opacity:1"
       d="m 6650,1295 c 0,44.1797 -35.8203,80 -80,80 -44.1797,0 -80,-35.8203 -80,-80 0,-44.1797 35.8203,-80 80,-80 44.1797,0 80,35.8203 80,80 z m 0,0"
       transform="matrix(0.1,0,0,-0.1,0,260)"
       id="path872"
       inkscape:connector-curvature="0" />
    <path
       style="fill:none;stroke:#ff0000;stroke-width:20;stroke-linecap:butt;stroke-linejoin:round;stroke-miterlimit:10;stroke-opacity:1"
       d="m 6650,1934.4531 c 0,44.2188 -35.8203,80 -80,80 -44.1797,0 -80,-35.7812 -80,-80 0,-44.1797 35.8203,-80 80,-80 44.1797,0 80,35.8203 80,80 z m 0,0"
       transform="matrix(0.1,0,0,-0.1,0,260)"
       id="path882"
       inkscape:connector-curvature="0" />
    <path
       style="fill:#ffa300;fill-opacity:1;fill-rule:evenodd;stroke:#ff0000"
       d="m 658.80078,66.554688 c 0,-2.402344 -3.60156,-2.402344 -3.60156,0 0,2.398437 3.60156,2.398437 3.60156,0 z m 0,0"
       id="path884"
       inkscape:connector-curvature="0" />
    <path
       style="fill:none;stroke:#ff0000;stroke-width:20;stroke-linecap:butt;stroke-linejoin:round;stroke-miterlimit:10;stroke-opacity:1"
       d="m 7770,1454.4531 c 0,44.2188 -35.8203,80 -80,80 -44.1797,0 -80,-35.7812 -80,-80 0,-44.1797 35.8203,-80 80,-80 44.1797,0 80,35.8203 80,80 z m 0,0"
       transform="matrix(0.1,0,0,-0.1,0,260)"
       id="path886"
       inkscape:connector-curvature="0" />
    <path
       style="fill:#ffa300;fill-opacity:1;fill-rule:evenodd;stroke:#ff0000"
       d="m 770.80078,114.55469 c 0,-2.40235 -3.60156,-2.40235 -3.60156,0 0,2.39844 3.60156,2.39844 3.60156,0 z m 0,0"
       id="path888"
       inkscape:connector-curvature="0" />
    <path
       style="fill:none;stroke:#ff0000;stroke-width:20;stroke-linecap:butt;stroke-linejoin:round;stroke-miterlimit:10;stroke-opacity:1"
       d="M 7669.2969,1531.7578 6757.7344,1402.1875"
       transform="matrix(0.1,0,0,-0.1,0,260)"
       id="path890"
       inkscape:connector-curvature="0" />
    <path
       style="fill:none;stroke:#ff0000;stroke-width:20;stroke-linecap:butt;stroke-linejoin:round;stroke-miterlimit:10;stroke-opacity:1"
       d="M 7693.3984,1374.5313 6866.0156,1256.5234"
       transform="matrix(0.1,0,0,-0.1,0,260)"
       id="path892"
       inkscape:connector-curvature="0" />
    <path
       style="fill:none;stroke:#ff0000;stroke-width:20;stroke-linecap:butt;stroke-linejoin:round;stroke-miterlimit:10;stroke-opacity:1"
       d="m 6250,1135 c 0,176.7188 143.2812,320 320,320 176.7187,0 320,-143.2812 320,-320"
       transform="matrix(0.1,0,0,-0.1,0,260)"
       id="path894"
       inkscape:connector-curvature="0" />
    <path
       style="fill:none;stroke:#ff0000;stroke-width:20;stroke-linecap:butt;stroke-linejoin:round;stroke-miterlimit:10;stroke-opacity:1"
       d="m 7730.3125,1523.5547 -1121.25,480.7422"
       transform="matrix(0.1,0,0,-0.1,0,260)"
       id="path902"
       inkscape:connector-curvature="0" />
    <path
       style="fill:none;stroke:#ff0000;stroke-width:20;stroke-linecap:butt;stroke-linejoin:round;stroke-miterlimit:10;stroke-opacity:1"
       d="m 6537.8906,1861.2109 844.0625,-370.3125"
       transform="matrix(0.1,0,0,-0.1,0,260)"
       id="path904"
       inkscape:connector-curvature="0" />
  </g>
</svg>
