<?xml version="1.0" encoding="UTF-8" standalone="no"?>
<svg
   xmlns:dc="http://purl.org/dc/elements/1.1/"
   xmlns:cc="http://creativecommons.org/ns#"
   xmlns:rdf="http://www.w3.org/1999/02/22-rdf-syntax-ns#"
   xmlns:svg="http://www.w3.org/2000/svg"
   xmlns="http://www.w3.org/2000/svg"
   xmlns:sodipodi="http://sodipodi.sourceforge.net/DTD/sodipodi-0.dtd"
   xmlns:inkscape="http://www.inkscape.org/namespaces/inkscape"
   width="154pt"
   height="105.94531pt"
   viewBox="0 0 154 105.94531"
   version="1.2"
   id="svg49"
   sodipodi:docname="arm-stp0.svg"
   inkscape:version="0.92.4 (5da689c313, 2019-01-14)">
  <metadata
     id="metadata55">
    <rdf:RDF>
      <cc:Work
         rdf:about="">
        <dc:format>image/svg+xml</dc:format>
        <dc:type
           rdf:resource="http://purl.org/dc/dcmitype/StillImage" />
        <dc:title></dc:title>
      </cc:Work>
    </rdf:RDF>
  </metadata>
  <defs
     id="defs53" />
  <sodipodi:namedview
     pagecolor="#ffffff"
     bordercolor="#666666"
     borderopacity="1"
     objecttolerance="10"
     gridtolerance="10"
     guidetolerance="10"
     inkscape:pageopacity="0"
     inkscape:pageshadow="2"
     inkscape:window-width="1646"
     inkscape:window-height="1005"
     id="namedview51"
     showgrid="false"
     inkscape:zoom="0.46430505"
     inkscape:cx="-27.140474"
     inkscape:cy="493.49763"
     inkscape:window-x="161"
     inkscape:window-y="43"
     inkscape:window-maximized="0"
     inkscape:current-layer="surface870"
     fit-margin-top="0"
     fit-margin-left="0"
     fit-margin-right="0"
     fit-margin-bottom="0" />
  <g
     id="surface870"
     transform="translate(-768.5,-57.5)">
    <path
       style="fill:none;stroke:#ff0000;stroke-width:20;stroke-linecap:butt;stroke-linejoin:round;stroke-miterlimit:10;stroke-opacity:1"
       d="m 7695,665.54687 h 640 v 160 h -640 z m 0,0"
       transform="matrix(0.1,0,0,-0.1,0,229)"
       id="path8"
       inkscape:connector-curvature="0" />
    <path
       style="fill:#ffa300;fill-opacity:1;fill-rule:evenodd;stroke:#ff0000"
       d="m 803.30078,130.44531 c 0,-2.39844 -3.60156,-2.39844 -3.60156,0 0,2.40235 3.60156,2.40235 3.60156,0 z m 0,0"
       id="path10"
       inkscape:connector-curvature="0" />
    <path
       style="fill:none;stroke:#ff0000;stroke-width:20;stroke-linecap:butt;stroke-linejoin:round;stroke-miterlimit:10;stroke-opacity:1"
       d="m 8095,985.54687 c 0,44.17973 -35.8203,80.00003 -80,80.00003 -44.1797,0 -80,-35.8203 -80,-80.00003 0,-44.21875 35.8203,-80 80,-80 44.1797,0 80,35.78125 80,80 z m 0,0"
       transform="matrix(0.1,0,0,-0.1,0,229)"
       id="path12"
       inkscape:connector-curvature="0" />
    <path
       style="fill:none;stroke:#ff0000;stroke-width:20;stroke-linecap:butt;stroke-linejoin:round;stroke-miterlimit:10;stroke-opacity:1"
       d="m 8095,1625 c 0,44.1797 -35.8203,80 -80,80 -44.1797,0 -80,-35.8203 -80,-80 0,-44.1797 35.8203,-80 80,-80 44.1797,0 80,35.8203 80,80 z m 0,0"
       transform="matrix(0.1,0,0,-0.1,0,229)"
       id="path22"
       inkscape:connector-curvature="0" />
    <path
       style="fill:#ffa300;fill-opacity:1;fill-rule:evenodd;stroke:#ff0000"
       d="m 803.30078,66.5 c 0,-2.398438 -3.60156,-2.398438 -3.60156,0 0,2.398438 3.60156,2.398438 3.60156,0 z m 0,0"
       id="path24"
       inkscape:connector-curvature="0" />
    <path
       style="fill:none;stroke:#ff0000;stroke-width:20;stroke-linecap:butt;stroke-linejoin:round;stroke-miterlimit:10;stroke-opacity:1"
       d="m 9215,1145 c 0,44.1797 -35.8203,80 -80,80 -44.1797,0 -80,-35.8203 -80,-80 0,-44.1797 35.8203,-80 80,-80 44.1797,0 80,35.8203 80,80 z m 0,0"
       transform="matrix(0.1,0,0,-0.1,0,229)"
       id="path26"
       inkscape:connector-curvature="0" />
    <path
       style="fill:#ffa300;fill-opacity:1;fill-rule:evenodd;stroke:#ff0000"
       d="m 915.30078,114.5 c 0,-2.39844 -3.60156,-2.39844 -3.60156,0 0,2.39844 3.60156,2.39844 3.60156,0 z m 0,0"
       id="path28"
       inkscape:connector-curvature="0" />
    <path
       style="fill:none;stroke:#ff0000;stroke-width:20;stroke-linecap:butt;stroke-linejoin:round;stroke-miterlimit:10;stroke-opacity:1"
       d="M 9114.2969,1222.2656 8202.7344,1092.6953"
       transform="matrix(0.1,0,0,-0.1,0,229)"
       id="path30"
       inkscape:connector-curvature="0" />
    <path
       style="fill:none;stroke:#ff0000;stroke-width:20;stroke-linecap:butt;stroke-linejoin:round;stroke-miterlimit:10;stroke-opacity:1"
       d="M 9138.3984,1065.0781 8311.0156,947.07031"
       transform="matrix(0.1,0,0,-0.1,0,229)"
       id="path32"
       inkscape:connector-curvature="0" />
    <path
       style="fill:none;stroke:#ff0000;stroke-width:20;stroke-linecap:butt;stroke-linejoin:round;stroke-miterlimit:10;stroke-opacity:1"
       d="m 7695,825.54687 c 0,176.71873 143.2812,320.00003 320,320.00003 176.7187,0 320,-143.2813 320,-320.00003"
       transform="matrix(0.1,0,0,-0.1,0,229)"
       id="path34"
       inkscape:connector-curvature="0" />
    <path
       style="fill:none;stroke:#ff0000;stroke-width:20;stroke-linecap:butt;stroke-linejoin:round;stroke-miterlimit:10;stroke-opacity:1"
       d="m 9175.3125,1214.1016 -1121.25,480.7031"
       transform="matrix(0.1,0,0,-0.1,0,229)"
       id="path42"
       inkscape:connector-curvature="0" />
    <path
       style="fill:none;stroke:#ff0000;stroke-width:20;stroke-linecap:butt;stroke-linejoin:round;stroke-miterlimit:10;stroke-opacity:1"
       d="m 7982.8906,1551.7188 844.0625,-370.2735"
       transform="matrix(0.1,0,0,-0.1,0,229)"
       id="path44"
       inkscape:connector-curvature="0" />
  </g>
</svg>
