<?xml version="1.0" encoding="UTF-8" standalone="no"?>
<svg
   xmlns:dc="http://purl.org/dc/elements/1.1/"
   xmlns:cc="http://creativecommons.org/ns#"
   xmlns:rdf="http://www.w3.org/1999/02/22-rdf-syntax-ns#"
   xmlns:svg="http://www.w3.org/2000/svg"
   xmlns="http://www.w3.org/2000/svg"
   xmlns:sodipodi="http://sodipodi.sourceforge.net/DTD/sodipodi-0.dtd"
   xmlns:inkscape="http://www.inkscape.org/namespaces/inkscape"
   width="154pt"
   height="105.94531pt"
   viewBox="0 0 154 105.94531"
   version="1.2"
   id="svg2711"
   sodipodi:docname="stp4.svg"
   inkscape:version="0.92.4 (5da689c313, 2019-01-14)">
  <metadata
     id="metadata2717">
    <rdf:RDF>
      <cc:Work
         rdf:about="">
        <dc:format>image/svg+xml</dc:format>
        <dc:type
           rdf:resource="http://purl.org/dc/dcmitype/StillImage" />
        <dc:title></dc:title>
      </cc:Work>
    </rdf:RDF>
  </metadata>
  <defs
     id="defs2715" />
  <sodipodi:namedview
     pagecolor="#ffffff"
     bordercolor="#666666"
     borderopacity="1"
     objecttolerance="10"
     gridtolerance="10"
     guidetolerance="10"
     inkscape:pageopacity="0"
     inkscape:pageshadow="2"
     inkscape:window-width="1664"
     inkscape:window-height="1135"
     id="namedview2713"
     showgrid="false"
     inkscape:zoom="0.43709065"
     inkscape:cx="-159.42314"
     inkscape:cy="346.67709"
     inkscape:window-x="1514"
     inkscape:window-y="180"
     inkscape:window-maximized="0"
     inkscape:current-layer="svg2711"
     fit-margin-top="0"
     fit-margin-left="0"
     fit-margin-right="0"
     fit-margin-bottom="0" />
  <path
     inkscape:connector-curvature="0"
     id="path2668"
     d="m 1,104.94531 h 64 v -16 H 1 Z m 0,0"
     style="fill:none;stroke:#ff0000;stroke-width:2;stroke-linecap:butt;stroke-linejoin:round;stroke-miterlimit:10;stroke-opacity:1" />
  <path
     inkscape:connector-curvature="0"
     id="path2670"
     d="m 34.80078,72.94531 c 0,-2.39844 -3.60156,-2.39844 -3.60156,0 0,2.40235 3.60156,2.40235 3.60156,0 z m 0,0"
     style="fill:#ff0000;fill-opacity:1;fill-rule:evenodd;stroke:none" />
  <path
     inkscape:connector-curvature="0"
     id="path2672"
     d="m 41,72.94531 c 0,-4.41797 -3.58203,-8 -8,-8 -4.41797,0 -8,3.58203 -8,8 0,4.42188 3.58203,8 8,8 4.41797,0 8,-3.57812 8,-8 z m 0,0"
     style="fill:none;stroke:#ff0000;stroke-width:2;stroke-linecap:butt;stroke-linejoin:round;stroke-miterlimit:10;stroke-opacity:1" />
  <path
     inkscape:connector-curvature="0"
     id="path2682"
     d="m 41,9 c 0,-4.41797 -3.58203,-8 -8,-8 -4.41797,0 -8,3.58203 -8,8 0,4.41797 3.58203,8 8,8 4.41797,0 8,-3.58203 8,-8 z m 0,0"
     style="fill:none;stroke:#ff0000;stroke-width:2;stroke-linecap:butt;stroke-linejoin:round;stroke-miterlimit:10;stroke-opacity:1" />
  <path
     inkscape:connector-curvature="0"
     id="path2684"
     d="m 34.80078,9 c 0,-2.398438 -3.60156,-2.398438 -3.60156,0 0,2.398438 3.60156,2.398438 3.60156,0 z m 0,0"
     style="fill:#ffa300;fill-opacity:1;fill-rule:evenodd;stroke:#ff0000" />
  <path
     inkscape:connector-curvature="0"
     id="path2686"
     d="m 153,57 c 0,-4.41797 -3.58203,-8 -8,-8 -4.41797,0 -8,3.58203 -8,8 0,4.41797 3.58203,8 8,8 4.41797,0 8,-3.58203 8,-8 z m 0,0"
     style="fill:none;stroke:#ff0000;stroke-width:2;stroke-linecap:butt;stroke-linejoin:round;stroke-miterlimit:10;stroke-opacity:1" />
  <path
     inkscape:connector-curvature="0"
     id="path2688"
     d="m 146.80078,57 c 0,-2.39844 -3.60156,-2.39844 -3.60156,0 0,2.39844 3.60156,2.39844 3.60156,0 z m 0,0"
     style="fill:#ffa300;fill-opacity:1;fill-rule:evenodd;stroke:#ff0000" />
  <path
     inkscape:connector-curvature="0"
     id="path2690"
     d="M 142.92969,49.27344 51.77344,62.23047"
     style="fill:none;stroke:#ff0000;stroke-width:2;stroke-linecap:butt;stroke-linejoin:round;stroke-miterlimit:10;stroke-opacity:1" />
  <path
     inkscape:connector-curvature="0"
     id="path2692"
     d="M 145.33984,64.99219 62.60156,76.79297"
     style="fill:none;stroke:#ff0000;stroke-width:2;stroke-linecap:butt;stroke-linejoin:round;stroke-miterlimit:10;stroke-opacity:1" />
  <path
     inkscape:connector-curvature="0"
     id="path2694"
     d="m 1,88.94531 c 0,-17.67187 14.32813,-32 32,-32 17.67188,0 32,14.32813 32,32"
     style="fill:none;stroke:#ff0000;stroke-width:2;stroke-linecap:butt;stroke-linejoin:round;stroke-miterlimit:10;stroke-opacity:1" />
  <path
     inkscape:connector-curvature="0"
     id="path2702"
     d="M 149.03125,50.08984 36.90625,2.01953"
     style="fill:none;stroke:#ff0000;stroke-width:2;stroke-linecap:butt;stroke-linejoin:round;stroke-miterlimit:10;stroke-opacity:1" />
  <path
     inkscape:connector-curvature="0"
     id="path2704"
     d="m 29.78906,16.32812 84.40625,37.02735"
     style="fill:none;stroke:#ff0000;stroke-width:2;stroke-linecap:butt;stroke-linejoin:round;stroke-miterlimit:10;stroke-opacity:1" />
</svg>
