<?xml version="1.0" encoding="UTF-8" standalone="no"?>
<svg
   xmlns:dc="http://purl.org/dc/elements/1.1/"
   xmlns:cc="http://creativecommons.org/ns#"
   xmlns:rdf="http://www.w3.org/1999/02/22-rdf-syntax-ns#"
   xmlns:svg="http://www.w3.org/2000/svg"
   xmlns="http://www.w3.org/2000/svg"
   xmlns:sodipodi="http://sodipodi.sourceforge.net/DTD/sodipodi-0.dtd"
   xmlns:inkscape="http://www.inkscape.org/namespaces/inkscape"
   width="162pt"
   height="50pt"
   viewBox="0 0 162 50"
   version="1.2"
   id="svg49"
   sodipodi:docname="cart.svg"
   inkscape:version="0.92.4 (5da689c313, 2019-01-14)">
  <metadata
     id="metadata55">
    <rdf:RDF>
      <cc:Work
         rdf:about="">
        <dc:format>image/svg+xml</dc:format>
        <dc:type
           rdf:resource="http://purl.org/dc/dcmitype/StillImage" />
        <dc:title />
      </cc:Work>
    </rdf:RDF>
  </metadata>
  <defs
     id="defs53" />
  <sodipodi:namedview
     pagecolor="#ffffff"
     bordercolor="#666666"
     borderopacity="1"
     objecttolerance="10"
     gridtolerance="10"
     guidetolerance="10"
     inkscape:pageopacity="0"
     inkscape:pageshadow="2"
     inkscape:window-width="1646"
     inkscape:window-height="1005"
     id="namedview51"
     showgrid="false"
     inkscape:zoom="0.46430505"
     inkscape:cx="-837.5656"
     inkscape:cy="739.27988"
     inkscape:window-x="161"
     inkscape:window-y="38"
     inkscape:window-maximized="0"
     inkscape:current-layer="surface870"
     fit-margin-top="0"
     fit-margin-left="0"
     fit-margin-right="0"
     fit-margin-bottom="0" />
  <g
     id="surface870"
     transform="translate(-720.5,-161.44531)">
    <path
       style="fill:#ffffff;stroke:#000000;stroke-width:20;stroke-linecap:butt;stroke-linejoin:round;stroke-miterlimit:10;stroke-opacity:1"
       d="m 7375,345.54687 h 1280 v 320 H 7375 Z m 0,0"
       transform="matrix(0.1,0,0,-0.1,0,229)"
       id="path2"
       inkscape:connector-curvature="0" />
    <path
       style="fill:#000000;fill-opacity:1;fill-rule:evenodd;stroke:#000000;stroke-width:20;stroke-linecap:butt;stroke-linejoin:round;stroke-miterlimit:10;stroke-opacity:1"
       d="m 7535,345.54687 c 0,88.35938 -71.6406,160 -160,160 -88.3594,0 -160,-71.64062 -160,-160 0,-88.39843 71.6406,-160 160,-160 88.3594,0 160,71.60157 160,160 z m 0,0"
       transform="matrix(0.1,0,0,-0.1,0,229)"
       id="path4"
       inkscape:connector-curvature="0" />
    <path
       style="fill:#000000;fill-opacity:1;fill-rule:evenodd;stroke:#000000;stroke-width:20;stroke-linecap:butt;stroke-linejoin:round;stroke-miterlimit:10;stroke-opacity:1"
       d="m 8815,345.54687 c 0,88.35938 -71.6406,160 -160,160 -88.3594,0 -160,-71.64062 -160,-160 0,-88.39843 71.6406,-160 160,-160 88.3594,0 160,71.60157 160,160 z m 0,0"
       transform="matrix(0.1,0,0,-0.1,0,229)"
       id="path6"
       inkscape:connector-curvature="0" />
  </g>
</svg>
