<?xml version="1.0" encoding="UTF-8" standalone="no"?>
<svg
   xmlns:dc="http://purl.org/dc/elements/1.1/"
   xmlns:cc="http://creativecommons.org/ns#"
   xmlns:rdf="http://www.w3.org/1999/02/22-rdf-syntax-ns#"
   xmlns:svg="http://www.w3.org/2000/svg"
   xmlns="http://www.w3.org/2000/svg"
   xmlns:sodipodi="http://sodipodi.sourceforge.net/DTD/sodipodi-0.dtd"
   xmlns:inkscape="http://www.inkscape.org/namespaces/inkscape"
   width="996pt"
   height="229pt"
   viewBox="0 0 996 229"
   version="1.2"
   id="svg49"
   sodipodi:docname="sk_stp0-eps-converted-to.svg"
   inkscape:version="0.92.4 (5da689c313, 2019-01-14)">
  <metadata
     id="metadata55">
    <rdf:RDF>
      <cc:Work
         rdf:about="">
        <dc:format>image/svg+xml</dc:format>
        <dc:type
           rdf:resource="http://purl.org/dc/dcmitype/StillImage" />
        <dc:title></dc:title>
      </cc:Work>
    </rdf:RDF>
  </metadata>
  <defs
     id="defs53" />
  <sodipodi:namedview
     pagecolor="#ffffff"
     bordercolor="#666666"
     borderopacity="1"
     objecttolerance="10"
     gridtolerance="10"
     guidetolerance="10"
     inkscape:pageopacity="0"
     inkscape:pageshadow="2"
     inkscape:window-width="1646"
     inkscape:window-height="1005"
     id="namedview51"
     showgrid="false"
     inkscape:zoom="0.46430505"
     inkscape:cx="993.21868"
     inkscape:cy="762.68613"
     inkscape:window-x="161"
     inkscape:window-y="43"
     inkscape:window-maximized="0"
     inkscape:current-layer="surface870" />
  <g
     id="surface870">
    <path
       style="fill:none;stroke-width:20;stroke-linecap:butt;stroke-linejoin:round;stroke:#800080;stroke-opacity:1;stroke-miterlimit:10"
       d="M 7375 345.546875 L 8655 345.546875 L 8655 665.546875 L 7375 665.546875 Z M 7375 345.546875 "
       transform="matrix(0.1,0,0,-0.1,0,229)"
       id="path2" />
    <path
       style="fill-rule:evenodd;fill:#800080;fill-opacity:1;stroke-width:20;stroke-linecap:butt;stroke-linejoin:round;stroke:#800080;stroke-opacity:1;stroke-miterlimit:10"
       d="M 7535 345.546875 C 7535 433.90625 7463.359375 505.546875 7375 505.546875 C 7286.640625 505.546875 7215 433.90625 7215 345.546875 C 7215 257.148438 7286.640625 185.546875 7375 185.546875 C 7463.359375 185.546875 7535 257.148438 7535 345.546875 Z M 7535 345.546875 "
       transform="matrix(0.1,0,0,-0.1,0,229)"
       id="path4" />
    <path
       style="fill-rule:evenodd;fill:#800080;fill-opacity:1;stroke-width:20;stroke-linecap:butt;stroke-linejoin:round;stroke:#800080;stroke-opacity:1;stroke-miterlimit:10"
       d="M 8815 345.546875 C 8815 433.90625 8743.359375 505.546875 8655 505.546875 C 8566.640625 505.546875 8495 433.90625 8495 345.546875 C 8495 257.148438 8566.640625 185.546875 8655 185.546875 C 8743.359375 185.546875 8815 257.148438 8815 345.546875 Z M 8815 345.546875 "
       transform="matrix(0.1,0,0,-0.1,0,229)"
       id="path6" />
    <path
       style="fill:none;stroke-width:20;stroke-linecap:butt;stroke-linejoin:round;stroke:#ff0000;stroke-opacity:1;stroke-miterlimit:10"
       d="M 7695 665.546875 L 8335 665.546875 L 8335 825.546875 L 7695 825.546875 Z M 7695 665.546875 "
       transform="matrix(0.1,0,0,-0.1,0,229)"
       id="path8" />
    <path
       style="stroke:#ff0000;fill-rule:evenodd;fill:rgb(100%, 64%, 0%);fill-opacity:1"
       d="M 803.300781 130.445312 C 803.300781 128.046875 799.699219 128.046875 799.699219 130.445312 C 799.699219 132.847656 803.300781 132.847656 803.300781 130.445312 Z M 803.300781 130.445312 "
       id="path10" />
    <path
       style="fill:none;stroke-width:20;stroke-linecap:butt;stroke-linejoin:round;stroke:#ff0000;stroke-opacity:1;stroke-miterlimit:10"
       d="M 8095 985.546875 C 8095 1029.726562 8059.179688 1065.546875 8015 1065.546875 C 7970.820312 1065.546875 7935 1029.726562 7935 985.546875 C 7935 941.328125 7970.820312 905.546875 8015 905.546875 C 8059.179688 905.546875 8095 941.328125 8095 985.546875 Z M 8095 985.546875 "
       transform="matrix(0.1,0,0,-0.1,0,229)"
       id="path12" />
    <path
       style=" stroke:none;fill-rule:evenodd;fill:rgb(100%,100%,100%);fill-opacity:1;"
       d="M 483.300781 2.5 C 483.300781 0.101562 479.699219 0.101562 479.699219 2.5 C 479.699219 4.898438 483.300781 4.898438 483.300781 2.5 Z M 483.300781 2.5 "
       id="path14" />
    <path
       style=" stroke:none;fill-rule:evenodd;fill:rgb(100%,100%,100%);fill-opacity:1;"
       d="M 179.300781 2.5 C 179.300781 0.101562 175.699219 0.101562 175.699219 2.5 C 175.699219 4.898438 179.300781 4.898438 179.300781 2.5 Z M 179.300781 2.5 "
       id="path16" />
    <path
       style=" stroke:none;fill-rule:evenodd;fill:rgb(100%,100%,100%);fill-opacity:1;"
       d="M 691.300781 226.5 C 691.300781 224.101562 687.699219 224.101562 687.699219 226.5 C 687.699219 228.898438 691.300781 228.898438 691.300781 226.5 Z M 691.300781 226.5 "
       id="path18" />
    <path
       style=" stroke:none;fill-rule:evenodd;fill:rgb(100%,100%,100%);fill-opacity:1;"
       d="M 995.300781 226.5 C 995.300781 224.101562 991.699219 224.101562 991.699219 226.5 C 991.699219 228.898438 995.300781 228.898438 995.300781 226.5 Z M 995.300781 226.5 "
       id="path20" />
    <path
       style="fill:none;stroke-width:20;stroke-linecap:butt;stroke-linejoin:round;stroke:#ff0000;stroke-opacity:1;stroke-miterlimit:10"
       d="M 8095 1625 C 8095 1669.179688 8059.179688 1705 8015 1705 C 7970.820312 1705 7935 1669.179688 7935 1625 C 7935 1580.820312 7970.820312 1545 8015 1545 C 8059.179688 1545 8095 1580.820312 8095 1625 Z M 8095 1625 "
       transform="matrix(0.1,0,0,-0.1,0,229)"
       id="path22" />
    <path
       style="stroke:#ff0000;fill-rule:evenodd;fill:rgb(100%, 64%, 0%);fill-opacity:1"
       d="M 803.300781 66.5 C 803.300781 64.101562 799.699219 64.101562 799.699219 66.5 C 799.699219 68.898438 803.300781 68.898438 803.300781 66.5 Z M 803.300781 66.5 "
       id="path24" />
    <path
       style="fill:none;stroke-width:20;stroke-linecap:butt;stroke-linejoin:round;stroke:#ff0000;stroke-opacity:1;stroke-miterlimit:10"
       d="M 9215 1145 C 9215 1189.179688 9179.179688 1225 9135 1225 C 9090.820312 1225 9055 1189.179688 9055 1145 C 9055 1100.820312 9090.820312 1065 9135 1065 C 9179.179688 1065 9215 1100.820312 9215 1145 Z M 9215 1145 "
       transform="matrix(0.1,0,0,-0.1,0,229)"
       id="path26" />
    <path
       style="stroke:#ff0000;fill-rule:evenodd;fill:rgb(100%, 64%, 0%);fill-opacity:1"
       d="M 915.300781 114.5 C 915.300781 112.101562 911.699219 112.101562 911.699219 114.5 C 911.699219 116.898438 915.300781 116.898438 915.300781 114.5 Z M 915.300781 114.5 "
       id="path28" />
    <path
       style="fill:none;stroke-width:20;stroke-linecap:butt;stroke-linejoin:round;stroke:#ff0000;stroke-opacity:1;stroke-miterlimit:10"
       d="M 9114.296875 1222.265625 L 8202.734375 1092.695312 "
       transform="matrix(0.1,0,0,-0.1,0,229)"
       id="path30" />
    <path
       style="fill:none;stroke-width:20;stroke-linecap:butt;stroke-linejoin:round;stroke:#ff0000;stroke-opacity:1;stroke-miterlimit:10"
       d="M 9138.398438 1065.078125 L 8311.015625 947.070312 "
       transform="matrix(0.1,0,0,-0.1,0,229)"
       id="path32" />
    <path
       style="fill:none;stroke-width:20;stroke-linecap:butt;stroke-linejoin:round;stroke:#ff0000;stroke-opacity:1;stroke-miterlimit:10"
       d="M 7695 825.546875 C 7695 1002.265625 7838.28125 1145.546875 8015 1145.546875 C 8191.71875 1145.546875 8335 1002.265625 8335 825.546875 "
       transform="matrix(0.1,0,0,-0.1,0,229)"
       id="path34" />
    <path
       style="fill:none;stroke-width:20;stroke-linecap:butt;stroke-linejoin:round;stroke:#008000;stroke-opacity:1;stroke-miterlimit:10"
       d="M 175 345.546875 L 1455 345.546875 L 1455 665.546875 L 175 665.546875 Z M 175 345.546875 "
       transform="matrix(0.1,0,0,-0.1,0,229)"
       id="path36" />
    <path
       style="fill-rule:evenodd;fill:#008000;fill-opacity:1;stroke-width:20;stroke-linecap:butt;stroke-linejoin:round;stroke:#008000;stroke-opacity:1;stroke-miterlimit:10"
       d="M 335 345.546875 C 335 433.90625 263.359375 505.546875 175 505.546875 C 86.640625 505.546875 15 433.90625 15 345.546875 C 15 257.148438 86.640625 185.546875 175 185.546875 C 263.359375 185.546875 335 257.148438 335 345.546875 Z M 335 345.546875 "
       transform="matrix(0.1,0,0,-0.1,0,229)"
       id="path38" />
    <path
       style="fill-rule:evenodd;fill:#008000;fill-opacity:1;stroke-width:20;stroke-linecap:butt;stroke-linejoin:round;stroke:#008000;stroke-opacity:1;stroke-miterlimit:10"
       d="M 1615 345.546875 C 1615 433.90625 1543.359375 505.546875 1455 505.546875 C 1366.640625 505.546875 1295 433.90625 1295 345.546875 C 1295 257.148438 1366.640625 185.546875 1455 185.546875 C 1543.359375 185.546875 1615 257.148438 1615 345.546875 Z M 1615 345.546875 "
       transform="matrix(0.1,0,0,-0.1,0,229)"
       id="path40" />
    <path
       style="fill:none;stroke-width:20;stroke-linecap:butt;stroke-linejoin:round;stroke:#ff0000;stroke-opacity:1;stroke-miterlimit:10"
       d="M 9175.3125 1214.101562 L 8054.0625 1694.804688 "
       transform="matrix(0.1,0,0,-0.1,0,229)"
       id="path42" />
    <path
       style="fill:none;stroke-width:20;stroke-linecap:butt;stroke-linejoin:round;stroke:#ff0000;stroke-opacity:1;stroke-miterlimit:10"
       d="M 7982.890625 1551.71875 L 8826.953125 1181.445312 "
       transform="matrix(0.1,0,0,-0.1,0,229)"
       id="path44" />
    <path
       style=" stroke:none;fill-rule:evenodd;fill:rgb(66.209412%,66.209412%,66.209412%);fill-opacity:1;"
       d="M 81.5 162.5 L 97.5 162.5 L 97.5 114.5 L 81.5 114.5 Z M 81.5 162.5 "
       id="path46" />
  </g>
</svg>
