<?xml version="1.0" encoding="UTF-8" standalone="no"?>
<svg
   xmlns:dc="http://purl.org/dc/elements/1.1/"
   xmlns:cc="http://creativecommons.org/ns#"
   xmlns:rdf="http://www.w3.org/1999/02/22-rdf-syntax-ns#"
   xmlns:svg="http://www.w3.org/2000/svg"
   xmlns="http://www.w3.org/2000/svg"
   xmlns:sodipodi="http://sodipodi.sourceforge.net/DTD/sodipodi-0.dtd"
   xmlns:inkscape="http://www.inkscape.org/namespaces/inkscape"
   width="1074pt"
   height="260pt"
   viewBox="0 0 1074 260"
   version="1.2"
   id="svg1511"
   sodipodi:docname="sk_stp2-eps-converted-to.svg"
   inkscape:version="0.92.4 (5da689c313, 2019-01-14)">
  <metadata
     id="metadata1517">
    <rdf:RDF>
      <cc:Work
         rdf:about="">
        <dc:format>image/svg+xml</dc:format>
        <dc:type
           rdf:resource="http://purl.org/dc/dcmitype/StillImage" />
        <dc:title></dc:title>
      </cc:Work>
    </rdf:RDF>
  </metadata>
  <defs
     id="defs1515" />
  <sodipodi:namedview
     pagecolor="#ffffff"
     bordercolor="#666666"
     borderopacity="1"
     objecttolerance="10"
     gridtolerance="10"
     guidetolerance="10"
     inkscape:pageopacity="0"
     inkscape:pageshadow="2"
     inkscape:window-width="1349"
     inkscape:window-height="839"
     id="namedview1513"
     showgrid="false"
     inkscape:zoom="1.7499905"
     inkscape:cx="856.56778"
     inkscape:cy="101.5692"
     inkscape:window-x="199"
     inkscape:window-y="1032"
     inkscape:window-maximized="0"
     inkscape:current-layer="surface6424" />
  <g
     id="surface6424">
    <path
       style="fill:none;stroke-width:20;stroke-linecap:butt;stroke-linejoin:round;stroke:#800080;stroke-opacity:1;stroke-miterlimit:10"
       d="M 5930 655 L 7210 655 L 7210 975 L 5930 975 Z M 5930 655 "
       transform="matrix(0.1,0,0,-0.1,0,260)"
       id="path1462" />
    <path
       style="fill-rule:evenodd;fill:#800080;fill-opacity:1;stroke-width:20;stroke-linecap:butt;stroke-linejoin:round;stroke:#800080;stroke-opacity:1;stroke-miterlimit:10"
       d="M 6090 655 C 6090 743.359375 6018.359375 815 5930 815 C 5841.640625 815 5770 743.359375 5770 655 C 5770 566.640625 5841.640625 495 5930 495 C 6018.359375 495 6090 566.640625 6090 655 Z M 6090 655 "
       transform="matrix(0.1,0,0,-0.1,0,260)"
       id="path1464" />
    <path
       style="fill-rule:evenodd;fill:#800080;fill-opacity:1;stroke-width:20;stroke-linecap:butt;stroke-linejoin:round;stroke:#800080;stroke-opacity:1;stroke-miterlimit:10"
       d="M 7370 655 C 7370 743.359375 7298.359375 815 7210 815 C 7121.640625 815 7050 743.359375 7050 655 C 7050 566.640625 7121.640625 495 7210 495 C 7298.359375 495 7370 566.640625 7370 655 Z M 7370 655 "
       transform="matrix(0.1,0,0,-0.1,0,260)"
       id="path1466" />
    <path
       style="fill:none;stroke-width:20;stroke-linecap:butt;stroke-linejoin:round;stroke:#ff0000;stroke-opacity:1;stroke-miterlimit:10"
       d="M 6250 975 L 6890 975 L 6890 1135 L 6250 1135 Z M 6250 975 "
       transform="matrix(0.1,0,0,-0.1,0,260)"
       id="path1468" />
    <path
       style="stroke:#ff0000;fill-rule:evenodd;fill:rgb(100%, 64%, 0%);fill-opacity:1"
       d="M 658.800781 130.5 C 658.800781 128.101562 655.199219 128.101562 655.199219 130.5 C 655.199219 132.898438 658.800781 132.898438 658.800781 130.5 Z M 658.800781 130.5 "
       id="path1470" />
    <path
       style="fill:none;stroke-width:20;stroke-linecap:butt;stroke-linejoin:round;stroke:#ff0000;stroke-opacity:1;stroke-miterlimit:10"
       d="M 6650 1295 C 6650 1339.179688 6614.179688 1375 6570 1375 C 6525.820312 1375 6490 1339.179688 6490 1295 C 6490 1250.820312 6525.820312 1215 6570 1215 C 6614.179688 1215 6650 1250.820312 6650 1295 Z M 6650 1295 "
       transform="matrix(0.1,0,0,-0.1,0,260)"
       id="path1472" />
    <path
       style=" stroke:none;fill-rule:evenodd;fill:rgb(100%,100%,100%);fill-opacity:1;"
       d="M 562.800781 2.5 C 562.800781 0.101562 559.199219 0.101562 559.199219 2.5 C 559.199219 4.898438 562.800781 4.898438 562.800781 2.5 Z M 562.800781 2.5 "
       id="path1474" />
    <path
       style=" stroke:none;fill-rule:evenodd;fill:rgb(100%,100%,100%);fill-opacity:1;"
       d="M 258.800781 2.5 C 258.800781 0.101562 255.199219 0.101562 255.199219 2.5 C 255.199219 4.898438 258.800781 4.898438 258.800781 2.5 Z M 258.800781 2.5 "
       id="path1476" />
    <path
       style=" stroke:none;fill-rule:evenodd;fill:rgb(100%,100%,100%);fill-opacity:1;"
       d="M 546.800781 226.554688 C 546.800781 224.152344 543.199219 224.152344 543.199219 226.554688 C 543.199219 228.953125 546.800781 228.953125 546.800781 226.554688 Z M 546.800781 226.554688 "
       id="path1478" />
    <path
       style=" stroke:none;fill-rule:evenodd;fill:rgb(100%,100%,100%);fill-opacity:1;"
       d="M 850.800781 226.554688 C 850.800781 224.152344 847.199219 224.152344 847.199219 226.554688 C 847.199219 228.953125 850.800781 228.953125 850.800781 226.554688 Z M 850.800781 226.554688 "
       id="path1480" />
    <path
       style="fill:none;stroke-width:20;stroke-linecap:butt;stroke-linejoin:round;stroke:#ff0000;stroke-opacity:1;stroke-miterlimit:10"
       d="M 6250 1135 C 6250 1311.71875 6393.28125 1455 6570 1455 C 6746.71875 1455 6890 1311.71875 6890 1135 "
       transform="matrix(0.1,0,0,-0.1,0,260)"
       id="path1482" />
    <path
       style="fill:none;stroke-width:20;stroke-linecap:butt;stroke-linejoin:round;stroke:#008000;stroke-opacity:1;stroke-miterlimit:10"
       d="M 3690 655 L 4970 655 L 4970 975 L 3690 975 Z M 3690 655 "
       transform="matrix(0.1,0,0,-0.1,0,260)"
       id="path1484" />
    <path
       style="fill-rule:evenodd;fill:#008000;fill-opacity:1;stroke-width:20;stroke-linecap:butt;stroke-linejoin:round;stroke:#008000;stroke-opacity:1;stroke-miterlimit:10"
       d="M 3850 655 C 3850 743.359375 3778.359375 815 3690 815 C 3601.640625 815 3530 743.359375 3530 655 C 3530 566.640625 3601.640625 495 3690 495 C 3778.359375 495 3850 566.640625 3850 655 Z M 3850 655 "
       transform="matrix(0.1,0,0,-0.1,0,260)"
       id="path1486" />
    <path
       style="fill-rule:evenodd;fill:#008000;fill-opacity:1;stroke-width:20;stroke-linecap:butt;stroke-linejoin:round;stroke:#008000;stroke-opacity:1;stroke-miterlimit:10"
       d="M 5130 655 C 5130 743.359375 5058.359375 815 4970 815 C 4881.640625 815 4810 743.359375 4810 655 C 4810 566.640625 4881.640625 495 4970 495 C 5058.359375 495 5130 566.640625 5130 655 Z M 5130 655 "
       transform="matrix(0.1,0,0,-0.1,0,260)"
       id="path1488" />
    <path
       style=" stroke:none;fill-rule:evenodd;fill:rgb(66.209412%,66.209412%,66.209412%);fill-opacity:1;"
       d="M 433 162.554688 L 449 162.554688 L 449 114.554688 L 433 114.554688 Z M 433 162.554688 "
       id="path1490" />
    <path
       style="fill:none;stroke-width:20;stroke-linecap:butt;stroke-linejoin:round;stroke:#ff0000;stroke-opacity:1;stroke-miterlimit:10"
       d="M 4490 1454.453125 C 4490 1498.671875 4454.179688 1534.453125 4410 1534.453125 C 4365.820312 1534.453125 4330 1498.671875 4330 1454.453125 C 4330 1410.273438 4365.820312 1374.453125 4410 1374.453125 C 4454.179688 1374.453125 4490 1410.273438 4490 1454.453125 Z M 4490 1454.453125 "
       transform="matrix(0.1,0,0,-0.1,0,260)"
       id="path1492" />
    <path
       style="stroke:#ff0000;fill-rule:evenodd;fill:rgb(100%, 64%, 0%);fill-opacity:1"
       d="M 442.800781 114.554688 C 442.800781 112.152344 439.199219 112.152344 439.199219 114.554688 C 439.199219 116.953125 442.800781 116.953125 442.800781 114.554688 Z M 442.800781 114.554688 "
       id="path1494" />
    <path
       style="fill:none;stroke-width:20;stroke-linecap:butt;stroke-linejoin:round;stroke:#ff0000;stroke-opacity:1;stroke-miterlimit:10"
       d="M 5690 1775 C 5690 1819.179688 5654.179688 1855 5610 1855 C 5565.820312 1855 5530 1819.179688 5530 1775 C 5530 1730.820312 5565.820312 1695 5610 1695 C 5654.179688 1695 5690 1730.820312 5690 1775 Z M 5690 1775 "
       transform="matrix(0.1,0,0,-0.1,0,260)"
       id="path1496" />
    <path
       style="stroke:#ff0000;fill-rule:evenodd;fill:rgb(100%, 64%, 0%);fill-opacity:1"
       d="M 562.800781 82.5 C 562.800781 80.101562 559.199219 80.101562 559.199219 82.5 C 559.199219 84.898438 562.800781 84.898438 562.800781 82.5 Z M 562.800781 82.5 "
       id="path1498" />
    <path
       style="fill:none;stroke-width:20;stroke-linecap:butt;stroke-linejoin:round;stroke:#ff0000;stroke-opacity:1;stroke-miterlimit:10"
       d="M 6528.046875 1226.875 L 5579.375 1701.09375 "
       transform="matrix(0.1,0,0,-0.1,0,260)"
       id="path1500" />
    <path
       style="fill:none;stroke-width:20;stroke-linecap:butt;stroke-linejoin:round;stroke:#ff0000;stroke-opacity:1;stroke-miterlimit:10"
       d="M 6608.75 1365 L 5657.890625 1839.101562 "
       transform="matrix(0.1,0,0,-0.1,0,260)"
       id="path1502" />
    <path
       style="fill:none;stroke-width:20;stroke-linecap:butt;stroke-linejoin:round;stroke:#ff0000;stroke-opacity:1;stroke-miterlimit:10"
       d="M 4384.609375 1530.351562 L 5587.5 1851.757812 "
       transform="matrix(0.1,0,0,-0.1,0,260)"
       id="path1504" />
    <path
       style="fill:none;stroke-width:20;stroke-linecap:butt;stroke-linejoin:round;stroke:#ff0000;stroke-opacity:1;stroke-miterlimit:10"
       d="M 4431.5625 1377.421875 L 5619.648438 1680.976562 "
       transform="matrix(0.1,0,0,-0.1,0,260)"
       id="path1506" />
    <path
       style="fill:none;stroke-width:20;stroke-linecap:butt;stroke-linejoin:round;stroke:rgb(100%,100%,100%);stroke-opacity:1;stroke-miterlimit:10;"
       d="M 10 15 L 10730 15 L 10730 2575 L 10 2575 Z M 10 15 "
       transform="matrix(0.1,0,0,-0.1,0,260)"
       id="path1508" />
  </g>
</svg>
