<?xml version="1.0" encoding="UTF-8" standalone="no"?>
<svg
   xmlns:dc="http://purl.org/dc/elements/1.1/"
   xmlns:cc="http://creativecommons.org/ns#"
   xmlns:rdf="http://www.w3.org/1999/02/22-rdf-syntax-ns#"
   xmlns:svg="http://www.w3.org/2000/svg"
   xmlns="http://www.w3.org/2000/svg"
   xmlns:sodipodi="http://sodipodi.sourceforge.net/DTD/sodipodi-0.dtd"
   xmlns:inkscape="http://www.inkscape.org/namespaces/inkscape"
   width="1074pt"
   height="260pt"
   viewBox="0 0 1074 260"
   version="1.2"
   id="svg2111"
   sodipodi:docname="sk_stp3-eps-converted-to.svg"
   inkscape:version="0.92.4 (5da689c313, 2019-01-14)">
  <metadata
     id="metadata2117">
    <rdf:RDF>
      <cc:Work
         rdf:about="">
        <dc:format>image/svg+xml</dc:format>
        <dc:type
           rdf:resource="http://purl.org/dc/dcmitype/StillImage" />
        <dc:title></dc:title>
      </cc:Work>
    </rdf:RDF>
  </metadata>
  <defs
     id="defs2115" />
  <sodipodi:namedview
     pagecolor="#ffffff"
     bordercolor="#666666"
     borderopacity="1"
     objecttolerance="10"
     gridtolerance="10"
     guidetolerance="10"
     inkscape:pageopacity="0"
     inkscape:pageshadow="2"
     inkscape:window-width="1487"
     inkscape:window-height="813"
     id="namedview2113"
     showgrid="false"
     inkscape:zoom="0.43749763"
     inkscape:cx="617.87897"
     inkscape:cy="260.68086"
     inkscape:window-x="1189"
     inkscape:window-y="776"
     inkscape:window-maximized="0"
     inkscape:current-layer="surface9572" />
  <g
     id="surface9572">
    <path
       style="fill:none;stroke-width:20;stroke-linecap:butt;stroke-linejoin:round;stroke:#800080;stroke-opacity:1;stroke-miterlimit:10"
       d="M 5930 655 L 7210 655 L 7210 975 L 5930 975 Z M 5930 655 "
       transform="matrix(0.1,0,0,-0.1,0,260)"
       id="path2062" />
    <path
       style="fill-rule:evenodd;fill:#800080;fill-opacity:1;stroke-width:20;stroke-linecap:butt;stroke-linejoin:round;stroke:#800080;stroke-opacity:1;stroke-miterlimit:10"
       d="M 6090 655 C 6090 743.359375 6018.359375 815 5930 815 C 5841.640625 815 5770 743.359375 5770 655 C 5770 566.640625 5841.640625 495 5930 495 C 6018.359375 495 6090 566.640625 6090 655 Z M 6090 655 "
       transform="matrix(0.1,0,0,-0.1,0,260)"
       id="path2064" />
    <path
       style="fill-rule:evenodd;fill:#800080;fill-opacity:1;stroke-width:20;stroke-linecap:butt;stroke-linejoin:round;stroke:#800080;stroke-opacity:1;stroke-miterlimit:10"
       d="M 7370 655 C 7370 743.359375 7298.359375 815 7210 815 C 7121.640625 815 7050 743.359375 7050 655 C 7050 566.640625 7121.640625 495 7210 495 C 7298.359375 495 7370 566.640625 7370 655 Z M 7370 655 "
       transform="matrix(0.1,0,0,-0.1,0,260)"
       id="path2066" />
    <path
       style="fill:none;stroke-width:20;stroke-linecap:butt;stroke-linejoin:round;stroke:#ff0000;stroke-opacity:1;stroke-miterlimit:10"
       d="M 6250 975 L 6890 975 L 6890 1135 L 6250 1135 Z M 6250 975 "
       transform="matrix(0.1,0,0,-0.1,0,260)"
       id="path2068" />
    <path
       style="stroke:#ff0000;fill-rule:evenodd;fill:rgb(100%, 64%, 0%);fill-opacity:1"
       d="M 658.800781 130.5 C 658.800781 128.101562 655.199219 128.101562 655.199219 130.5 C 655.199219 132.898438 658.800781 132.898438 658.800781 130.5 Z M 658.800781 130.5 "
       id="path2070" />
    <path
       style="fill:none;stroke-width:20;stroke-linecap:butt;stroke-linejoin:round;stroke:#ff0000;stroke-opacity:1;stroke-miterlimit:10"
       d="M 6650 1295 C 6650 1339.179688 6614.179688 1375 6570 1375 C 6525.820312 1375 6490 1339.179688 6490 1295 C 6490 1250.820312 6525.820312 1215 6570 1215 C 6614.179688 1215 6650 1250.820312 6650 1295 Z M 6650 1295 "
       transform="matrix(0.1,0,0,-0.1,0,260)"
       id="path2072" />
    <path
       style=" stroke:none;fill-rule:evenodd;fill:rgb(100%,100%,100%);fill-opacity:1;"
       d="M 562.800781 2.5 C 562.800781 0.101562 559.199219 0.101562 559.199219 2.5 C 559.199219 4.898438 562.800781 4.898438 562.800781 2.5 Z M 562.800781 2.5 "
       id="path2074" />
    <path
       style=" stroke:none;fill-rule:evenodd;fill:rgb(100%,100%,100%);fill-opacity:1;"
       d="M 258.800781 2.5 C 258.800781 0.101562 255.199219 0.101562 255.199219 2.5 C 255.199219 4.898438 258.800781 4.898438 258.800781 2.5 Z M 258.800781 2.5 "
       id="path2076" />
    <path
       style=" stroke:none;fill-rule:evenodd;fill:rgb(100%,100%,100%);fill-opacity:1;"
       d="M 546.800781 226.554688 C 546.800781 224.152344 543.199219 224.152344 543.199219 226.554688 C 543.199219 228.953125 546.800781 228.953125 546.800781 226.554688 Z M 546.800781 226.554688 "
       id="path2078" />
    <path
       style=" stroke:none;fill-rule:evenodd;fill:rgb(100%,100%,100%);fill-opacity:1;"
       d="M 850.800781 226.554688 C 850.800781 224.152344 847.199219 224.152344 847.199219 226.554688 C 847.199219 228.953125 850.800781 228.953125 850.800781 226.554688 Z M 850.800781 226.554688 "
       id="path2080" />
    <path
       style="fill:none;stroke-width:20;stroke-linecap:butt;stroke-linejoin:round;stroke:#ff0000;stroke-opacity:1;stroke-miterlimit:10"
       d="M 6650 1934.453125 C 6650 1978.671875 6614.179688 2014.453125 6570 2014.453125 C 6525.820312 2014.453125 6490 1978.671875 6490 1934.453125 C 6490 1890.273438 6525.820312 1854.453125 6570 1854.453125 C 6614.179688 1854.453125 6650 1890.273438 6650 1934.453125 Z M 6650 1934.453125 "
       transform="matrix(0.1,0,0,-0.1,0,260)"
       id="path2082" />
    <path
       style="stroke:#ff0000;fill-rule:evenodd;fill:rgb(100%, 64%, 0%);fill-opacity:1"
       d="M 658.800781 66.554688 C 658.800781 64.152344 655.199219 64.152344 655.199219 66.554688 C 655.199219 68.953125 658.800781 68.953125 658.800781 66.554688 Z M 658.800781 66.554688 "
       id="path2084" />
    <path
       style="fill:none;stroke-width:20;stroke-linecap:butt;stroke-linejoin:round;stroke:#ff0000;stroke-opacity:1;stroke-miterlimit:10"
       d="M 7770 1454.453125 C 7770 1498.671875 7734.179688 1534.453125 7690 1534.453125 C 7645.820312 1534.453125 7610 1498.671875 7610 1454.453125 C 7610 1410.273438 7645.820312 1374.453125 7690 1374.453125 C 7734.179688 1374.453125 7770 1410.273438 7770 1454.453125 Z M 7770 1454.453125 "
       transform="matrix(0.1,0,0,-0.1,0,260)"
       id="path2086" />
    <path
       style="stroke:#ff0000;fill-rule:evenodd;fill:rgb(100%, 64%, 0%);fill-opacity:1"
       d="M 770.800781 114.554688 C 770.800781 112.152344 767.199219 112.152344 767.199219 114.554688 C 767.199219 116.953125 770.800781 116.953125 770.800781 114.554688 Z M 770.800781 114.554688 "
       id="path2088" />
    <path
       style="fill:none;stroke-width:20;stroke-linecap:butt;stroke-linejoin:round;stroke:#ff0000;stroke-opacity:1;stroke-miterlimit:10"
       d="M 7669.296875 1531.757812 L 6757.734375 1402.1875 "
       transform="matrix(0.1,0,0,-0.1,0,260)"
       id="path2090" />
    <path
       style="fill:none;stroke-width:20;stroke-linecap:butt;stroke-linejoin:round;stroke:#ff0000;stroke-opacity:1;stroke-miterlimit:10"
       d="M 7693.398438 1374.53125 L 6866.015625 1256.523438 "
       transform="matrix(0.1,0,0,-0.1,0,260)"
       id="path2092" />
    <path
       style="fill:none;stroke-width:20;stroke-linecap:butt;stroke-linejoin:round;stroke:#ff0000;stroke-opacity:1;stroke-miterlimit:10"
       d="M 6250 1135 C 6250 1311.71875 6393.28125 1455 6570 1455 C 6746.71875 1455 6890 1311.71875 6890 1135 "
       transform="matrix(0.1,0,0,-0.1,0,260)"
       id="path2094" />
    <path
       style="fill:none;stroke-width:20;stroke-linecap:butt;stroke-linejoin:round;stroke:#008000;stroke-opacity:1;stroke-miterlimit:10"
       d="M 3690 655 L 4970 655 L 4970 975 L 3690 975 Z M 3690 655 "
       transform="matrix(0.1,0,0,-0.1,0,260)"
       id="path2096" />
    <path
       style="fill-rule:evenodd;fill:#008000;fill-opacity:1;stroke-width:20;stroke-linecap:butt;stroke-linejoin:round;stroke:#008000;stroke-opacity:1;stroke-miterlimit:10"
       d="M 3850 655 C 3850 743.359375 3778.359375 815 3690 815 C 3601.640625 815 3530 743.359375 3530 655 C 3530 566.640625 3601.640625 495 3690 495 C 3778.359375 495 3850 566.640625 3850 655 Z M 3850 655 "
       transform="matrix(0.1,0,0,-0.1,0,260)"
       id="path2098" />
    <path
       style="fill-rule:evenodd;fill:#008000;fill-opacity:1;stroke-width:20;stroke-linecap:butt;stroke-linejoin:round;stroke:#008000;stroke-opacity:1;stroke-miterlimit:10"
       d="M 5130 655 C 5130 743.359375 5058.359375 815 4970 815 C 4881.640625 815 4810 743.359375 4810 655 C 4810 566.640625 4881.640625 495 4970 495 C 5058.359375 495 5130 566.640625 5130 655 Z M 5130 655 "
       transform="matrix(0.1,0,0,-0.1,0,260)"
       id="path2100" />
    <path
       style="fill:none;stroke-width:20;stroke-linecap:butt;stroke-linejoin:round;stroke:#ff0000;stroke-opacity:1;stroke-miterlimit:10"
       d="M 7730.3125 1523.554688 L 6609.0625 2004.296875 "
       transform="matrix(0.1,0,0,-0.1,0,260)"
       id="path2102" />
    <path
       style="fill:none;stroke-width:20;stroke-linecap:butt;stroke-linejoin:round;stroke:#ff0000;stroke-opacity:1;stroke-miterlimit:10"
       d="M 6537.890625 1861.210938 L 7381.953125 1490.898438 "
       transform="matrix(0.1,0,0,-0.1,0,260)"
       id="path2104" />
    <path
       style=" stroke:none;fill-rule:evenodd;fill:rgb(66.209412%,66.209412%,66.209412%);fill-opacity:1;"
       d="M 633.5 93.578125 L 649.5 93.578125 L 649.5 45.578125 L 633.5 45.578125 Z M 633.5 93.578125 "
       id="path2106" />
    <path
       style="fill:none;stroke-width:20;stroke-linecap:butt;stroke-linejoin:round;stroke:rgb(100%,100%,100%);stroke-opacity:1;stroke-miterlimit:10;"
       d="M 10 15 L 10730 15 L 10730 2575 L 10 2575 Z M 10 15 "
       transform="matrix(0.1,0,0,-0.1,0,260)"
       id="path2108" />
  </g>
</svg>
