<?xml version="1.0" encoding="UTF-8" standalone="no"?>
<svg
   xmlns:dc="http://purl.org/dc/elements/1.1/"
   xmlns:cc="http://creativecommons.org/ns#"
   xmlns:rdf="http://www.w3.org/1999/02/22-rdf-syntax-ns#"
   xmlns:svg="http://www.w3.org/2000/svg"
   xmlns="http://www.w3.org/2000/svg"
   xmlns:sodipodi="http://sodipodi.sourceforge.net/DTD/sodipodi-0.dtd"
   xmlns:inkscape="http://www.inkscape.org/namespaces/inkscape"
   width="1075pt"
   height="260pt"
   viewBox="0 0 1075 260"
   version="1.2"
   id="svg2711"
   sodipodi:docname="stp4.svg"
   inkscape:version="0.92.4 (5da689c313, 2019-01-14)">
  <metadata
     id="metadata2717">
    <rdf:RDF>
      <cc:Work
         rdf:about="">
        <dc:format>image/svg+xml</dc:format>
        <dc:type
           rdf:resource="http://purl.org/dc/dcmitype/StillImage" />
        <dc:title></dc:title>
      </cc:Work>
    </rdf:RDF>
  </metadata>
  <defs
     id="defs2715" />
  <sodipodi:namedview
     pagecolor="#ffffff"
     bordercolor="#666666"
     borderopacity="1"
     objecttolerance="10"
     gridtolerance="10"
     guidetolerance="10"
     inkscape:pageopacity="0"
     inkscape:pageshadow="2"
     inkscape:window-width="1664"
     inkscape:window-height="1135"
     id="namedview2713"
     showgrid="false"
     inkscape:zoom="0.43709065"
     inkscape:cx="243.54927"
     inkscape:cy="346.67709"
     inkscape:window-x="1514"
     inkscape:window-y="180"
     inkscape:window-maximized="0"
     inkscape:current-layer="svg2711" />
  <g
     id="surface13068">
    <path
       style="fill:none;stroke-width:20;stroke-linecap:butt;stroke-linejoin:round;stroke:#800080;stroke-opacity:1;stroke-miterlimit:10"
       d="M 8170 655.546875 L 9450 655.546875 L 9450 975.546875 L 8170 975.546875 Z M 8170 655.546875 "
       transform="matrix(0.1,0,0,-0.1,0,260)"
       id="path2662" />
    <path
       style="fill-rule:evenodd;fill:#800080;fill-opacity:1;stroke-width:20;stroke-linecap:butt;stroke-linejoin:round;stroke:#800080;stroke-opacity:1;stroke-miterlimit:10"
       d="M 8330 655.546875 C 8330 743.90625 8258.359375 815.546875 8170 815.546875 C 8081.640625 815.546875 8010 743.90625 8010 655.546875 C 8010 567.148438 8081.640625 495.546875 8170 495.546875 C 8258.359375 495.546875 8330 567.148438 8330 655.546875 Z M 8330 655.546875 "
       transform="matrix(0.1,0,0,-0.1,0,260)"
       id="path2664" />
    <path
       style="fill-rule:evenodd;fill:#800080;fill-opacity:1;stroke-width:20;stroke-linecap:butt;stroke-linejoin:round;stroke:#800080;stroke-opacity:1;stroke-miterlimit:10"
       d="M 9610 655.546875 C 9610 743.90625 9538.359375 815.546875 9450 815.546875 C 9361.640625 815.546875 9290 743.90625 9290 655.546875 C 9290 567.148438 9361.640625 495.546875 9450 495.546875 C 9538.359375 495.546875 9610 567.148438 9610 655.546875 Z M 9610 655.546875 "
       transform="matrix(0.1,0,0,-0.1,0,260)"
       id="path2666" />
    <path
       style="fill:none;stroke-width:20;stroke-linecap:butt;stroke-linejoin:round;stroke:#ff0000;stroke-opacity:1;stroke-miterlimit:10"
       d="M 8490 975.546875 L 9130 975.546875 L 9130 1135.546875 L 8490 1135.546875 Z M 8490 975.546875 "
       transform="matrix(0.1,0,0,-0.1,0,260)"
       id="path2668" />
    <path
       style="stroke:none;fill-rule:evenodd;fill:#ff0000;fill-opacity:1"
       d="M 882.800781 130.445312 C 882.800781 128.046875 879.199219 128.046875 879.199219 130.445312 C 879.199219 132.847656 882.800781 132.847656 882.800781 130.445312 Z M 882.800781 130.445312 "
       id="path2670" />
    <path
       style="fill:none;stroke-width:20;stroke-linecap:butt;stroke-linejoin:round;stroke:#ff0000;stroke-opacity:1;stroke-miterlimit:10"
       d="M 8890 1295.546875 C 8890 1339.726562 8854.179688 1375.546875 8810 1375.546875 C 8765.820312 1375.546875 8730 1339.726562 8730 1295.546875 C 8730 1251.328125 8765.820312 1215.546875 8810 1215.546875 C 8854.179688 1215.546875 8890 1251.328125 8890 1295.546875 Z M 8890 1295.546875 "
       transform="matrix(0.1,0,0,-0.1,0,260)"
       id="path2672" />
    <path
       style=" stroke:none;fill-rule:evenodd;fill:rgb(100%,100%,100%);fill-opacity:1;"
       d="M 562.800781 2.5 C 562.800781 0.101562 559.199219 0.101562 559.199219 2.5 C 559.199219 4.898438 562.800781 4.898438 562.800781 2.5 Z M 562.800781 2.5 "
       id="path2674" />
    <path
       style=" stroke:none;fill-rule:evenodd;fill:rgb(100%,100%,100%);fill-opacity:1;"
       d="M 258.800781 2.5 C 258.800781 0.101562 255.199219 0.101562 255.199219 2.5 C 255.199219 4.898438 258.800781 4.898438 258.800781 2.5 Z M 258.800781 2.5 "
       id="path2676" />
    <path
       style=" stroke:none;fill-rule:evenodd;fill:rgb(100%,100%,100%);fill-opacity:1;"
       d="M 770.800781 226.5 C 770.800781 224.101562 767.199219 224.101562 767.199219 226.5 C 767.199219 228.898438 770.800781 228.898438 770.800781 226.5 Z M 770.800781 226.5 "
       id="path2678" />
    <path
       style=" stroke:none;fill-rule:evenodd;fill:rgb(100%,100%,100%);fill-opacity:1;"
       d="M 1074.800781 226.5 C 1074.800781 224.101562 1071.199219 224.101562 1071.199219 226.5 C 1071.199219 228.898438 1074.800781 228.898438 1074.800781 226.5 Z M 1074.800781 226.5 "
       id="path2680" />
    <path
       style="fill:none;stroke-width:20;stroke-linecap:butt;stroke-linejoin:round;stroke:#ff0000;stroke-opacity:1;stroke-miterlimit:10"
       d="M 8890 1935 C 8890 1979.179688 8854.179688 2015 8810 2015 C 8765.820312 2015 8730 1979.179688 8730 1935 C 8730 1890.820312 8765.820312 1855 8810 1855 C 8854.179688 1855 8890 1890.820312 8890 1935 Z M 8890 1935 "
       transform="matrix(0.1,0,0,-0.1,0,260)"
       id="path2682" />
    <path
       style="stroke:#ff0000;fill-rule:evenodd;fill:rgb(100%, 64%, 0%);fill-opacity:1"
       d="M 882.800781 66.5 C 882.800781 64.101562 879.199219 64.101562 879.199219 66.5 C 879.199219 68.898438 882.800781 68.898438 882.800781 66.5 Z M 882.800781 66.5 "
       id="path2684" />
    <path
       style="fill:none;stroke-width:20;stroke-linecap:butt;stroke-linejoin:round;stroke:#ff0000;stroke-opacity:1;stroke-miterlimit:10"
       d="M 10010 1455 C 10010 1499.179688 9974.179688 1535 9930 1535 C 9885.820312 1535 9850 1499.179688 9850 1455 C 9850 1410.820312 9885.820312 1375 9930 1375 C 9974.179688 1375 10010 1410.820312 10010 1455 Z M 10010 1455 "
       transform="matrix(0.1,0,0,-0.1,0,260)"
       id="path2686" />
    <path
       style="stroke:#ff0000;fill-rule:evenodd;fill:rgb(100%, 64%, 0%);fill-opacity:1"
       d="M 994.800781 114.5 C 994.800781 112.101562 991.199219 112.101562 991.199219 114.5 C 991.199219 116.898438 994.800781 116.898438 994.800781 114.5 Z M 994.800781 114.5 "
       id="path2688" />
    <path
       style="fill:none;stroke-width:20;stroke-linecap:butt;stroke-linejoin:round;stroke:#ff0000;stroke-opacity:1;stroke-miterlimit:10"
       d="M 9909.296875 1532.265625 L 8997.734375 1402.695312 "
       transform="matrix(0.1,0,0,-0.1,0,260)"
       id="path2690" />
    <path
       style="fill:none;stroke-width:20;stroke-linecap:butt;stroke-linejoin:round;stroke:#ff0000;stroke-opacity:1;stroke-miterlimit:10"
       d="M 9933.398438 1375.078125 L 9106.015625 1257.070312 "
       transform="matrix(0.1,0,0,-0.1,0,260)"
       id="path2692" />
    <path
       style="fill:none;stroke-width:20;stroke-linecap:butt;stroke-linejoin:round;stroke:#ff0000;stroke-opacity:1;stroke-miterlimit:10"
       d="M 8490 1135.546875 C 8490 1312.265625 8633.28125 1455.546875 8810 1455.546875 C 8986.71875 1455.546875 9130 1312.265625 9130 1135.546875 "
       transform="matrix(0.1,0,0,-0.1,0,260)"
       id="path2694" />
    <path
       style="fill:none;stroke-width:20;stroke-linecap:butt;stroke-linejoin:round;stroke:#008000;stroke-opacity:1;stroke-miterlimit:10"
       d="M 970 655.546875 L 2250 655.546875 L 2250 975.546875 L 970 975.546875 Z M 970 655.546875 "
       transform="matrix(0.1,0,0,-0.1,0,260)"
       id="path2696" />
    <path
       style="fill-rule:evenodd;fill:#008000;fill-opacity:1;stroke-width:20;stroke-linecap:butt;stroke-linejoin:round;stroke:#008000;stroke-opacity:1;stroke-miterlimit:10"
       d="M 1130 655.546875 C 1130 743.90625 1058.359375 815.546875 970 815.546875 C 881.640625 815.546875 810 743.90625 810 655.546875 C 810 567.148438 881.640625 495.546875 970 495.546875 C 1058.359375 495.546875 1130 567.148438 1130 655.546875 Z M 1130 655.546875 "
       transform="matrix(0.1,0,0,-0.1,0,260)"
       id="path2698" />
    <path
       style="fill-rule:evenodd;fill:#008000;fill-opacity:1;stroke-width:20;stroke-linecap:butt;stroke-linejoin:round;stroke:#008000;stroke-opacity:1;stroke-miterlimit:10"
       d="M 2410 655.546875 C 2410 743.90625 2338.359375 815.546875 2250 815.546875 C 2161.640625 815.546875 2090 743.90625 2090 655.546875 C 2090 567.148438 2161.640625 495.546875 2250 495.546875 C 2338.359375 495.546875 2410 567.148438 2410 655.546875 Z M 2410 655.546875 "
       transform="matrix(0.1,0,0,-0.1,0,260)"
       id="path2700" />
    <path
       style="fill:none;stroke-width:20;stroke-linecap:butt;stroke-linejoin:round;stroke:#ff0000;stroke-opacity:1;stroke-miterlimit:10"
       d="M 9970.3125 1524.101562 L 8849.0625 2004.804688 "
       transform="matrix(0.1,0,0,-0.1,0,260)"
       id="path2702" />
    <path
       style="fill:none;stroke-width:20;stroke-linecap:butt;stroke-linejoin:round;stroke:#ff0000;stroke-opacity:1;stroke-miterlimit:10"
       d="M 8777.890625 1861.71875 L 9621.953125 1491.445312 "
       transform="matrix(0.1,0,0,-0.1,0,260)"
       id="path2704" />
    <path
       style=" stroke:none;fill-rule:evenodd;fill:rgb(66.209412%,66.209412%,66.209412%);fill-opacity:1;"
       d="M 857.027344 91.179688 L 873.027344 91.179688 L 873.027344 43.179688 L 857.027344 43.179688 Z M 857.027344 91.179688 "
       id="path2706" />
    <path
       style="fill:none;stroke-width:20;stroke-linecap:butt;stroke-linejoin:round;stroke:rgb(100%,100%,100%);stroke-opacity:1;stroke-miterlimit:10;"
       d="M 10 15 L 10730 15 L 10730 2575 L 10 2575 Z M 10 15 "
       transform="matrix(0.1,0,0,-0.1,0,260)"
       id="path2708" />
  </g>
</svg>
