<?xml version="1.0" encoding="UTF-8" standalone="no"?>
<!-- Created with Inkscape (http://www.inkscape.org/) -->

<svg
   xmlns:dc="http://purl.org/dc/elements/1.1/"
   xmlns:cc="http://creativecommons.org/ns#"
   xmlns:rdf="http://www.w3.org/1999/02/22-rdf-syntax-ns#"
   xmlns:svg="http://www.w3.org/2000/svg"
   xmlns="http://www.w3.org/2000/svg"
   xmlns:sodipodi="http://sodipodi.sourceforge.net/DTD/sodipodi-0.dtd"
   xmlns:inkscape="http://www.inkscape.org/namespaces/inkscape"
   width="180.29118mm"
   height="26.300406mm"
   viewBox="0 0 180.29118 26.300406"
   version="1.1"
   id="svg6101"
   inkscape:version="0.92.4 (5da689c313, 2019-01-14)"
   sodipodi:docname="prog.svg">
  <defs
     id="defs6095" />
  <sodipodi:namedview
     id="base"
     pagecolor="#ffffff"
     bordercolor="#666666"
     borderopacity="1.0"
     inkscape:pageopacity="0.0"
     inkscape:pageshadow="2"
     inkscape:zoom="0.35"
     inkscape:cx="-185.00652"
     inkscape:cy="559.45098"
     inkscape:document-units="mm"
     inkscape:current-layer="g37119"
     showgrid="false"
     fit-margin-top="0"
     fit-margin-left="0"
     fit-margin-right="0"
     fit-margin-bottom="0"
     inkscape:window-width="1920"
     inkscape:window-height="1163"
     inkscape:window-x="1920"
     inkscape:window-y="0"
     inkscape:window-maximized="1" />
  <metadata
     id="metadata6098">
    <rdf:RDF>
      <cc:Work
         rdf:about="">
        <dc:format>image/svg+xml</dc:format>
        <dc:type
           rdf:resource="http://purl.org/dc/dcmitype/StillImage" />
        <dc:title></dc:title>
      </cc:Work>
    </rdf:RDF>
  </metadata>
  <g
     inkscape:label="Layer 1"
     inkscape:groupmode="layer"
     id="layer1"
     transform="translate(-0.56869068,-270.55433)">
    <g
       id="g37119"
       transform="matrix(0.34471382,0,0,0.34471382,-22.926105,547.47953)">
      <g
         transform="matrix(1.1057442,0,0,1.1057442,67.604522,-803.90099)"
         id="g32534">
        <polygon
           style="fill:#262626;stroke:#262626"
           points="1,55 9,51 1,47 "
           id="polygon8" />
        <polygon
           style="fill:#262626;stroke:#262626"
           points="9,55 17,51 9,47 "
           id="polygon10" />
        <rect
           style="fill:#262626;stroke:#262626"
           x="31"
           y="37"
           width="80"
           height="32"
           rx="10"
           id="rect12" />
        <rect
           style="fill:#ffffff;stroke:#262626"
           x="29"
           y="35"
           width="80"
           height="32"
           class="terminal"
           rx="10"
           id="rect14" />
        <text
           style="font-weight:bold;font-size:12px;line-height:0%;font-family:Verdana, Sans-serif;fill:#0a0a0a"
           class="terminal"
           x="39"
           y="55"
           id="text16">Interface</text>
        <rect
           style="fill:#262626;stroke:#262626"
           x="151"
           y="3"
           width="74"
           height="32"
           rx="10"
           id="rect18" />
        <rect
           style="fill:#ffffff;stroke:#262626"
           x="149"
           y="1"
           width="74"
           height="32"
           class="terminal"
           rx="10"
           id="rect20" />
        <text
           style="font-weight:bold;font-size:12px;line-height:0%;font-family:Verdana, Sans-serif;fill:#0a0a0a"
           class="terminal"
           x="159"
           y="21"
           id="text22">Variable</text>
        <rect
           style="fill:#262626;stroke:#262626"
           x="265"
           y="37"
           width="42"
           height="32"
           rx="10"
           id="rect24" />
        <rect
           style="fill:#ffffff;stroke:#262626"
           x="263"
           y="35"
           width="42"
           height="32"
           class="terminal"
           rx="10"
           id="rect26" />
        <text
           style="font-weight:bold;font-size:12px;line-height:0%;font-family:Verdana, Sans-serif;fill:#0a0a0a"
           class="terminal"
           x="273"
           y="55"
           id="text28">Init</text>
        <rect
           style="fill:#262626;stroke:#262626"
           x="347"
           y="3"
           width="80"
           height="32"
           rx="10"
           id="rect30" />
        <rect
           style="fill:#ffffff;stroke:#262626"
           x="345"
           y="1"
           width="80"
           height="32"
           class="terminal"
           rx="10"
           id="rect32" />
        <text
           class="terminal"
           x="361"
           y="21"
           id="text34"
           style="font-weight:bold;font-size:12px;line-height:0%;font-family:Verdana, Sans-serif;fill:#0a0a0a">Round<tspan
   style="font-style:italic;font-size:64.99999762%;baseline-shift:sub"
   id="tspan4172">T</tspan>
</text>
        <path
           style="fill:none;stroke:#262626"
           inkscape:connector-curvature="0"
           class="line"
           d="m 17,51 h 2 m 0,0 h 10 m 80,0 h 10 m 20,0 h 10 m 0,0 h 84 m -114,0 h 20 m -1,0 q -9,0 -9,-10 V 27 q 0,-10 10,-10 m 94,34 h 20 m -20,0 q 10,0 10,-10 V 27 q 0,-10 -10,-10 m -94,0 h 10 m 74,0 h 10 m 20,34 h 10 m 42,0 h 10 m 20,0 h 10 m 0,0 h 90 m -120,0 h 20 m -1,0 q -9,0 -9,-10 V 27 q 0,-10 10,-10 m 100,34 h 20 m -20,0 q 10,0 10,-10 V 27 q 0,-10 -10,-10 m -100,0 h 10 m 80,0 h 10 m 23,34 h -3"
           id="path36" />
        <polygon
           style="fill:#262626;stroke:#262626"
           points="473,55 465,51 473,47 "
           id="polygon38" />
        <polygon
           style="fill:#262626;stroke:#262626"
           points="457,55 465,51 457,47 "
           id="polygon40" />
      </g>
    </g>
  </g>
</svg>
