<?xml version="1.0" encoding="UTF-8" standalone="no"?>
<svg
   xmlns:dc="http://purl.org/dc/elements/1.1/"
   xmlns:cc="http://creativecommons.org/ns#"
   xmlns:rdf="http://www.w3.org/1999/02/22-rdf-syntax-ns#"
   xmlns:svg="http://www.w3.org/2000/svg"
   xmlns="http://www.w3.org/2000/svg"
   xmlns:sodipodi="http://sodipodi.sourceforge.net/DTD/sodipodi-0.dtd"
   xmlns:inkscape="http://www.inkscape.org/namespaces/inkscape"
   width="474"
   height="70"
   id="svg2"
   version="1.1"
   inkscape:version="0.91 r13725"
   sodipodi:docname="program.svg">
  <metadata
     id="metadata44">
    <rdf:RDF>
      <cc:Work
         rdf:about="">
        <dc:format>image/svg+xml</dc:format>
        <dc:type
           rdf:resource="http://purl.org/dc/dcmitype/StillImage" />
      </cc:Work>
    </rdf:RDF>
  </metadata>
  <sodipodi:namedview
     pagecolor="#ffffff"
     bordercolor="#666666"
     borderopacity="1"
     objecttolerance="10"
     gridtolerance="10"
     guidetolerance="10"
     inkscape:pageopacity="0"
     inkscape:pageshadow="2"
     inkscape:window-width="1600"
     inkscape:window-height="836"
     id="namedview42"
     showgrid="false"
     inkscape:zoom="2.22976"
     inkscape:cx="235.91945"
     inkscape:cy="31.977236"
     inkscape:window-x="0"
     inkscape:window-y="27"
     inkscape:window-maximized="1"
     inkscape:current-layer="svg2" />
  <defs
     id="defs4">
    <style
       type="text/css"
       id="style6">
         @namespace &quot;http://www.w3.org/2000/svg&quot;;
         .line                 {fill: none; stroke: #262626;}
         .bold-line            {stroke: #0A0A0A; shape-rendering: crispEdges; stroke-width:
         2; }
         .thin-line            {stroke: #0F0F0F; shape-rendering: crispEdges}
         .filled               {fill: #262626; stroke: none;}
         text.terminal         {font-family: Verdana, Sans-serif;
         font-size: 12px;
         fill: #0A0A0A;
         font-weight: bold;
         }
         text.nonterminal      {font-family: Verdana, Sans-serif;
         font-size: 12px;
         fill: #0D0D0D;
         }
         text.regexp           {font-family: Verdana, Sans-serif;
         font-size: 12px;
         fill: #0F0F0F;
         }
         rect, circle, polygon {fill: #262626; stroke: #262626;}
         rect.terminal         {fill: #FFFFFF; stroke: #262626;}
         rect.nonterminal      {fill: #FFFFFF; stroke: #262626;}
         rect.text             {fill: none; stroke: none;}    
         polygon.regexp        {fill: #FFFFFF; stroke: #262626;}
         
      </style>
  </defs>
  <polygon
     points="9 51 1 47 1 55"
     id="polygon8" />
  <polygon
     points="17 51 9 47 9 55"
     id="polygon10" />
  <rect
     x="31"
     y="37"
     width="80"
     height="32"
     rx="10"
     id="rect12" />
  <rect
     x="29"
     y="35"
     width="80"
     height="32"
     class="terminal"
     rx="10"
     id="rect14" />
  <text
     class="terminal"
     x="39"
     y="55"
     id="text16">Interface</text>
  <rect
     x="151"
     y="3"
     width="74"
     height="32"
     rx="10"
     id="rect18" />
  <rect
     x="149"
     y="1"
     width="74"
     height="32"
     class="terminal"
     rx="10"
     id="rect20" />
  <text
     class="terminal"
     x="159"
     y="21"
     id="text22">Variable</text>
  <rect
     x="265"
     y="37"
     width="42"
     height="32"
     rx="10"
     id="rect24" />
  <rect
     x="263"
     y="35"
     width="42"
     height="32"
     class="terminal"
     rx="10"
     id="rect26" />
  <text
     class="terminal"
     x="273"
     y="55"
     id="text28">Init</text>
  <rect
     x="347"
     y="3"
     width="80"
     height="32"
     rx="10"
     id="rect30" />
  <rect
     x="345"
     y="1"
     width="80"
     height="32"
     class="terminal"
     rx="10"
     id="rect32" />
  <text
     class="terminal"
     x="361"
     y="21"
     id="text34"
     style="font-weight:bold;font-size:12px;font-family:Verdana, Sans-serif;fill:#0a0a0a">Round<tspan
   style="font-style:italic;font-size:64.99999762%;baseline-shift:sub"
   id="tspan4172">T</tspan>
</text>
  <path
     class="line"
     d="m17 51 h2 m0 0 h10 m80 0 h10 m20 0 h10 m0 0 h84 m-114 0 l20 0 m-1 0 q-9 0 -9 -10 l0 -14 q0 -10 10 -10 m94 34 l20 0 m-20 0 q10 0 10 -10 l0 -14 q0 -10 -10 -10 m-94 0 h10 m74 0 h10 m20 34 h10 m42 0 h10 m20 0 h10 m0 0 h90 m-120 0 l20 0 m-1 0 q-9 0 -9 -10 l0 -14 q0 -10 10 -10 m100 34 l20 0 m-20 0 q10 0 10 -10 l0 -14 q0 -10 -10 -10 m-100 0 h10 m80 0 h10 m23 34 h-3"
     id="path36" />
  <polygon
     points="465 51 473 47 473 55"
     id="polygon38" />
  <polygon
     points="465 51 457 47 457 55"
     id="polygon40" />
</svg>
