<?xml version="1.0" encoding="UTF-8" standalone="no"?>
<!DOCTYPE svg PUBLIC "-//W3C//DTD SVG 1.1//EN"
 "http://www.w3.org/Graphics/SVG/1.1/DTD/svg11.dtd">
<!-- Generated by graphviz version 2.26.3 (20100126.1600)
 -->
<!-- Title: cover Pages: 1 -->
<svg width="608pt" height="448pt"
 viewBox="0.00 0.00 608.00 448.00" xmlns="http://www.w3.org/2000/svg" xmlns:xlink="http://www.w3.org/1999/xlink">
<g id="graph1" class="graph" transform="scale(1 1) rotate(0) translate(4 444)">
<title>cover</title>
<polygon fill="white" stroke="white" points="-4,5 -4,-444 605,-444 605,5 -4,5"/>
<!-- 5 -->
<g id="node1" class="node"><title>5</title>
<ellipse fill="none" stroke="black" cx="330.859" cy="-158.25" rx="34.2406" ry="18"/>
<text text-anchor="middle" x="330.859" y="-154.15" font-family="Times Roman,serif" font-size="14.00">(S,0)</text>
</g>
<!-- 3 -->
<g id="node4" class="node"><title>3</title>
<ellipse fill="none" stroke="black" cx="218.835" cy="-281.17" rx="50.9221" ry="18"/>
<text text-anchor="middle" x="218.835" y="-277.07" font-family="Times Roman,serif" font-size="14.00">(head,0)</text>
</g>
<!-- 5&#45;&gt;3 -->
<g id="edge10" class="edge"><title>5&#45;&gt;3</title>
<path fill="none" stroke="black" d="M315.983,-174.573C296.864,-195.552 263.494,-232.167 241.282,-256.54"/>
<polygon fill="black" stroke="black" points="238.644,-254.239 234.494,-263.988 243.817,-258.954 238.644,-254.239"/>
<text text-anchor="middle" x="292.633" y="-224.457" font-family="Times Roman,serif" font-size="14.00">head</text>
</g>
<!-- 1 -->
<g id="node2" class="node"><title>1</title>
<ellipse fill="none" stroke="black" cx="547.959" cy="-212.72" rx="50.9221" ry="18"/>
<text text-anchor="middle" x="547.959" y="-208.62" font-family="Times Roman,serif" font-size="14.00">(head,2)</text>
</g>
<!-- 0 -->
<g id="node3" class="node"><title>0</title>
<ellipse fill="none" stroke="black" cx="188.425" cy="-151.204" rx="47.9469" ry="18"/>
<text text-anchor="middle" x="188.425" y="-147.104" font-family="Times Roman,serif" font-size="14.00">(Op2,1)</text>
</g>
<!-- 0&#45;&gt;5 -->
<g id="edge6" class="edge"><title>0&#45;&gt;5</title>
<path fill="none" stroke="black" d="M236.25,-153.57C252.558,-154.377 270.708,-155.275 286.715,-156.067"/>
<polygon fill="black" stroke="black" points="286.722,-159.571 296.883,-156.57 287.068,-152.58 286.722,-159.571"/>
<text text-anchor="middle" x="261.482" y="-159.718" font-family="Times Roman,serif" font-size="14.00">x</text>
</g>
<!-- 0&#45;&gt;3 -->
<g id="edge4" class="edge"><title>0&#45;&gt;3</title>
<path fill="none" stroke="black" d="M192.653,-169.275C197.731,-190.976 206.306,-227.623 212.252,-253.037"/>
<polygon fill="black" stroke="black" points="208.858,-253.894 214.544,-262.834 215.674,-252.299 208.858,-253.894"/>
<text text-anchor="middle" x="195.453" y="-208.056" font-family="Times Roman,serif" font-size="14.00">h</text>
</g>
<!-- 2 -->
<g id="node7" class="node"><title>2</title>
<ellipse fill="none" stroke="black" cx="52.4622" cy="-97.1651" rx="50.9221" ry="18"/>
<text text-anchor="middle" x="52.4622" y="-93.0651" font-family="Times Roman,serif" font-size="14.00">(head,1)</text>
</g>
<!-- 0&#45;&gt;2 -->
<g id="edge2" class="edge"><title>0&#45;&gt;2</title>
<path fill="none" stroke="black" d="M155.164,-137.985C137.409,-130.928 115.335,-122.154 96.2067,-114.552"/>
<polygon fill="black" stroke="black" points="97.3843,-111.253 86.7987,-110.812 94.7988,-117.758 97.3843,-111.253"/>
<text text-anchor="middle" x="121.686" y="-133.168" font-family="Times Roman,serif" font-size="14.00">h2</text>
</g>
<!-- 7 -->
<g id="node5" class="node"><title>7</title>
<ellipse fill="none" stroke="black" cx="413.789" cy="-268.855" rx="47.9469" ry="18"/>
<text text-anchor="middle" x="413.789" y="-264.755" font-family="Times Roman,serif" font-size="14.00">(Op2,2)</text>
</g>
<!-- 7&#45;&gt;5 -->
<g id="edge16" class="edge"><title>7&#45;&gt;5</title>
<path fill="none" stroke="black" d="M400.465,-251.085C386.703,-232.729 365.109,-203.929 349.623,-183.275"/>
<polygon fill="black" stroke="black" points="352.405,-181.152 343.606,-175.25 346.804,-185.351 352.405,-181.152"/>
<text text-anchor="middle" x="383.044" y="-207.08" font-family="Times Roman,serif" font-size="14.00">x</text>
</g>
<!-- 7&#45;&gt;1 -->
<g id="edge12" class="edge"><title>7&#45;&gt;1</title>
<path fill="none" stroke="black" d="M445.926,-255.409C463.7,-247.973 486.015,-238.637 505.24,-230.593"/>
<polygon fill="black" stroke="black" points="506.809,-233.731 514.683,-226.642 504.107,-227.273 506.809,-233.731"/>
<text text-anchor="middle" x="471.583" y="-227.901" font-family="Times Roman,serif" font-size="14.00">h2</text>
</g>
<!-- 6 -->
<g id="node6" class="node"><title>6</title>
<ellipse fill="none" stroke="black" cx="417.018" cy="-420.686" rx="50.9221" ry="18"/>
<text text-anchor="middle" x="417.018" y="-416.586" font-family="Times Roman,serif" font-size="14.00">(head,1)</text>
</g>
<!-- 7&#45;&gt;6 -->
<g id="edge14" class="edge"><title>7&#45;&gt;6</title>
<path fill="none" stroke="black" d="M414.172,-286.868C414.725,-312.867 415.752,-361.173 416.41,-392.081"/>
<polygon fill="black" stroke="black" points="412.913,-392.3 416.625,-402.223 419.912,-392.151 412.913,-392.3"/>
<text text-anchor="middle" x="421.291" y="-335.375" font-family="Times Roman,serif" font-size="14.00">h</text>
</g>
<!-- 4 -->
<g id="node8" class="node"><title>4</title>
<ellipse fill="none" stroke="black" cx="393.501" cy="-18.9537" rx="47.9469" ry="18"/>
<text text-anchor="middle" x="393.501" y="-14.8537" font-family="Times Roman,serif" font-size="14.00">(Op1,1)</text>
</g>
<!-- 4&#45;&gt;5 -->
<g id="edge8" class="edge"><title>4&#45;&gt;5</title>
<path fill="none" stroke="black" d="M385.44,-36.8791C374.68,-60.805 355.532,-103.387 343.015,-131.219"/>
<polygon fill="black" stroke="black" points="339.799,-129.838 338.89,-140.394 346.183,-132.709 339.799,-129.838"/>
<text text-anchor="middle" x="372.228" y="-82.9491" font-family="Times Roman,serif" font-size="14.00">x</text>
</g>
</g>
</svg>
