<?xml version="1.0" encoding="UTF-8" standalone="no"?>
<!DOCTYPE svg PUBLIC "-//W3C//DTD SVG 1.1//EN"
 "http://www.w3.org/Graphics/SVG/1.1/DTD/svg11.dtd">
<!-- Generated by graphviz version 2.26.3 (20100126.1600)
 -->
<!-- Title: init Pages: 1 -->
<svg width="195pt" height="249pt"
 viewBox="0.00 0.00 195.00 249.00" xmlns="http://www.w3.org/2000/svg" xmlns:xlink="http://www.w3.org/1999/xlink">
<g id="graph1" class="graph" transform="scale(1 1) rotate(0) translate(4 245)">
<title>init</title>
<polygon fill="white" stroke="white" points="-4,5 -4,-245 192,-245 192,5 -4,5"/>
<!-- 0 -->
<g id="node1" class="node"><title>0</title>
<ellipse fill="none" stroke="black" cx="48.8596" cy="-153.177" rx="34.2406" ry="18"/>
<text text-anchor="middle" x="48.8596" y="-149.077" font-family="Times Roman,serif" font-size="14.00">(S,0)</text>
</g>
<!-- 2 -->
<g id="node3" class="node"><title>2</title>
<ellipse fill="none" stroke="black" cx="52.3969" cy="-19.2109" rx="50.9221" ry="18"/>
<text text-anchor="middle" x="52.3969" y="-15.1109" font-family="Times Roman,serif" font-size="14.00">(head,0)</text>
</g>
<!-- 0&#45;&gt;2 -->
<g id="edge2" class="edge"><title>0&#45;&gt;2</title>
<path fill="none" stroke="black" d="M49.3367,-135.11C49.93,-112.638 50.9498,-74.0146 51.6478,-47.5786"/>
<polygon fill="black" stroke="black" points="55.1508,-47.5087 51.9161,-37.4198 48.1533,-47.3239 55.1508,-47.5087"/>
<text text-anchor="middle" x="68.4923" y="-87.2443" font-family="Times Roman,serif" font-size="14.00">head</text>
</g>
<!-- 1 -->
<g id="node2" class="node"><title>1</title>
<ellipse fill="none" stroke="black" cx="138.11" cy="-222.314" rx="47.9469" ry="18"/>
<text text-anchor="middle" x="138.11" y="-218.214" font-family="Times Roman,serif" font-size="14.00">(Op1,1)</text>
</g>
<!-- 1&#45;&gt;0 -->
<g id="edge4" class="edge"><title>1&#45;&gt;0</title>
<path fill="none" stroke="black" d="M116.959,-205.93C104.865,-196.562 89.5561,-184.703 76.5176,-174.602"/>
<polygon fill="black" stroke="black" points="78.3829,-171.62 68.3339,-168.263 74.0961,-177.154 78.3829,-171.62"/>
<text text-anchor="middle" x="90.7381" y="-194.166" font-family="Times Roman,serif" font-size="14.00">x</text>
</g>
</g>
</svg>
