<?xml version="1.0" encoding="UTF-8" standalone="no"?>
<!-- Created with Inkscape (http://www.inkscape.org/) -->
<svg
   xmlns:dc="http://purl.org/dc/elements/1.1/"
   xmlns:cc="http://creativecommons.org/ns#"
   xmlns:rdf="http://www.w3.org/1999/02/22-rdf-syntax-ns#"
   xmlns:svg="http://www.w3.org/2000/svg"
   xmlns="http://www.w3.org/2000/svg"
   xmlns:sodipodi="http://sodipodi.sourceforge.net/DTD/sodipodi-0.dtd"
   xmlns:inkscape="http://www.inkscape.org/namespaces/inkscape"
   width="702.77515"
   height="381.68253"
   id="svg2535"
   sodipodi:version="0.32"
   inkscape:version="0.46"
   sodipodi:docname="Istlogo2.svg"
   inkscape:output_extension="org.inkscape.output.svg.inkscape"
   version="1.0">
  <defs
     id="defs3">
    <inkscape:perspective
       sodipodi:type="inkscape:persp3d"
       inkscape:vp_x="0 : 526.18109 : 1"
       inkscape:vp_y="0 : 1000 : 0"
       inkscape:vp_z="744.09448 : 526.18109 : 1"
       inkscape:persp3d-origin="372.04724 : 350.78739 : 1"
       id="perspective2541" />
  </defs>
  <sodipodi:namedview
     inkscape:document-units="mm"
     id="base"
     pagecolor="#ffffff"
     bordercolor="#666666"
     borderopacity="1.0"
     inkscape:pageopacity="0.0"
     inkscape:pageshadow="2"
     inkscape:zoom="1"
     inkscape:cx="501.55844"
     inkscape:cy="288.48202"
     inkscape:current-layer="layer1"
     showgrid="false"
     inkscape:window-width="1392"
     inkscape:window-height="1088"
     inkscape:window-x="259"
     inkscape:window-y="36" />
  <metadata
     id="metadata4">
    <rdf:RDF>
      <cc:Work
         rdf:about="">
        <dc:format>image/svg+xml</dc:format>
        <dc:type
           rdf:resource="http://purl.org/dc/dcmitype/StillImage" />
      </cc:Work>
    </rdf:RDF>
  </metadata>
  <g
     inkscape:label="Layer 1"
     inkscape:groupmode="layer"
     id="layer1"
     transform="translate(-18.381133,-38.879966)">
    <path
       style="font-style:normal;font-variant:normal;font-weight:normal;font-stretch:normal;letter-spacing:normal;word-spacing:normal;text-anchor:start;fill:#394A13;fill-opacity:1;stroke:#394A13;stroke-width:0;stroke-linecap:butt;stroke-linejoin:miter;stroke-miterlimit:10.43299961;stroke-dasharray:none;stroke-dashoffset:0;stroke-opacity:1"
       d="M 386,214.65625 L 370.71875,298.78125 L 384.28125,298.78125 L 387.0625,280.59375 L 402.71875,280.59375 L 405.125,298.78125 L 418.9375,298.78125 L 403.84375,214.65625 L 386,214.65625 z M 394.75,228.34375 L 400.625,267.46875 L 389.25,267.46875 L 394.75,228.34375 z"
       id="polygon2410" />
    <path
       style="font-style:normal;font-variant:normal;font-weight:normal;font-stretch:normal;letter-spacing:normal;word-spacing:normal;text-anchor:start;fill:#394A13;fill-opacity:1;stroke:#394A13;stroke-width:0;stroke-linecap:butt;stroke-linejoin:miter;stroke-miterlimit:10.43299961;stroke-dasharray:none;stroke-dashoffset:0;stroke-opacity:1"
       id="path2414"
       d="M 472.32431,272.53778 L 472.32431,214.6576 L 457.96073,214.6576 L 457.96073,274.26063 C 457.96073,283.24271 456.33467,287.49371 450.14014,287.49371 C 444.25533,287.49371 442.66798,283.57566 442.66798,275.07754 L 442.66798,214.6576 L 428.26569,214.6576 L 428.26569,272.53778 C 428.26569,291.53177 434.73123,300.49836 450.25628,300.49836 C 465.78133,300.49836 472.32431,291.53177 472.32431,272.53778 z" />
    <path
       style="font-style:normal;font-variant:normal;font-weight:normal;font-stretch:normal;letter-spacing:normal;word-spacing:normal;text-anchor:start;fill:#394A13;fill-opacity:1;stroke:#394A13;stroke-width:0;stroke-linecap:butt;stroke-linejoin:miter;stroke-miterlimit:10.43299961;stroke-dasharray:none;stroke-dashoffset:0;stroke-opacity:1"
       id="path2416"
       d="M 484.67466,276.80039 L 484.86824,278.18255 L 485.06182,279.52599 L 485.33283,280.83458 L 485.60384,282.09672 L 485.91357,283.32401 L 486.30073,284.50872 L 486.68789,285.6547 L 487.11376,286.75811 L 487.57835,287.82279 L 488.08166,288.84489 L 488.62368,289.8244 L 489.20441,290.76132 L 489.78515,291.65566 L 490.44332,292.51128 L 491.10149,293.32044 L 491.83709,294.08314 L 492.57269,294.80713 L 493.34701,295.48465 L 494.12133,296.11959 L 494.97307,296.70808 L 495.82482,297.2501 L 496.71529,297.74953 L 497.64447,298.19864 L 498.61236,298.60515 L 499.58026,298.96521 L 500.58687,299.27881 L 501.6322,299.54207 L 502.71624,299.76275 L 503.80028,299.9331 L 504.92304,300.05312 L 506.08452,300.12668 L 507.24599,300.14991 C 520.25452,300.14991 528.88815,290.83488 528.88815,278.52325 C 528.88815,265.29017 520.48681,258.84786 509.64638,248.83594 C 503.80028,243.42347 499.65769,239.40089 499.65769,233.41156 C 499.65769,228.34365 502.63881,225.00248 507.0137,225.00248 C 511.27244,225.00248 514.13741,228.57208 515.06659,235.2583 L 527.84282,233.29154 C 526.25547,220.40691 518.86074,213.38772 507.47829,213.38772 C 495.5151,213.38772 486.53302,221.67679 486.53302,233.98455 C 486.53302,241.92517 490.21103,249.74577 496.90887,255.85513 C 507.94288,265.86704 515.41504,271.61247 515.41504,279.20465 C 515.41504,284.27255 512.31777,287.61373 507.24599,287.61373 C 502.17422,287.61373 499.1931,283.34724 497.83805,274.83363 L 484.67466,276.80039 z" />
    <polygon
       style="font-style:normal;font-variant:normal;font-weight:normal;font-stretch:normal;letter-spacing:normal;word-spacing:normal;text-anchor:start;fill:#394A13;fill-opacity:1;stroke:#394A13;stroke-width:0;stroke-linecap:butt;stroke-linejoin:miter;stroke-miterlimit:10.43299961;stroke-dasharray:none;stroke-dashoffset:0;stroke-opacity:1"
       id="polygon2418"
       points="137.25,31.453 140.9,31.453 140.9,49.883 144.5,49.883 144.5,53.18 133.65,53.18 133.65,49.883 137.25,49.883 137.25,31.453 "
       transform="matrix(3.8715836,0,0,-3.8715836,18.381133,420.54842)" />
    <path
       style="font-style:normal;font-variant:normal;font-weight:normal;font-stretch:normal;letter-spacing:normal;word-spacing:normal;text-anchor:start;fill:#394A13;fill-opacity:1;stroke:#394A13;stroke-width:0;stroke-linecap:butt;stroke-linejoin:miter;stroke-miterlimit:10.43299961;stroke-dasharray:none;stroke-dashoffset:0;stroke-opacity:1"
       d="M 588.1875,214.65625 L 588.1875,298.78125 L 602.375,298.78125 L 602.375,264.15625 C 603.0719,264.15624 603.73176,264.15625 604.3125,264.15625 C 606.28702,264.15624 608.3366,264.00581 610.15625,263.78125 L 620.28125,298.78125 L 634.46875,298.78125 L 622.96875,261.59375 C 630.55703,257.10271 634.46875,249.64272 634.46875,239.40625 C 634.46873,230.30029 631.15198,222.91915 626.3125,219.125 C 620.89229,214.97854 614.81175,214.65625 606.875,214.65625 L 588.1875,214.65625 z M 606.5,225.9375 C 615.90792,225.93751 620.0625,229.72203 620.0625,238.8125 C 620.06248,248.83603 615.93088,252.625 605.59375,252.625 C 604.54841,252.625 603.49776,252.62002 602.375,252.5 L 602.375,226.15625 C 603.84621,226.03623 605.22238,225.9375 606.5,225.9375 z"
       id="path2420" />
    <polygon
       style="font-style:normal;font-variant:normal;font-weight:normal;font-stretch:normal;letter-spacing:normal;word-spacing:normal;text-anchor:start;fill:#394A13;fill-opacity:1;stroke:#394A13;stroke-width:0;stroke-linecap:butt;stroke-linejoin:miter;stroke-miterlimit:10.43299961;stroke-dasharray:none;stroke-dashoffset:0;stroke-opacity:1"
       id="polygon2424"
       points="162.82,31.453 166.45,31.453 166.45,53.18 162.82,53.18 162.82,31.453 "
       transform="matrix(3.8715836,0,0,-3.8715836,18.381133,420.54842)" />
    <path
       style="font-style:normal;font-variant:normal;font-weight:normal;font-stretch:normal;letter-spacing:normal;word-spacing:normal;text-anchor:start;fill:#394A13;fill-opacity:1;stroke:#394A13;stroke-width:0;stroke-linecap:butt;stroke-linejoin:miter;stroke-miterlimit:10.43299961;stroke-dasharray:none;stroke-dashoffset:0;stroke-opacity:1"
       d="M 688.25,214.65625 L 672.90625,298.78125 L 686.5,298.78125 L 689.25,280.59375 L 704.875,280.59375 L 707.34375,298.78125 L 721.15625,298.78125 L 706.0625,214.65625 L 688.25,214.65625 z M 696.96875,228.34375 L 702.84375,267.46875 L 691.46875,267.46875 L 696.96875,228.34375 z"
       id="polygon2426" />
    <polygon
       style="font-style:normal;font-variant:normal;font-weight:normal;font-stretch:normal;letter-spacing:normal;word-spacing:normal;text-anchor:start;fill:#394A13;fill-opacity:1;fill-rule:nonzero;stroke:#394A13;stroke-width:0;stroke-linecap:butt;stroke-linejoin:miter;stroke-miterlimit:10.43299961;stroke-dasharray:none;stroke-dashoffset:0;stroke-opacity:1"
       id="polygon2430"
       points="0.21875,98.582 83.004,98.582 83.004,15.793 0.21875,15.793 0.21875,98.582 "
       transform="matrix(3.8715836,0,0,-3.8715836,18.381133,420.54842)" />
    <path
       style="font-style:normal;font-variant:normal;font-weight:normal;font-stretch:normal;letter-spacing:normal;word-spacing:normal;text-anchor:start;fill:#ffffff;fill-opacity:1;stroke:#ffffff;stroke-width:0;stroke-linecap:butt;stroke-linejoin:miter;stroke-miterlimit:10.43299961;stroke-dasharray:none;stroke-dashoffset:0;stroke-opacity:1"
       id="path2432"
       d="M 88.147069,213.91813 L 44.211952,213.91813 L 44.211952,219.62097 C 44.453926,219.62097 44.6808,219.62097 44.907675,219.62097 C 52.348085,219.62097 55.493746,221.47933 55.493746,226.93827 L 55.493746,283.6531 C 55.493746,289.70051 52.348085,291.43885 44.211952,291.54725 L 44.211952,297.59467 L 88.147069,297.59467 L 88.147069,291.54725 C 79.888982,291.43885 76.756871,289.70051 76.756871,283.6531 L 76.756871,226.93827 C 76.756871,221.47933 79.888982,219.62097 87.450184,219.62097 C 87.674736,219.62097 87.918646,219.62097 88.147069,219.62097 L 88.147069,213.91813 z" />
    <path
       style="font-style:normal;font-variant:normal;font-weight:normal;font-stretch:normal;letter-spacing:normal;word-spacing:normal;text-anchor:start;fill:#ffffff;fill-opacity:1;stroke:#ffffff;stroke-width:0;stroke-linecap:butt;stroke-linejoin:miter;stroke-miterlimit:10.43299961;stroke-dasharray:none;stroke-dashoffset:0;stroke-opacity:1"
       id="path2434"
       d="M 147.44424,299.4569 L 147.47909,299.01554 L 147.52168,298.58967 L 147.56813,298.17928 L 147.62234,297.7805 L 147.68428,297.39335 L 147.7501,297.02167 L 147.81979,296.66549 L 147.89722,296.32092 L 147.97852,295.99183 L 148.06757,295.67436 L 148.16436,295.37238 L 148.26502,295.08588 L 148.36955,294.811 L 148.48183,294.54773 L 148.59798,294.30382 L 148.72187,294.07153 L 148.84963,293.85085 L 148.98126,293.64565 L 149.12064,293.45595 L 149.26389,293.27785 L 149.41488,293.11525 L 149.56587,292.96813 L 149.72848,292.83262 L 149.89108,292.7126 L 150.06143,292.6042 L 150.23566,292.51128 L 150.41762,292.43385 L 150.60346,292.3719 L 150.79316,292.32157 L 150.98674,292.28673 L 151.18807,292.2635 L 151.38939,292.25575 C 152.55473,292.25575 154.98996,293.75406 158.83057,295.38787 C 164.88186,297.94311 170.68923,299.68145 177.19349,299.68145 C 195.90098,299.68145 207.3028,289.23205 207.3028,273.53278 C 207.3028,259.71122 198.81629,253.31537 181.72712,246.22263 C 172.77602,242.51752 165.33483,240.53527 160.81282,237.63158 C 157.09223,235.18087 155.3384,232.86566 155.3384,229.25347 C 155.3384,222.86923 160.81282,218.21172 170.34079,218.21172 C 181.85101,218.21172 190.56207,225.07991 196.60948,238.90146 L 201.82838,238.90146 L 201.13149,211.58744 L 195.79258,211.58744 C 194.75112,215.08348 193.23733,216.94184 191.25508,216.94184 C 188.12684,216.94184 180.68566,211.93588 168.35854,211.93588 C 152.33018,211.93588 141.39296,222.05233 141.39296,236.11779 C 141.39296,247.62801 149.07805,255.41764 164.76184,261.57345 C 181.72712,268.19386 191.25508,271.32597 191.25508,281.21787 C 191.25508,288.18672 185.32769,293.18106 176.26818,293.18106 C 163.82104,293.18106 152.08627,283.30465 146.15888,265.29017 L 140.23148,265.29017 L 141.51685,299.4569 L 147.44424,299.4569 z" />
    <path
       style="font-style:normal;font-variant:normal;font-weight:normal;font-stretch:normal;letter-spacing:normal;word-spacing:normal;text-anchor:start;fill:#ffffff;fill-opacity:1;stroke:#ffffff;stroke-width:0;stroke-linecap:butt;stroke-linejoin:miter;stroke-miterlimit:10.43299961;stroke-dasharray:none;stroke-dashoffset:0;stroke-opacity:1"
       id="path2436"
       d="M 264.10667,297.59467 L 309.67134,297.59467 L 309.67134,291.54725 C 300.84026,291.31883 297.2242,289.58049 297.2242,283.5292 L 297.2242,219.62097 C 297.92108,219.49708 298.63346,219.49708 299.32647,219.49708 C 310.36822,219.49708 316.87249,228.20815 320.93765,246.34264 L 326.74502,246.34264 L 325.82359,213.91813 L 247.83441,213.91813 L 246.9091,246.81111 L 252.14348,246.81111 C 257.01393,228.20815 263.06134,219.37706 274.32765,219.37706 C 275.02454,219.37706 275.84144,219.37706 276.53833,219.49708 L 276.53833,283.30465 C 276.53833,289.58049 273.05777,291.31883 264.10667,291.54725 L 264.10667,297.59467 z" />
    <line
       style="font-style:normal;font-variant:normal;font-weight:normal;font-stretch:normal;letter-spacing:normal;word-spacing:normal;text-anchor:start;fill-opacity:1;stroke:#ffffff;stroke-width:5.08803511;stroke-linecap:butt;stroke-linejoin:miter;stroke-miterlimit:10.43299961;stroke-dasharray:none;stroke-dashoffset:0;stroke-opacity:1"
       id="line2438"
       y2="74.057167"
       x2="120.13022"
       y1="320.59961"
       x1="120.13022" />
    <line
       style="font-style:normal;font-variant:normal;font-weight:normal;font-stretch:normal;letter-spacing:normal;word-spacing:normal;text-anchor:start;fill-opacity:1;stroke:#ffffff;stroke-width:5.08803511;stroke-linecap:butt;stroke-linejoin:miter;stroke-miterlimit:10.43299961;stroke-dasharray:none;stroke-dashoffset:0;stroke-opacity:1"
       id="line2440"
       y2="74.057167"
       x2="230.26129"
       y1="320.59961"
       x1="230.26129" />
    <path
       style="font-style:normal;font-variant:normal;font-weight:normal;font-stretch:normal;letter-spacing:normal;word-spacing:normal;text-anchor:start;fill:#000000;fill-opacity:1;stroke:#000000;stroke-width:0;stroke-linecap:butt;stroke-linejoin:miter;stroke-miterlimit:10.43299961;stroke-dasharray:none;stroke-dashoffset:0;stroke-opacity:1"
       id="path2442"
       d="M 26.139399,409.00917 L 29.254863,391.19407 C 29.693513,388.57766 30.359038,388.13901 33.519799,388.13901 L 33.746674,386.67206 L 22.313113,386.67206 L 22.086355,388.13901 C 24.778151,388.2447 25.80683,388.47158 25.80683,389.90832 C 25.80683,390.0446 25.761146,390.49835 25.655451,391.07289 L 22.570186,408.90347 C 22.161967,411.21713 21.647782,411.94305 19.122193,411.94305 C 18.940693,411.94305 18.744094,411.94305 18.562613,411.94305 L 18.381133,413.3798 L 29.481737,413.3798 L 29.738811,411.94305 C 27.0167,411.80716 25.98802,411.62558 25.98802,410.03784 C 25.98802,409.88647 26.018606,409.569 26.139399,409.00917 z" />
    <path
       style="font-style:normal;font-variant:normal;font-weight:normal;font-stretch:normal;letter-spacing:normal;word-spacing:normal;text-anchor:start;fill:#000000;fill-opacity:1;stroke:#000000;stroke-width:0;stroke-linecap:butt;stroke-linejoin:miter;stroke-miterlimit:10.43299961;stroke-dasharray:none;stroke-dashoffset:0;stroke-opacity:1"
       id="path2444"
       d="M 40.083295,413.3798 L 43.062478,413.3798 L 43.985077,408.97897 C 44.574719,406.15077 46.117545,402.1735 48.17413,398.93724 C 49.747155,396.44162 51.153314,395.20155 52.574959,395.20155 C 53.724433,395.20155 54.420156,395.82178 54.420156,397.00145 C 54.420156,398.49859 53.467359,400.55518 52.499463,403.53475 C 51.698046,406.02998 51.289594,408.08657 51.289594,409.62939 C 51.289594,412.13973 52.393769,413.45568 54.268777,413.45568 C 56.401245,413.45568 58.12681,411.32321 60.22908,407.05827 L 58.897255,406.51393 C 57.170529,410.00726 55.917297,411.76186 54.782923,411.76186 C 54.193281,411.76186 53.754631,411.35341 53.754631,410.62749 C 53.754631,409.78077 54.193281,408.23795 54.934302,405.99978 C 55.962595,402.86922 56.809697,400.2679 56.809697,397.90856 C 56.809697,395.33783 55.266871,393.7648 52.877717,393.7648 C 49.974029,393.7648 47.659984,396.36612 45.225145,401.65935 L 44.937874,401.58385 L 44.937874,401.55366 C 44.937874,401.1452 45.345938,399.70846 45.345938,397.36422 C 45.345938,395.00487 44.423727,393.795 42.654026,393.795 C 40.49136,393.795 39.024417,396.07885 37.043327,400.55518 L 38.328693,401.2207 C 40.007412,397.4703 41.111587,395.48882 42.215376,395.48882 C 42.805405,395.48882 43.137974,396.00335 43.137974,396.95576 C 43.137974,398.57409 42.805405,400.37399 42.366755,402.47587 L 40.083295,413.3798 z" />
    <path
       style="font-style:normal;font-variant:normal;font-weight:normal;font-stretch:normal;letter-spacing:normal;word-spacing:normal;text-anchor:start;fill:#000000;fill-opacity:1;stroke:#000000;stroke-width:0;stroke-linecap:butt;stroke-linejoin:miter;stroke-miterlimit:10.43299961;stroke-dasharray:none;stroke-dashoffset:0;stroke-opacity:1"
       id="path2446"
       d="M 68.545242,397.90856 L 68.549113,397.76183 L 68.560728,397.61703 L 68.583958,397.47378 L 68.611059,397.33247 L 68.645903,397.19348 L 68.692362,397.05681 L 68.742692,396.92286 L 68.804638,396.79161 L 68.870455,396.66346 L 68.947886,396.53841 L 69.02919,396.41684 L 69.122108,396.29876 L 69.218897,396.18454 L 69.327302,396.07459 L 69.439578,395.96851 L 69.559597,395.86707 L 69.687359,395.77028 L 69.822864,395.67814 L 69.966113,395.59103 L 70.117105,395.50895 L 70.271968,395.43268 L 70.434575,395.36183 L 70.608796,395.29679 L 70.783017,395.23756 L 70.968853,395.18451 L 71.158561,395.13806 L 71.359883,395.09818 L 71.561205,395.06527 L 71.774142,395.03933 L 71.990951,395.02036 L 72.215503,395.00874 L 72.447798,395.00487 C 74.170653,395.00487 75.123062,395.5949 75.123062,396.10905 C 75.123062,396.36612 73.988688,396.92557 73.988688,398.10524 C 73.988688,399.26981 74.759133,399.93533 76.075472,399.93533 C 77.407297,399.93533 78.208714,399.05803 78.208714,397.65149 C 78.208714,395.5949 75.788975,393.71951 72.370366,393.71951 C 68.409736,393.71951 66.020969,395.97277 66.020969,398.61938 C 66.020969,400.70655 67.155343,402.1735 69.242127,403.9734 C 71.932877,406.28705 74.06612,407.23985 74.06612,409.34212 C 74.06612,411.06614 72.447798,412.47268 69.575083,412.47268 C 67.817384,412.47268 66.744955,411.83736 66.744955,411.29301 C 66.744955,410.99025 67.956761,410.44591 67.956761,409.00917 C 67.956761,407.90538 67.077912,407.10357 65.718986,407.10357 C 64.325216,407.10357 63.477339,408.13225 63.477339,409.59919 C 63.477339,411.80716 65.97451,413.89394 69.61767,413.89394 C 74.06612,413.89394 76.849789,411.4742 76.849789,408.31344 C 76.849789,406.10548 75.169521,404.66873 72.629762,402.61215 C 70.132591,400.60086 68.545242,399.67826 68.545242,397.90856 z" />
    <path
       style="font-style:normal;font-variant:normal;font-weight:normal;font-stretch:normal;letter-spacing:normal;word-spacing:normal;text-anchor:start;fill:#000000;fill-opacity:1;stroke:#000000;stroke-width:0;stroke-linecap:butt;stroke-linejoin:miter;stroke-miterlimit:10.43299961;stroke-dasharray:none;stroke-dashoffset:0;stroke-opacity:1"
       id="path2448"
       d="M 87.252734,408.08657 L 89.490509,395.5647 L 94.604871,395.5647 L 94.813936,394.30954 L 89.703446,394.30954 L 91.244336,387.51917 L 89.927998,387.51917 C 88.340649,391.84411 86.362269,393.90108 82.502301,394.30954 L 82.293235,395.5647 L 86.513261,395.5647 L 84.53101,406.58943 C 84.302587,407.7993 84.229027,408.85817 84.229027,409.75019 C 84.229027,412.47268 85.48342,413.93963 87.690223,413.93963 C 90.187394,413.93963 91.577293,411.65578 94.012519,407.20965 L 92.653593,406.66531 C 90.671342,410.34022 89.385976,412.24581 88.085124,412.24581 C 87.357266,412.24581 86.95075,411.65578 86.95075,410.47611 C 86.95075,409.70489 87.101742,408.93367 87.252734,408.08657 z" />
    <path
       style="font-style:normal;font-variant:normal;font-weight:normal;font-stretch:normal;letter-spacing:normal;word-spacing:normal;text-anchor:start;fill:#000000;fill-opacity:1;stroke:#000000;stroke-width:0;stroke-linecap:butt;stroke-linejoin:miter;stroke-miterlimit:10.43299961;stroke-dasharray:none;stroke-dashoffset:0;stroke-opacity:1"
       id="path2450"
       d="M 103.20753,387.44328 L 103.2114,387.54898 L 103.21914,387.65235 L 103.23076,387.75417 L 103.24625,387.85406 L 103.26948,387.95201 L 103.29658,388.04725 L 103.32755,388.14056 L 103.36239,388.23154 L 103.40111,388.31981 L 103.4437,388.40537 L 103.49403,388.48861 L 103.54436,388.56875 L 103.59856,388.6458 L 103.65663,388.72013 L 103.71858,388.79137 L 103.7844,388.85912 L 103.85408,388.92378 L 103.92377,388.98495 L 104.0012,389.04263 L 104.07864,389.09684 L 104.15607,389.14717 L 104.24124,389.19363 L 104.32642,389.23583 L 104.41546,389.27454 L 104.50451,389.309 L 104.59743,389.33881 L 104.69035,389.36475 L 104.78714,389.38604 L 104.88393,389.40269 L 104.98459,389.41469 L 105.08525,389.42205 L 105.18978,389.42437 C 106.29318,389.42437 107.14106,388.54746 107.14106,387.44328 C 107.14106,386.36969 106.26221,385.49239 105.18978,385.49239 C 104.12897,385.49239 103.20753,386.36969 103.20753,387.44328 z" />
    <path
       style="font-style:normal;font-variant:normal;font-weight:normal;font-stretch:normal;letter-spacing:normal;word-spacing:normal;text-anchor:start;fill:#000000;fill-opacity:1;stroke:#000000;stroke-width:0;stroke-linecap:butt;stroke-linejoin:miter;stroke-miterlimit:10.43299961;stroke-dasharray:none;stroke-dashoffset:0;stroke-opacity:1"
       id="path2452"
       d="M 98.429996,400.85793 L 98.615832,400.52536 L 98.793924,400.20247 L 98.972017,399.88926 L 99.142367,399.58573 L 99.308845,399.29265 L 99.475323,399.00886 L 99.634058,398.73553 L 99.792793,398.47226 L 99.943785,398.21867 L 100.09478,397.97554 L 100.2419,397.74247 L 100.38515,397.51985 L 100.52839,397.30769 L 100.66777,397.10559 L 100.80328,396.91395 L 100.93491,396.73276 L 101.06654,396.56241 L 101.19818,396.40251 L 101.32594,396.25307 L 101.44983,396.11447 L 101.57372,395.98671 L 101.69761,395.86978 L 101.81763,395.7637 L 101.93765,395.66846 L 102.05767,395.58445 L 102.17382,395.51128 L 102.29384,395.44933 L 102.40998,395.39823 L 102.52613,395.35874 L 102.64228,395.33047 L 102.75843,395.31305 L 102.87457,395.30763 C 103.50951,395.30763 103.95087,395.77648 103.95087,396.593 C 103.95087,397.72737 103.20753,399.19431 102.33255,401.2509 C 100.6368,405.25876 99.606957,408.20775 99.606957,410.29492 C 99.606957,412.60858 100.74133,413.89394 102.58808,413.89394 C 104.87231,413.89394 106.52161,411.65578 108.94134,407.36103 L 107.72954,406.58943 C 105.5963,410.18884 104.41934,412.16993 103.02557,412.16993 C 102.43708,412.16993 101.9996,411.76186 101.9996,411.03594 C 101.9996,409.59919 103.02557,407.46673 104.35739,404.41166 C 105.5692,401.65935 106.37061,399.31511 106.37061,397.03165 C 106.37061,394.86898 105.26334,393.71951 103.38949,393.71951 C 100.93878,393.71951 99.533397,395.97277 97.14463,400.04103 L 98.429996,400.85793 z" />
    <path
       style="font-style:normal;font-variant:normal;font-weight:normal;font-stretch:normal;letter-spacing:normal;word-spacing:normal;text-anchor:start;fill:#000000;fill-opacity:1;stroke:#000000;stroke-width:0;stroke-linecap:butt;stroke-linejoin:miter;stroke-miterlimit:10.43299961;stroke-dasharray:none;stroke-dashoffset:0;stroke-opacity:1"
       id="path2454"
       d="M 116.97101,408.08657 L 119.20878,395.5647 L 124.31928,395.5647 L 124.53221,394.30954 L 119.43721,394.30954 L 120.9781,387.51917 L 119.64627,387.51917 C 118.07441,391.84411 116.09216,393.90108 112.23606,394.30954 L 112.01151,395.5647 L 116.22767,395.5647 L 114.24929,406.58943 C 114.03635,407.7993 113.96279,408.85817 113.96279,409.75019 C 113.96279,412.47268 115.2017,413.93963 117.4085,413.93963 C 119.90567,413.93963 121.31105,411.65578 123.73079,407.20965 L 122.368,406.66531 C 120.38962,410.34022 119.10425,412.24581 117.81889,412.24581 C 117.07554,412.24581 116.68451,411.65578 116.68451,410.47611 C 116.68451,409.70489 116.82002,408.93367 116.97101,408.08657 z" />
    <path
       style="font-style:normal;font-variant:normal;font-weight:normal;font-stretch:normal;letter-spacing:normal;word-spacing:normal;text-anchor:start;fill:#000000;fill-opacity:1;stroke:#000000;stroke-width:0;stroke-linecap:butt;stroke-linejoin:miter;stroke-miterlimit:10.43299961;stroke-dasharray:none;stroke-dashoffset:0;stroke-opacity:1"
       id="path2456"
       d="M 142.22535,406.10548 L 142.17889,406.38772 L 142.13243,406.66724 L 142.08984,406.94368 L 142.05113,407.2174 L 142.01241,407.48841 L 141.9737,407.75671 L 141.94272,408.0223 L 141.91175,408.28518 L 141.88465,408.54535 L 141.85755,408.8032 L 141.83819,409.05833 L 141.81883,409.31076 L 141.80722,409.56048 L 141.7956,409.80787 L 141.79173,410.05256 L 141.78786,410.29492 C 141.78786,412.65387 142.74027,413.86374 144.50958,413.86374 C 146.56539,413.86374 148.21469,411.58028 149.984,407.05827 L 148.69864,406.43843 C 147.00675,410.18884 146.05435,412.13973 144.87351,412.13973 C 144.32762,412.13973 143.99466,411.68598 143.99466,410.73318 C 143.99466,409.11525 144.32762,407.31535 144.76898,405.22856 L 147.04934,394.30954 L 144.07209,394.30954 L 143.15066,398.75566 C 142.60476,401.43248 141.09098,405.44034 138.9616,408.75209 C 137.41684,411.21713 135.98048,412.47268 134.43959,412.47268 C 133.33232,412.47268 132.71287,411.83736 132.71287,410.65769 C 132.71287,409.23604 133.63818,407.13416 134.61769,404.12439 C 135.46556,401.47777 135.82949,399.26981 135.82949,397.77267 C 135.82949,395.08076 134.74158,393.71951 132.6819,393.71951 C 130.55252,393.71951 128.9342,396.00335 126.72353,400.37399 L 127.93533,401.11501 C 129.96017,397.43971 130.94355,395.51941 132.30635,395.51941 C 132.97226,395.51941 133.40975,395.97277 133.40975,396.74438 C 133.40975,397.62129 132.94129,399.19431 132.19795,401.58385 C 131.20295,404.78991 130.3241,407.43653 130.3241,409.75019 C 130.3241,412.3213 131.86499,413.89394 134.1802,413.89394 C 137.01033,413.89394 139.29069,411.24771 141.89239,406.02998 L 142.22535,406.10548 z" />
    <path
       style="font-style:normal;font-variant:normal;font-weight:normal;font-stretch:normal;letter-spacing:normal;word-spacing:normal;text-anchor:start;fill:#000000;fill-opacity:1;stroke:#000000;stroke-width:0;stroke-linecap:butt;stroke-linejoin:miter;stroke-miterlimit:10.43299961;stroke-dasharray:none;stroke-dashoffset:0;stroke-opacity:1"
       id="path2458"
       d="M 159.04351,408.08657 L 161.28128,395.5647 L 166.39177,395.5647 L 166.60471,394.30954 L 161.50971,394.30954 L 163.0506,387.51917 L 161.71877,387.51917 C 160.14691,391.84411 158.16466,393.90108 154.29308,394.30954 L 154.08401,395.5647 L 158.30404,395.5647 L 156.32179,406.58943 C 156.10885,407.7993 156.03529,408.85817 156.03529,409.75019 C 156.03529,412.47268 157.27419,413.93963 159.481,413.93963 C 161.97817,413.93963 163.38355,411.65578 165.80329,407.20965 L 164.44437,406.66531 C 162.46212,410.34022 161.17675,412.24581 159.89139,412.24581 C 159.14804,412.24581 158.74152,411.65578 158.74152,410.47611 C 158.74152,409.70489 158.89252,408.93367 159.04351,408.08657 z" />
    <path
       style="font-style:normal;font-variant:normal;font-weight:normal;font-stretch:normal;letter-spacing:normal;word-spacing:normal;text-anchor:start;fill:#000000;fill-opacity:1;stroke:#000000;stroke-width:0;stroke-linecap:butt;stroke-linejoin:miter;stroke-miterlimit:10.43299961;stroke-dasharray:none;stroke-dashoffset:0;stroke-opacity:1"
       d="M 181,393.71875 C 178.8203,393.71875 176.44685,394.71941 174.4375,396.625 C 171.71578,399.16592 170.15625,402.69483 170.15625,406.21875 C 170.15626,410.96726 172.79989,413.9375 177.0625,413.9375 C 179.9507,413.93749 182.1375,412.35954 184.40625,409.0625 L 183.34375,408.28125 C 181.21438,411.06416 179.71177,412.34375 177.1875,412.34375 C 174.69032,412.34375 173.5,410.43198 173.5,406.5 C 173.5,406.31843 173.5,406.16503 173.5,405.96875 L 174.21875,405.8125 L 174.9375,405.65625 L 175.625,405.5 L 176.28125,405.3125 L 176.90625,405.15625 L 177.53125,404.96875 L 178.125,404.75 L 178.6875,404.5625 L 179.21875,404.34375 L 179.75,404.125 L 180.25,403.875 L 180.71875,403.65625 L 181.1875,403.40625 L 181.59375,403.15625 L 182.03125,402.875 L 182.40625,402.625 L 182.75,402.34375 L 183.09375,402.0625 L 183.40625,401.78125 L 183.71875,401.46875 L 183.96875,401.1875 L 184.21875,400.875 L 184.4375,400.5625 L 184.65625,400.25 L 184.8125,399.9375 L 184.96875,399.59375 L 185.09375,399.28125 L 185.21875,398.9375 L 185.28125,398.59375 L 185.34375,398.25 L 185.40625,397.90625 L 185.40625,397.53125 C 185.40625,395.21722 183.7527,393.71875 181,393.71875 z M 179.65625,395.0625 L 179.90625,395.0625 C 181.22259,395.06249 182.0625,396.00114 182.0625,397.4375 C 182.0625,400.37179 179.08283,403.59671 173.5,404.625 L 173.625,404.0625 L 173.75,403.5 L 173.90625,402.9375 L 174.03125,402.40625 L 174.1875,401.90625 L 174.34375,401.40625 L 174.53125,400.9375 L 174.6875,400.46875 L 174.875,400.03125 L 175.03125,399.625 L 175.21875,399.21875 L 175.40625,398.8125 L 175.59375,398.46875 L 175.8125,398.125 L 176,397.78125 L 176.21875,397.46875 L 176.4375,397.1875 L 176.625,396.90625 L 176.84375,396.65625 L 177.0625,396.40625 L 177.28125,396.1875 L 177.53125,396 L 177.75,395.8125 L 177.96875,395.65625 L 178.21875,395.53125 L 178.4375,395.40625 L 178.6875,395.28125 L 178.9375,395.1875 L 179.15625,395.125 L 179.40625,395.09375 L 179.65625,395.0625 z"
       id="path2460" />
    <path
       style="font-style:normal;font-variant:normal;font-weight:normal;font-stretch:normal;letter-spacing:normal;word-spacing:normal;text-anchor:start;fill:#000000;fill-opacity:1;stroke:#000000;stroke-width:0;stroke-linecap:butt;stroke-linejoin:miter;stroke-miterlimit:10.43299961;stroke-dasharray:none;stroke-dashoffset:0;stroke-opacity:1"
       d="M 212.90625,393.71875 C 207.69121,393.71875 203.0625,398.65354 203.0625,405.15625 L 203.0625,405.65625 L 203.09375,406.125 L 203.125,406.59375 L 203.1875,407.0625 L 203.25,407.5 L 203.34375,407.9375 L 203.4375,408.34375 L 203.5625,408.75 L 203.6875,409.15625 L 203.84375,409.53125 L 204,409.90625 L 204.15625,410.25 L 204.34375,410.59375 L 204.5625,410.90625 L 204.78125,411.21875 L 205,411.53125 L 205.21875,411.8125 L 205.46875,412.0625 L 205.75,412.3125 L 206.03125,412.53125 L 206.3125,412.75 L 206.59375,412.9375 L 206.90625,413.125 L 207.25,413.28125 L 207.5625,413.40625 L 207.90625,413.53125 L 208.28125,413.65625 L 208.625,413.75 L 209,413.8125 L 209.375,413.84375 L 209.78125,413.875 L 210.1875,413.90625 C 215.44899,413.90624 220.15625,409.01992 220.15625,402.5625 C 220.15624,397.11788 217.27726,393.71875 212.90625,393.71875 z M 212.875,395.125 L 213.09375,395.125 L 213.34375,395.15625 L 213.5625,395.1875 L 213.78125,395.21875 L 214,395.25 L 214.1875,395.3125 L 214.375,395.375 L 214.5625,395.46875 L 214.75,395.5625 L 214.9375,395.65625 L 215.09375,395.75 L 215.25,395.875 L 215.375,396.03125 L 215.53125,396.15625 L 215.65625,396.3125 L 215.78125,396.46875 L 215.90625,396.65625 L 216,396.84375 L 216.125,397.03125 L 216.21875,397.25 L 216.28125,397.4375 L 216.375,397.6875 L 216.4375,397.90625 L 216.5,398.15625 L 216.5625,398.40625 L 216.625,398.6875 L 216.65625,398.96875 L 216.6875,399.25 L 216.71875,399.5625 L 216.75,399.875 L 216.75,400.1875 L 216.75,400.53125 C 216.75,407.57868 214.1379,412.5 210.34375,412.5 C 207.71107,412.50001 206.4375,410.66192 206.4375,407.0625 C 206.43751,399.86369 209.15441,395.125 212.875,395.125 z"
       id="path2464" />
    <path
       style="font-style:normal;font-variant:normal;font-weight:normal;font-stretch:normal;letter-spacing:normal;word-spacing:normal;text-anchor:start;fill:#000000;fill-opacity:1;stroke:#000000;stroke-width:0;stroke-linecap:butt;stroke-linejoin:miter;stroke-miterlimit:10.43299961;stroke-dasharray:none;stroke-dashoffset:0;stroke-opacity:1"
       id="path2468"
       d="M 229.50246,396.74438 L 226.90075,412.24581 C 226.05675,417.16078 225.35986,419.2327 222.84721,419.2327 C 222.45618,419.2327 222.07676,419.00583 222.07676,418.77899 C 222.07676,418.4614 222.59168,418.15892 222.59168,417.28177 C 222.59168,416.46506 222.0032,415.81463 220.91141,415.81463 C 219.76543,415.81463 219.03757,416.61644 219.03757,417.82623 C 219.03757,419.48977 220.27647,420.54842 222.56071,420.54842 C 227.00916,420.54842 229.09594,416.97928 230.31936,409.75019 L 232.48358,396.74438 L 236.67263,396.74438 L 236.88557,395.33783 L 232.77007,395.33783 L 233.25402,392.55493 C 233.87348,388.75923 234.46196,386.85364 236.5952,386.85364 C 237.47405,386.85364 238.03156,387.18621 238.03156,387.39799 C 238.03156,387.88193 236.92816,388.06351 236.92816,389.39417 C 236.92816,390.52855 237.59407,391.14839 238.91041,391.14839 C 240.09124,391.14839 241.01268,390.16539 241.01268,388.75923 C 241.01268,386.85364 239.31692,385.49239 236.7036,385.49239 C 232.58811,385.49239 230.63683,388.69845 229.73088,395.33783 L 225.02691,395.33783 L 224.79848,396.74438 L 229.50246,396.74438 z" />
    <path
       style="font-style:normal;font-variant:normal;font-weight:normal;font-stretch:normal;letter-spacing:normal;word-spacing:normal;text-anchor:start;fill:#000000;fill-opacity:1;stroke:#000000;stroke-width:0;stroke-linecap:butt;stroke-linejoin:miter;stroke-miterlimit:10.43299961;stroke-dasharray:none;stroke-dashoffset:0;stroke-opacity:1"
       id="path2470"
       d="M 252.21704,413.71275 L 253.73083,413.71275 C 254.24575,412.53308 254.83423,411.94305 255.53111,411.94305 C 256.69646,411.94305 258.90326,413.93963 262.72839,413.93963 C 267.43236,413.93963 270.80451,410.58219 270.80451,406.15077 C 270.80451,402.24899 268.6132,400.52498 265.33009,398.39251 C 261.77598,396.03355 259.38721,394.61191 259.38721,391.78372 C 259.38721,389.34888 261.29203,387.59466 263.90922,387.59466 C 267.28137,387.59466 270.00309,390.42285 270.48704,395.23175 L 271.95437,395.23175 C 272.2099,392.43414 272.57383,389.39417 273.13521,386.11262 L 271.69885,386.11262 C 271.18393,387.14091 270.62255,387.62486 270.03407,387.62486 C 268.97712,387.62486 267.20781,386.05184 263.83179,386.05184 C 259.41818,386.05184 256.30156,389.01631 256.30156,393.25066 C 256.30156,397.03165 258.57031,398.72546 262.10894,401.03912 C 265.63208,403.35317 267.76532,404.82011 267.76532,407.49692 C 267.76532,410.40061 265.52754,412.3515 262.5774,412.3515 C 258.64774,412.3515 255.86407,409.37232 255.22913,403.76162 L 253.61081,403.76162 C 253.35141,406.8465 252.96038,410.14354 252.21704,413.71275 z" />
    <path
       style="font-style:normal;font-variant:normal;font-weight:normal;font-stretch:normal;letter-spacing:normal;word-spacing:normal;text-anchor:start;fill:#000000;fill-opacity:1;stroke:#000000;stroke-width:0;stroke-linecap:butt;stroke-linejoin:miter;stroke-miterlimit:10.43299961;stroke-dasharray:none;stroke-dashoffset:0;stroke-opacity:1"
       id="path2472"
       d="M 293.15904,408.54032 L 292.08274,407.7238 C 290.02692,410.80906 288.45506,412.3968 286.27536,412.3968 C 283.81303,412.3968 282.46572,410.52179 282.46572,406.95258 C 282.46572,404.38146 283.23617,401.32678 284.7035,398.61938 C 285.9424,396.26043 287.20067,395.26233 289.17905,395.26233 C 290.43731,395.26233 291.08774,395.74628 291.08774,396.18454 C 291.08774,396.80477 289.48103,397.51559 289.48103,398.93724 C 289.48103,400.16221 290.28245,400.88813 291.64525,400.88813 C 293.15904,400.88813 294.18501,399.64806 294.18501,397.95425 C 294.18501,395.5949 292.00918,393.7648 289.07452,393.7648 C 286.89481,393.7648 284.62994,394.86898 282.64769,396.95576 C 280.21246,399.52688 278.89612,402.76314 278.89612,406.10548 C 278.89612,411.03594 281.72625,413.96983 285.83787,413.96983 C 288.89255,413.96983 291.05677,412.21561 293.15904,408.54032 z" />
    <path
       style="font-style:normal;font-variant:normal;font-weight:normal;font-stretch:normal;letter-spacing:normal;word-spacing:normal;text-anchor:start;fill:#000000;fill-opacity:1;stroke:#000000;stroke-width:0;stroke-linecap:butt;stroke-linejoin:miter;stroke-miterlimit:10.43299961;stroke-dasharray:none;stroke-dashoffset:0;stroke-opacity:1"
       id="path2474"
       d="M 304.0769,387.44328 L 304.08077,387.54898 L 304.08852,387.65235 L 304.10013,387.75417 L 304.11562,387.85406 L 304.13885,387.95201 L 304.16595,388.04725 L 304.19692,388.14056 L 304.23176,388.23154 L 304.27435,388.31981 L 304.31694,388.40537 L 304.36727,388.48861 L 304.4176,388.56875 L 304.4718,388.6458 L 304.53375,388.72013 L 304.59569,388.79137 L 304.66151,388.85912 L 304.7312,388.92378 L 304.80089,388.98495 L 304.87832,389.04263 L 304.95575,389.09684 L 305.03705,389.14717 L 305.12223,389.19363 L 305.2074,389.23583 L 305.29645,389.27454 L 305.3855,389.309 L 305.47841,389.33881 L 305.5752,389.36475 L 305.67199,389.38604 L 305.76878,389.40269 L 305.86944,389.41469 L 305.97011,389.42205 L 306.07464,389.42437 C 307.16255,389.42437 308.01043,388.54746 308.01043,387.44328 C 308.01043,386.36969 307.13158,385.49239 306.07464,385.49239 C 304.99834,385.49239 304.0769,386.36969 304.0769,387.44328 z" />
    <path
       style="font-style:normal;font-variant:normal;font-weight:normal;font-stretch:normal;letter-spacing:normal;word-spacing:normal;text-anchor:start;fill:#000000;fill-opacity:1;stroke:#000000;stroke-width:0;stroke-linecap:butt;stroke-linejoin:miter;stroke-miterlimit:10.43299961;stroke-dasharray:none;stroke-dashoffset:0;stroke-opacity:1"
       id="path2476"
       d="M 299.29937,400.85793 L 299.48133,400.52536 L 299.6633,400.20247 L 299.83752,399.88926 L 300.01174,399.58573 L 300.17822,399.29265 L 300.3447,399.00886 L 300.50343,398.73553 L 300.66216,398.47226 L 300.81316,398.21867 L 300.96415,397.97554 L 301.11127,397.74247 L 301.25452,397.51985 L 301.39777,397.30769 L 301.53327,397.10559 L 301.67265,396.91395 L 301.80428,396.73276 L 301.93592,396.56241 L 302.06368,396.40251 L 302.19144,396.25307 L 302.3192,396.11447 L 302.44309,395.98671 L 302.56698,395.86978 L 302.687,395.7637 L 302.80702,395.66846 L 302.92704,395.58445 L 303.04319,395.51128 L 303.16321,395.44933 L 303.27936,395.39823 L 303.3955,395.35874 L 303.51165,395.33047 L 303.6278,395.31305 L 303.74395,395.30763 C 304.37889,395.30763 304.81637,395.77648 304.81637,396.593 C 304.81637,397.72737 304.0769,399.19431 303.19805,401.2509 C 301.50617,405.25876 300.47633,408.20775 300.47633,410.29492 C 300.47633,412.60858 301.62619,413.89394 303.45745,413.89394 C 305.74168,413.89394 307.38711,411.65578 309.80685,407.36103 L 308.59891,406.58943 C 306.46567,410.18884 305.30032,412.16993 303.89494,412.16993 C 303.30646,412.16993 302.8651,411.76186 302.8651,411.03594 C 302.8651,409.59919 303.89494,407.46673 305.22676,404.41166 C 306.4347,401.65935 307.23611,399.31511 307.23611,397.03165 C 307.23611,394.86898 306.13271,393.71951 304.25887,393.71951 C 301.80815,393.71951 300.40277,395.97277 298.014,400.04103 L 299.29937,400.85793 z" />
    <path
       style="font-style:normal;font-variant:normal;font-weight:normal;font-stretch:normal;letter-spacing:normal;word-spacing:normal;text-anchor:start;fill:#000000;fill-opacity:1;stroke:#000000;stroke-width:0;stroke-linecap:butt;stroke-linejoin:miter;stroke-miterlimit:10.43299961;stroke-dasharray:none;stroke-dashoffset:0;stroke-opacity:1"
       d="M 324.40625,393.71875 C 322.24203,393.71875 319.86859,394.71941 317.84375,396.625 C 315.12202,399.16592 313.5625,402.69483 313.5625,406.21875 C 313.56249,410.96726 316.23739,413.9375 320.5,413.9375 C 323.40368,413.93749 325.55952,412.35954 327.84375,409.0625 L 326.75,408.28125 C 324.63225,411.06416 323.13351,412.34375 320.59375,412.34375 C 318.09658,412.34375 316.90625,410.43198 316.90625,406.5 C 316.90625,406.31843 316.90625,406.16503 316.90625,405.96875 L 317.65625,405.8125 L 318.34375,405.65625 L 319.03125,405.5 L 319.6875,405.3125 L 320.3125,405.15625 L 320.9375,404.96875 L 321.53125,404.75 L 322.09375,404.5625 L 322.65625,404.34375 L 323.15625,404.125 L 323.65625,403.875 L 324.15625,403.65625 L 324.59375,403.40625 L 325.03125,403.15625 L 325.4375,402.875 L 325.8125,402.625 L 326.1875,402.34375 L 326.53125,402.0625 L 326.84375,401.78125 L 327.125,401.46875 L 327.40625,401.1875 L 327.65625,400.875 L 327.875,400.5625 L 328.0625,400.25 L 328.25,399.9375 L 328.40625,399.59375 L 328.53125,399.28125 L 328.65625,398.9375 L 328.71875,398.59375 L 328.78125,398.25 L 328.8125,397.90625 L 328.84375,397.53125 C 328.84374,395.21722 327.15895,393.71875 324.40625,393.71875 z M 323.0625,395.0625 L 323.3125,395.0625 C 324.64046,395.06249 325.46875,396.00114 325.46875,397.4375 C 325.46876,400.37179 322.50456,403.59671 316.90625,404.625 L 317.03125,404.0625 L 317.1875,403.5 L 317.3125,402.9375 L 317.46875,402.40625 L 317.625,401.90625 L 317.78125,401.40625 L 317.9375,400.9375 L 318.125,400.46875 L 318.28125,400.03125 L 318.46875,399.625 L 318.65625,399.21875 L 318.84375,398.8125 L 319.03125,398.46875 L 319.21875,398.125 L 319.4375,397.78125 L 319.625,397.46875 L 319.84375,397.1875 L 320.0625,396.90625 L 320.28125,396.65625 L 320.5,396.40625 L 320.71875,396.1875 L 320.9375,396 L 321.1875,395.8125 L 321.40625,395.65625 L 321.625,395.53125 L 321.875,395.40625 L 322.09375,395.28125 L 322.34375,395.1875 L 322.59375,395.125 L 322.8125,395.09375 L 323.0625,395.0625 z"
       id="path2478" />
    <path
       style="font-style:normal;font-variant:normal;font-weight:normal;font-stretch:normal;letter-spacing:normal;word-spacing:normal;text-anchor:start;fill:#000000;fill-opacity:1;stroke:#000000;stroke-width:0;stroke-linecap:butt;stroke-linejoin:miter;stroke-miterlimit:10.43299961;stroke-dasharray:none;stroke-dashoffset:0;stroke-opacity:1"
       id="path2482"
       d="M 336.15297,413.3798 L 339.13409,413.3798 L 340.05553,408.97897 C 340.64401,406.15077 342.18877,402.1735 344.24458,398.93724 C 345.81644,396.44162 347.2257,395.20155 348.64657,395.20155 C 349.79643,395.20155 350.48945,395.82178 350.48945,397.00145 C 350.48945,398.49859 349.53704,400.55518 348.58463,403.53475 C 347.76772,406.02998 347.36121,408.08657 347.36121,409.62939 C 347.36121,412.13973 348.46461,413.45568 350.33845,413.45568 C 352.4717,413.45568 354.19455,411.32321 356.29682,407.05827 L 354.96887,406.51393 C 353.24214,410.00726 352.00323,411.76186 350.85337,411.76186 C 350.26489,411.76186 349.82353,411.35341 349.82353,410.62749 C 349.82353,409.78077 350.26489,408.23795 351.00437,405.99978 C 352.03421,402.86922 352.87821,400.2679 352.87821,397.90856 C 352.87821,395.33783 351.33732,393.7648 348.94856,393.7648 C 346.04487,393.7648 343.72966,396.36612 341.29443,401.65935 L 341.00794,401.58385 L 341.00794,401.55366 C 341.00794,401.1452 341.41833,399.70846 341.41833,397.36422 C 341.41833,395.00487 340.49302,393.795 338.7237,393.795 C 336.56336,393.795 335.09603,396.07885 333.11378,400.55518 L 334.39914,401.2207 C 336.07941,397.4703 337.18281,395.48882 338.28621,395.48882 C 338.87469,395.48882 339.20765,396.00335 339.20765,396.95576 C 339.20765,398.57409 338.87469,400.37399 338.43721,402.47587 L 336.15297,413.3798 z" />
    <path
       style="font-style:normal;font-variant:normal;font-weight:normal;font-stretch:normal;letter-spacing:normal;word-spacing:normal;text-anchor:start;fill:#000000;fill-opacity:1;stroke:#000000;stroke-width:0;stroke-linecap:butt;stroke-linejoin:miter;stroke-miterlimit:10.43299961;stroke-dasharray:none;stroke-dashoffset:0;stroke-opacity:1"
       id="path2484"
       d="M 375.05077,408.54032 L 373.99383,407.7238 C 371.93415,410.80906 370.3468,412.3968 368.18645,412.3968 C 365.72026,412.3968 364.35746,410.52179 364.35746,406.95258 C 364.35746,404.38146 365.1279,401.32678 366.61072,398.61938 C 367.8535,396.26043 369.10789,395.26233 371.09014,395.26233 C 372.34454,395.26233 372.99496,395.74628 372.99496,396.18454 C 372.99496,396.80477 371.39213,397.51559 371.39213,398.93724 C 371.39213,400.16221 372.19354,400.88813 373.55247,400.88813 C 375.05077,400.88813 376.0961,399.64806 376.0961,397.95425 C 376.0961,395.5949 373.9164,393.7648 370.98174,393.7648 C 368.80591,393.7648 366.53716,394.86898 364.55491,396.95576 C 362.11968,399.52688 360.80334,402.76314 360.80334,406.10548 C 360.80334,411.03594 363.63347,413.96983 367.74509,413.96983 C 370.79977,413.96983 372.96399,412.21561 375.05077,408.54032 z" />
    <path
       style="font-style:normal;font-variant:normal;font-weight:normal;font-stretch:normal;letter-spacing:normal;word-spacing:normal;text-anchor:start;fill:#000000;fill-opacity:1;stroke:#000000;stroke-width:0;stroke-linecap:butt;stroke-linejoin:miter;stroke-miterlimit:10.43299961;stroke-dasharray:none;stroke-dashoffset:0;stroke-opacity:1"
       d="M 391.96875,393.71875 C 389.80842,393.71875 387.43109,394.71941 385.40625,396.625 C 382.70003,399.16592 381.15625,402.69483 381.15625,406.21875 C 381.15624,410.96726 383.76863,413.9375 388.03125,413.9375 C 390.93492,413.93749 393.1375,412.35954 395.40625,409.0625 L 394.34375,408.28125 C 392.21437,411.06416 390.68052,412.34375 388.15625,412.34375 C 385.6436,412.34375 384.5,410.43198 384.5,406.5 C 384.50001,406.31843 384.5,406.16503 384.5,405.96875 L 385.21875,405.8125 L 385.90625,405.65625 L 386.59375,405.5 L 387.25,405.3125 L 387.90625,405.15625 L 388.5,404.96875 L 389.09375,404.75 L 389.65625,404.5625 L 390.21875,404.34375 L 390.75,404.125 L 391.21875,403.875 L 391.71875,403.65625 L 392.15625,403.40625 L 392.59375,403.15625 L 393,402.875 L 393.375,402.625 L 393.75,402.34375 L 394.09375,402.0625 L 394.40625,401.78125 L 394.6875,401.46875 L 394.96875,401.1875 L 395.21875,400.875 L 395.4375,400.5625 L 395.625,400.25 L 395.8125,399.9375 L 395.96875,399.59375 L 396.09375,399.28125 L 396.1875,398.9375 L 396.28125,398.59375 L 396.34375,398.25 L 396.375,397.90625 L 396.40625,397.53125 C 396.40626,395.21722 394.73694,393.71875 391.96875,393.71875 z M 390.625,395.0625 L 390.875,395.0625 C 392.20683,395.06249 393.03125,396.00114 393.03125,397.4375 C 393.03124,400.37179 390.08282,403.59671 384.5,404.625 L 384.625,404.0625 L 384.75,403.5 L 384.875,402.9375 L 385.03125,402.40625 L 385.1875,401.90625 L 385.34375,401.40625 L 385.5,400.9375 L 385.6875,400.46875 L 385.84375,400.03125 L 386.03125,399.625 L 386.21875,399.21875 L 386.40625,398.8125 L 386.59375,398.46875 L 386.78125,398.125 L 387,397.78125 L 387.1875,397.46875 L 387.40625,397.1875 L 387.625,396.90625 L 387.84375,396.65625 L 388.0625,396.40625 L 388.28125,396.1875 L 388.5,396 L 388.71875,395.8125 L 388.96875,395.65625 L 389.1875,395.53125 L 389.4375,395.40625 L 389.65625,395.28125 L 389.90625,395.1875 L 390.15625,395.125 L 390.375,395.09375 L 390.625,395.0625 z"
       id="path2486" />
    <path
       style="font-style:normal;font-variant:normal;font-weight:normal;font-stretch:normal;letter-spacing:normal;word-spacing:normal;text-anchor:start;fill:#000000;fill-opacity:1;stroke:#000000;stroke-width:0;stroke-linecap:butt;stroke-linejoin:miter;stroke-miterlimit:10.43299961;stroke-dasharray:none;stroke-dashoffset:0;stroke-opacity:1"
       d="M 423.8125,393.71875 C 418.62456,393.71875 414.1875,399.51992 414.1875,406.71875 C 414.18749,411.31625 416.34578,413.875 420.0625,413.875 C 422.30803,413.875 424.07029,412.76942 425.8125,410.53125 L 426.1875,410.6875 L 426.1875,410.90625 L 426.21875,411.09375 L 426.25,411.25 L 426.25,411.4375 L 426.28125,411.59375 L 426.34375,411.78125 L 426.40625,411.9375 L 426.4375,412.09375 L 426.5,412.21875 L 426.5625,412.375 L 426.59375,412.5 L 426.6875,412.625 L 426.75,412.75 L 426.84375,412.875 L 426.875,412.96875 L 426.9375,413.09375 L 427.0625,413.1875 L 427.15625,413.28125 L 427.21875,413.34375 L 427.3125,413.4375 L 427.40625,413.5 L 427.5,413.5625 L 427.59375,413.625 L 427.71875,413.6875 L 427.8125,413.75 L 427.90625,413.78125 L 428.03125,413.8125 L 428.15625,413.84375 L 428.28125,413.875 L 428.375,413.875 L 428.5,413.90625 L 428.625,413.90625 C 431.1028,413.90624 432.3991,411.76283 434.21875,407.4375 L 432.875,407.03125 C 431.32638,410.37358 430.39654,412.09375 429.3125,412.09375 C 428.77045,412.09376 428.34375,411.67642 428.34375,410.875 C 428.34376,410.51224 428.43142,409.92747 428.625,409.15625 L 431.875,394.3125 L 429.09375,394.3125 L 428.40625,397.03125 L 428.125,397.03125 C 427.4281,394.89878 425.82572,393.71875 423.8125,393.71875 z M 424,395.0625 L 424.15625,395.0625 L 424.34375,395.0625 L 424.5,395.09375 L 424.65625,395.125 L 424.84375,395.15625 L 425,395.21875 L 425.125,395.25 L 425.28125,395.34375 L 425.4375,395.40625 L 425.5625,395.5 L 425.71875,395.5625 L 425.8125,395.6875 L 425.9375,395.78125 L 426.0625,395.90625 L 426.125,396.03125 L 426.25,396.15625 L 426.34375,396.3125 L 426.4375,396.4375 L 426.53125,396.59375 L 426.59375,396.78125 L 426.6875,396.9375 L 426.71875,397.125 L 426.78125,397.3125 L 426.84375,397.53125 L 426.875,397.71875 L 426.9375,397.9375 L 426.9375,398.1875 L 427,398.40625 L 427.03125,398.65625 L 427.03125,398.90625 L 427.03125,399.15625 L 427.0625,399.40625 C 427.06251,402.20384 426.30002,405.89753 424.90625,408.9375 C 423.82222,411.29686 422.45349,412.46875 420.75,412.46875 C 418.8142,412.46874 417.59375,410.98826 417.59375,408.28125 C 417.59376,405.1205 418.51995,401.12875 419.875,398.40625 C 420.99776,396.19827 422.37393,395.0625 424,395.0625 z"
       id="path2490" />
    <path
       style="font-style:normal;font-variant:normal;font-weight:normal;font-stretch:normal;letter-spacing:normal;word-spacing:normal;text-anchor:start;fill:#000000;fill-opacity:1;stroke:#000000;stroke-width:0;stroke-linecap:butt;stroke-linejoin:miter;stroke-miterlimit:10.43299961;stroke-dasharray:none;stroke-dashoffset:0;stroke-opacity:1"
       id="path2494"
       d="M 440.53861,413.3798 L 443.51973,413.3798 L 444.44891,408.97897 C 445.02965,406.15077 446.57828,402.1735 448.63022,398.93724 C 450.21757,396.44162 451.61134,395.20155 453.04382,395.20155 C 454.16658,395.20155 454.86347,395.82178 454.86347,397.00145 C 454.86347,398.49859 453.93429,400.55518 452.96639,403.53475 C 452.15336,406.02998 451.72749,408.08657 451.72749,409.62939 C 451.72749,412.13973 452.85024,413.45568 454.7086,413.45568 C 456.83798,413.45568 458.58019,411.32321 460.67084,407.05827 L 459.35451,406.51393 C 457.61229,410.00726 456.37339,411.76186 455.25063,411.76186 C 454.63117,411.76186 454.2053,411.35341 454.2053,410.62749 C 454.2053,409.78077 454.63117,408.23795 455.40549,405.99978 C 456.4121,402.86922 457.26385,400.2679 457.26385,397.90856 C 457.26385,395.33783 455.71522,393.7648 453.31483,393.7648 C 450.41115,393.7648 448.12691,396.36612 445.68781,401.65935 L 445.37809,401.58385 L 445.37809,401.55366 C 445.37809,401.1452 445.80396,399.70846 445.80396,397.36422 C 445.80396,395.00487 444.87478,393.795 443.09385,393.795 C 440.92577,393.795 439.49328,396.07885 437.48006,400.55518 L 438.7964,401.2207 C 440.46118,397.4703 441.58394,395.48882 442.66798,395.48882 C 443.24872,395.48882 443.59716,396.00335 443.59716,396.95576 C 443.59716,398.57409 443.24872,400.37399 442.82284,402.47587 L 440.53861,413.3798 z" />
    <path
       style="font-style:normal;font-variant:normal;font-weight:normal;font-stretch:normal;letter-spacing:normal;word-spacing:normal;text-anchor:start;fill:#000000;fill-opacity:1;stroke:#000000;stroke-width:0;stroke-linecap:butt;stroke-linejoin:miter;stroke-miterlimit:10.43299961;stroke-dasharray:none;stroke-dashoffset:0;stroke-opacity:1"
       d="M 484.0625,385.53125 C 481.70083,385.81852 479.40924,386 477.125,386 C 476.89272,386.00001 476.7323,386 476.5,386 L 476.6875,387.375 C 477.03595,387.37499 477.38523,387.375 477.65625,387.375 C 479.63074,387.37499 480.5625,387.53039 480.5625,388.4375 C 480.56251,388.51339 480.58489,388.89316 480.46875,389.4375 L 479.21875,396.59375 L 478.875,396.59375 C 477.90711,394.71836 476.40315,393.78125 474.3125,393.78125 C 469.78273,393.78124 465.1875,399.07832 465.1875,405.6875 C 465.18751,410.72326 467.94699,413.9375 471.625,413.9375 C 473.98665,413.93749 475.91873,412.58412 477.3125,409.9375 L 477.59375,410.1875 C 477.59375,410.33888 477.59375,410.47362 477.59375,410.625 C 477.59375,412.83295 478.36039,413.90625 480.21875,413.90625 C 482.42554,413.90624 484.06282,411.64596 485.84375,407.09375 L 484.5625,406.625 C 482.93645,410.2244 481.95765,412.09375 480.71875,412.09375 C 480.09929,412.09376 479.75,411.67642 479.75,410.875 C 479.75,410.20948 479.86146,409.27132 480.09375,408.03125 L 484.0625,385.53125 z M 474.40625,395.25 C 476.72919,395.25 477.90625,397.03792 477.90625,400.53125 C 477.90626,407.54848 475.44709,412.125 472.15625,412.125 L 471.9375,412.125 L 471.75,412.125 L 471.5625,412.09375 L 471.34375,412.0625 L 471.15625,412 L 471,411.96875 L 470.8125,411.875 L 470.65625,411.8125 L 470.5,411.71875 L 470.34375,411.625 L 470.21875,411.53125 L 470.09375,411.40625 L 469.96875,411.28125 L 469.8125,411.125 L 469.6875,411 L 469.625,410.84375 L 469.5,410.65625 L 469.375,410.46875 L 469.3125,410.28125 L 469.21875,410.09375 L 469.15625,409.875 L 469.0625,409.65625 L 469,409.4375 L 468.96875,409.1875 L 468.90625,408.9375 L 468.875,408.65625 L 468.84375,408.40625 L 468.8125,408.125 L 468.75,407.8125 L 468.75,407.53125 L 468.71875,407.1875 L 468.71875,406.875 C 468.71874,399.90306 471.1154,395.25 474.40625,395.25 z"
       id="path2498" />
    <path
       style="font-style:normal;font-variant:normal;font-weight:normal;font-stretch:normal;letter-spacing:normal;word-spacing:normal;text-anchor:start;fill:#000000;fill-opacity:1;stroke:#000000;stroke-width:0;stroke-linecap:butt;stroke-linejoin:miter;stroke-miterlimit:10.43299961;stroke-dasharray:none;stroke-dashoffset:0;stroke-opacity:1"
       id="path2500"
       d="M 504.11001,413.3798 L 516.88624,413.3798 L 517.11853,411.94305 C 513.8664,411.88265 512.6275,411.68598 512.6275,410.03784 C 512.6275,409.85627 512.70493,409.52331 512.74364,409.00917 L 516.34422,388.2145 C 516.46036,388.2145 516.46036,388.2145 516.53779,388.2145 C 521.72572,388.2145 522.96462,389.75733 522.96462,395.15625 C 522.96462,395.38313 522.96462,395.6402 522.96462,395.89727 L 524.6294,395.89727 L 525.79088,386.67206 L 503.64542,386.67206 L 501.74835,395.51941 L 503.45184,395.51941 C 505.23277,390.16539 507.32343,388.2145 512.43392,388.2145 C 512.55006,388.2145 512.6275,388.2145 512.70493,388.2145 L 509.18179,408.90347 C 508.79463,411.39871 508.25261,411.94305 505.00048,411.94305 C 504.8069,411.94305 504.5746,411.94305 504.34231,411.94305 L 504.11001,413.3798 z" />
    <path
       style="font-style:normal;font-variant:normal;font-weight:normal;font-stretch:normal;letter-spacing:normal;word-spacing:normal;text-anchor:start;fill:#000000;fill-opacity:1;stroke:#000000;stroke-width:0;stroke-linecap:butt;stroke-linejoin:miter;stroke-miterlimit:10.43299961;stroke-dasharray:none;stroke-dashoffset:0;stroke-opacity:1"
       d="M 537.1875,393.71875 C 535.01941,393.71875 532.60698,394.71941 530.59375,396.625 C 527.88367,399.16592 526.34375,402.69483 526.34375,406.21875 C 526.34376,410.96726 528.96001,413.9375 533.21875,413.9375 C 536.12246,413.93749 538.30951,412.35954 540.59375,409.0625 L 539.5,408.28125 C 537.37063,411.06416 535.86028,412.34375 533.34375,412.34375 C 530.82724,412.34375 529.65625,410.43198 529.65625,406.5 C 529.65623,406.31843 529.65625,406.16503 529.65625,405.96875 L 530.40625,405.8125 L 531.09375,405.65625 L 531.78125,405.5 L 532.4375,405.3125 L 533.0625,405.15625 L 533.6875,404.96875 L 534.28125,404.75 L 534.84375,404.5625 L 535.40625,404.34375 L 535.9375,404.125 L 536.40625,403.875 L 536.90625,403.65625 L 537.375,403.40625 L 537.78125,403.15625 L 538.1875,402.875 L 538.5625,402.625 L 538.96875,402.34375 L 539.25,402.0625 L 539.5625,401.78125 L 539.875,401.46875 L 540.15625,401.1875 L 540.375,400.875 L 540.625,400.5625 L 540.8125,400.25 L 541,399.9375 L 541.15625,399.59375 L 541.28125,399.28125 L 541.40625,398.9375 L 541.46875,398.59375 L 541.5,398.25 L 541.5625,397.90625 L 541.59375,397.53125 C 541.59378,395.21722 539.93632,393.71875 537.1875,393.71875 z M 535.8125,395.0625 L 536.0625,395.0625 C 537.37881,395.06249 538.21875,396.00114 538.21875,397.4375 C 538.21872,400.37179 535.23133,403.59671 529.65625,404.625 L 529.78125,404.0625 L 529.9375,403.5 L 530.09375,402.9375 L 530.21875,402.40625 L 530.375,401.90625 L 530.5,401.40625 L 530.71875,400.9375 L 530.875,400.46875 L 531.03125,400.03125 L 531.21875,399.625 L 531.40625,399.21875 L 531.59375,398.8125 L 531.78125,398.46875 L 532,398.125 L 532.1875,397.78125 L 532.375,397.46875 L 532.59375,397.1875 L 532.8125,396.90625 L 533.03125,396.65625 L 533.21875,396.40625 L 533.46875,396.1875 L 533.6875,396 L 533.90625,395.8125 L 534.15625,395.65625 L 534.375,395.53125 L 534.625,395.40625 L 534.84375,395.28125 L 535.09375,395.1875 L 535.3125,395.125 L 535.59375,395.09375 L 535.8125,395.0625 z"
       id="path2502" />
    <path
       style="font-style:normal;font-variant:normal;font-weight:normal;font-stretch:normal;letter-spacing:normal;word-spacing:normal;text-anchor:start;fill:#000000;fill-opacity:1;stroke:#000000;stroke-width:0;stroke-linecap:butt;stroke-linejoin:miter;stroke-miterlimit:10.43299961;stroke-dasharray:none;stroke-dashoffset:0;stroke-opacity:1"
       id="path2506"
       d="M 561.25459,408.54032 L 560.17054,407.7238 C 558.1186,410.80906 556.53125,412.3968 554.40188,412.3968 C 551.92407,412.3968 550.56901,410.52179 550.56901,406.95258 C 550.56901,404.38146 551.34333,401.32678 552.81453,398.61938 C 554.05344,396.26043 555.29235,395.26233 557.26685,395.26233 C 558.54448,395.26233 559.20265,395.74628 559.20265,396.18454 C 559.20265,396.80477 557.57658,397.51559 557.57658,398.93724 C 557.57658,400.16221 558.38961,400.88813 559.74467,400.88813 C 561.25459,400.88813 562.2612,399.64806 562.2612,397.95425 C 562.2612,395.5949 560.13183,393.7648 557.15071,393.7648 C 554.98262,393.7648 552.7371,394.86898 550.72388,396.95576 C 548.3235,399.52688 547.00716,402.76314 547.00716,406.10548 C 547.00716,411.03594 549.83341,413.96983 553.93729,413.96983 C 556.99584,413.96983 559.16393,412.21561 561.25459,408.54032 z" />
    <path
       style="font-style:normal;font-variant:normal;font-weight:normal;font-stretch:normal;letter-spacing:normal;word-spacing:normal;text-anchor:start;fill:#000000;fill-opacity:1;stroke:#000000;stroke-width:0;stroke-linecap:butt;stroke-linejoin:miter;stroke-miterlimit:10.43299961;stroke-dasharray:none;stroke-dashoffset:0;stroke-opacity:1"
       id="path2508"
       d="M 567.79756,413.3798 L 570.77868,413.3798 L 571.70786,409.05446 C 572.24988,406.36255 573.7598,402.55175 575.88917,399.19431 C 577.4378,396.77457 578.94772,395.5647 580.45764,395.5647 C 581.54168,395.5647 582.12242,396.15435 582.12242,397.31892 C 582.12242,398.68017 581.27067,400.70655 580.26406,403.71594 C 579.41231,406.25686 579.06387,408.28324 579.06387,409.70489 C 579.06387,412.16993 580.14791,413.48588 582.04499,413.48588 C 584.25179,413.48588 586.03272,411.4289 588.12338,407.28515 L 586.92318,406.58943 C 584.94868,410.00726 583.70977,411.80716 582.50958,411.80716 C 581.92884,411.80716 581.46425,411.39871 581.46425,410.65769 C 581.46425,409.82607 581.96756,408.34403 582.70316,406.15077 C 583.70977,403.0659 584.56152,400.47968 584.56152,398.21132 C 584.56152,395.6704 583.01289,394.12796 580.68994,394.12796 C 577.82496,394.12796 575.54073,396.74438 572.94677,401.91642 L 572.63704,401.81073 L 576.1989,385.53769 C 573.56622,386.11262 571.74658,386.15792 570.70125,386.15792 C 570.5851,386.15792 570.46895,386.15792 570.39152,386.15792 C 570.27538,386.15792 569.96565,386.15792 569.57849,386.15792 C 569.3462,386.15792 569.1139,386.15792 568.80417,386.15792 L 568.57188,387.44328 C 571.20456,387.59466 572.32731,387.73055 572.32731,388.91023 C 572.32731,389.01631 572.2886,389.31868 572.21117,389.72713 L 567.79756,413.3798 z" />
    <path
       style="font-style:normal;font-variant:normal;font-weight:normal;font-stretch:normal;letter-spacing:normal;word-spacing:normal;text-anchor:start;fill:#000000;fill-opacity:1;stroke:#000000;stroke-width:0;stroke-linecap:butt;stroke-linejoin:miter;stroke-miterlimit:10.43299961;stroke-dasharray:none;stroke-dashoffset:0;stroke-opacity:1"
       id="path2510"
       d="M 594.08561,413.3798 L 597.02802,413.3798 L 597.9572,408.97897 C 598.53794,406.15077 600.08657,402.1735 602.17722,398.93724 C 603.72586,396.44162 605.11963,395.20155 606.59083,395.20155 C 607.71359,395.20155 608.41047,395.82178 608.41047,397.00145 C 608.41047,398.49859 607.44258,400.55518 606.5134,403.53475 C 605.70037,406.02998 605.27449,408.08657 605.27449,409.62939 C 605.27449,412.13973 606.39725,413.45568 608.25561,413.45568 C 610.38498,413.45568 612.08848,411.32321 614.21785,407.05827 L 612.90151,406.51393 C 611.1593,410.00726 609.92039,411.76186 608.75892,411.76186 C 608.17818,411.76186 607.7523,411.35341 607.7523,410.62749 C 607.7523,409.78077 608.17818,408.23795 608.91378,405.99978 C 609.95911,402.86922 610.81086,400.2679 610.81086,397.90856 C 610.81086,395.33783 609.26222,393.7648 606.86184,393.7648 C 603.95815,393.7648 601.6352,396.36612 599.23482,401.65935 L 598.92509,401.58385 L 598.92509,401.55366 C 598.92509,401.1452 599.31225,399.70846 599.31225,397.36422 C 599.31225,395.00487 598.42179,393.795 596.64086,393.795 C 594.47277,393.795 593.00157,396.07885 591.02706,400.55518 L 592.30469,401.2207 C 594.00818,397.4703 595.09223,395.48882 596.21499,395.48882 C 596.79572,395.48882 597.10545,396.00335 597.10545,396.95576 C 597.10545,398.57409 596.79572,400.37399 596.36985,402.47587 L 594.08561,413.3798 z" />
    <path
       style="font-style:normal;font-variant:normal;font-weight:normal;font-stretch:normal;letter-spacing:normal;word-spacing:normal;text-anchor:start;fill:#000000;fill-opacity:1;stroke:#000000;stroke-width:0;stroke-linecap:butt;stroke-linejoin:miter;stroke-miterlimit:10.43299961;stroke-dasharray:none;stroke-dashoffset:0;stroke-opacity:1"
       d="M 628.5,393.71875 C 623.27338,393.71875 618.625,398.65354 618.625,405.15625 L 618.65625,405.65625 L 618.65625,406.125 L 618.71875,406.59375 L 618.78125,407.0625 L 618.8125,407.5 L 618.9375,407.9375 L 619.03125,408.34375 L 619.125,408.75 L 619.28125,409.15625 L 619.40625,409.53125 L 619.59375,409.90625 L 619.75,410.25 L 619.9375,410.59375 L 620.15625,410.90625 L 620.375,411.21875 L 620.5625,411.53125 L 620.84375,411.8125 L 621.0625,412.0625 L 621.34375,412.3125 L 621.625,412.53125 L 621.875,412.75 L 622.1875,412.9375 L 622.5,413.125 L 622.8125,413.28125 L 623.15625,413.40625 L 623.5,413.53125 L 623.84375,413.65625 L 624.21875,413.75 L 624.59375,413.8125 L 624.96875,413.84375 L 625.375,413.875 L 625.75,413.90625 C 631.01533,413.90624 635.75,409.01992 635.75,402.5625 C 635.75001,397.11788 632.83618,393.71875 628.5,393.71875 z M 628.46875,395.125 L 628.6875,395.125 L 628.9375,395.15625 L 629.15625,395.1875 L 629.34375,395.21875 L 629.59375,395.25 L 629.78125,395.3125 L 629.96875,395.375 L 630.15625,395.46875 L 630.3125,395.5625 L 630.53125,395.65625 L 630.6875,395.75 L 630.8125,395.875 L 630.96875,396.03125 L 631.125,396.15625 L 631.25,396.3125 L 631.375,396.46875 L 631.5,396.65625 L 631.59375,396.84375 L 631.71875,397.03125 L 631.78125,397.25 L 631.875,397.4375 L 631.9375,397.6875 L 632.03125,397.90625 L 632.09375,398.15625 L 632.15625,398.40625 L 632.21875,398.6875 L 632.25,398.96875 L 632.3125,399.25 L 632.3125,399.5625 L 632.34375,399.875 L 632.34375,400.1875 L 632.34375,400.53125 C 632.34376,407.57868 629.73165,412.5 625.9375,412.5 C 623.30484,412.50001 622,410.66192 622,407.0625 C 621.99997,399.86369 624.75203,395.125 628.46875,395.125 z"
       id="path2512" />
    <path
       style="font-style:normal;font-variant:normal;font-weight:normal;font-stretch:normal;letter-spacing:normal;word-spacing:normal;text-anchor:start;fill:#000000;fill-opacity:1;stroke:#000000;stroke-width:0;stroke-linecap:butt;stroke-linejoin:miter;stroke-miterlimit:10.43299961;stroke-dasharray:none;stroke-dashoffset:0;stroke-opacity:1"
       id="path2516"
       d="M 650.14614,406.61962 L 649.95257,406.95916 L 649.7977,407.28825 L 649.60412,407.60688 L 649.41054,407.91544 L 649.25568,408.21317 L 649.10082,408.50083 L 648.94595,408.77803 L 648.75237,409.0444 L 648.59751,409.3007 L 648.44265,409.54615 L 648.3265,409.78077 L 648.17164,410.00532 L 648.01677,410.21903 L 647.90063,410.42191 L 647.74576,410.61432 L 647.62962,410.7959 L 647.47475,410.96664 L 647.3586,411.12653 L 647.20374,411.27559 L 647.08759,411.41381 L 646.97145,411.54118 L 646.8553,411.65772 L 646.70044,411.76341 L 646.58429,411.85788 L 646.46814,411.9415 L 646.35199,412.0139 L 646.23585,412.07546 L 646.1197,412.12579 L 645.96483,412.16489 L 645.84869,412.19316 L 645.73254,412.2098 L 645.61639,412.21561 C 644.91951,412.21561 644.45492,411.73166 644.45492,410.80906 C 644.45492,410.62749 644.53235,410.08314 644.72593,409.26624 L 649.91385,385.49239 C 646.97145,386.15792 645.11309,386.15792 644.10647,386.15792 C 643.9129,386.15792 643.44831,386.15792 642.55784,386.11262 L 642.28683,387.39799 C 644.95822,387.54936 646.04227,387.65506 646.04227,388.91023 C 646.04227,389.0616 646.00355,389.31868 645.92612,389.68145 L 641.86096,408.38932 C 641.66738,409.19074 641.62866,409.88647 641.62866,410.44591 C 641.62866,412.60858 642.86757,413.93963 644.95822,413.93963 C 647.3586,413.93963 649.10082,411.68598 651.42377,407.28515 L 650.14614,406.61962 z" />
    <path
       style="font-style:normal;font-variant:normal;font-weight:normal;font-stretch:normal;letter-spacing:normal;word-spacing:normal;text-anchor:start;fill:#000000;fill-opacity:1;stroke:#000000;stroke-width:0;stroke-linecap:butt;stroke-linejoin:miter;stroke-miterlimit:10.43299961;stroke-dasharray:none;stroke-dashoffset:0;stroke-opacity:1"
       d="M 665.4375,393.71875 C 660.21086,393.71875 655.59375,398.65354 655.59375,405.15625 L 655.59375,405.65625 L 655.59375,406.125 L 655.65625,406.59375 L 655.71875,407.0625 L 655.8125,407.5 L 655.875,407.9375 L 656,408.34375 L 656.09375,408.75 L 656.21875,409.15625 L 656.375,409.53125 L 656.53125,409.90625 L 656.6875,410.25 L 656.875,410.59375 L 657.0625,410.90625 L 657.3125,411.21875 L 657.53125,411.53125 L 657.78125,411.8125 L 658,412.0625 L 658.28125,412.3125 L 658.5625,412.53125 L 658.84375,412.75 L 659.15625,412.9375 L 659.46875,413.125 L 659.78125,413.28125 L 660.09375,413.40625 L 660.4375,413.53125 L 660.78125,413.65625 L 661.1875,413.75 L 661.5625,413.8125 L 661.90625,413.84375 L 662.34375,413.875 L 662.71875,413.90625 C 667.98414,413.90624 672.6875,409.01992 672.6875,402.5625 C 672.68749,397.11788 669.81239,393.71875 665.4375,393.71875 z M 665.40625,395.125 L 665.625,395.125 L 665.875,395.15625 L 666.09375,395.1875 L 666.34375,395.21875 L 666.53125,395.25 L 666.75,395.3125 L 666.9375,395.375 L 667.09375,395.46875 L 667.3125,395.5625 L 667.4375,395.65625 L 667.65625,395.75 L 667.8125,395.875 L 667.96875,396.03125 L 668.0625,396.15625 L 668.21875,396.3125 L 668.34375,396.46875 L 668.46875,396.65625 L 668.5625,396.84375 L 668.65625,397.03125 L 668.78125,397.25 L 668.84375,397.4375 L 668.9375,397.6875 L 669,397.90625 L 669.09375,398.15625 L 669.125,398.40625 L 669.15625,398.6875 L 669.1875,398.96875 L 669.21875,399.25 L 669.28125,399.5625 L 669.3125,399.875 L 669.3125,400.1875 L 669.3125,400.53125 C 669.31249,407.57868 666.69294,412.5 662.9375,412.5 C 660.26612,412.50001 658.96875,410.66192 658.96875,407.0625 C 658.96872,399.86369 661.68953,395.125 665.40625,395.125 z"
       id="path2518" />
    <path
       style="font-style:normal;font-variant:normal;font-weight:normal;font-stretch:normal;letter-spacing:normal;word-spacing:normal;text-anchor:start;fill:#000000;fill-opacity:1;stroke:#000000;stroke-width:0;stroke-linecap:butt;stroke-linejoin:miter;stroke-miterlimit:10.43299961;stroke-dasharray:none;stroke-dashoffset:0;stroke-opacity:1"
       d="M 687.34375,393.71875 C 682.46557,393.71875 678.03125,399.31418 678.03125,406.4375 C 678.03125,410.91384 680.16575,413.4375 683.84375,413.4375 C 686.05055,413.4375 687.82775,412.36421 689.53125,410.15625 L 689.875,410.34375 C 688.4038,416.18133 686.53199,419.09375 683.125,419.09375 C 682.15712,419.09374 681.59375,418.76422 681.59375,418.25 C 681.59378,417.76605 682.15625,417.22709 682.15625,416.53125 C 682.15627,415.39726 681.26408,414.78125 680.21875,414.78125 C 678.43784,414.78124 677.53125,415.5826 677.53125,417.125 C 677.53124,419.10616 679.54543,420.5625 682.875,420.5625 C 688.17908,420.56249 691.08244,417.04768 692.4375,410 L 695.53125,394.3125 L 692.71875,394.3125 L 692.03125,397.0625 L 691.78125,397.0625 C 691.16178,394.86962 689.55056,393.71875 687.34375,393.71875 z M 687.84375,394.96875 L 688.0625,394.96875 L 688.21875,395 L 688.40625,395 L 688.59375,395.03125 L 688.75,395.09375 L 688.90625,395.125 L 689.0625,395.1875 L 689.21875,395.25 L 689.375,395.3125 L 689.46875,395.40625 L 689.59375,395.5 L 689.75,395.59375 L 689.875,395.6875 L 690,395.8125 L 690.09375,395.9375 L 690.1875,396.0625 L 690.28125,396.21875 L 690.375,396.375 L 690.4375,396.53125 L 690.53125,396.6875 L 690.59375,396.875 L 690.6875,397.03125 L 690.71875,397.25 L 690.8125,397.4375 L 690.84375,397.65625 L 690.875,397.875 L 690.90625,398.09375 L 690.90625,398.3125 L 690.9375,398.5625 L 690.9375,398.8125 L 691,399.0625 L 691,399.34375 C 691.00002,401.83937 690.18249,405.39543 688.75,408.375 C 687.62722,410.64338 686.26738,411.8125 684.71875,411.8125 C 682.55069,411.8125 681.34375,410.39556 681.34375,407.71875 C 681.34372,404.66369 682.29373,400.80248 683.6875,398.15625 C 684.81025,396.02378 686.21768,394.96875 687.84375,394.96875 z"
       id="path2522" />
    <path
       style="font-style:normal;font-variant:normal;font-weight:normal;font-stretch:normal;letter-spacing:normal;word-spacing:normal;text-anchor:start;fill:#000000;fill-opacity:1;stroke:#000000;stroke-width:0;stroke-linecap:butt;stroke-linejoin:miter;stroke-miterlimit:10.43299961;stroke-dasharray:none;stroke-dashoffset:0;stroke-opacity:1"
       id="path2526"
       d="M 700.67031,400.63106 L 700.86389,400.31243 L 701.05747,400.00309 L 701.21233,399.70304 L 701.40591,399.41228 L 701.56078,399.13082 L 701.75435,398.85942 L 701.90922,398.59693 L 702.06408,398.3445 L 702.21894,398.10137 L 702.37381,397.8683 L 702.52867,397.64491 L 702.68353,397.43119 L 702.79968,397.22755 L 702.95455,397.03358 L 703.07069,396.85007 L 703.22556,396.67624 L 703.3417,396.51247 L 703.49657,396.35915 L 703.61271,396.2159 L 703.72886,396.08272 L 703.84501,395.95999 L 703.96116,395.84772 L 704.0773,395.74589 L 704.19345,395.65452 L 704.34832,395.57361 L 704.46446,395.50315 L 704.58061,395.44352 L 704.69676,395.39474 L 704.81291,395.3568 L 704.92905,395.32931 L 705.0452,395.31305 L 705.16135,395.30763 C 705.7808,395.30763 706.20668,395.74628 706.20668,396.593 C 706.20668,399.16412 702.95455,403.50455 702.95455,408.82797 C 702.95455,411.68598 704.3096,413.3043 706.43897,413.3043 C 708.83935,413.3043 710.62028,411.24771 712.67222,407.17945 L 713.02066,407.17945 L 710.89129,414.63535 C 710.07826,417.49351 708.10375,419.08144 705.97438,419.08144 C 705.08392,419.08144 704.54189,418.74875 704.54189,418.23453 C 704.54189,417.79596 705.08392,417.38762 705.08392,416.69197 C 705.08392,415.48207 704.27088,414.81654 703.07069,414.81654 C 701.56078,414.81654 700.67031,415.69384 700.67031,417.20616 C 700.67031,419.18733 702.48996,420.54842 705.66465,420.54842 C 710.23312,420.54842 713.25296,417.75058 714.41443,412.427 L 718.32473,394.30954 L 715.34361,394.30954 C 713.02066,405.95449 709.61367,411.80716 706.70998,411.80716 C 705.66465,411.80716 705.08392,411.14163 705.08392,409.88647 C 705.08392,408.41952 706.05181,406.46863 707.13586,403.64044 C 708.14247,400.96363 708.68449,398.83116 708.68449,397.18264 C 708.68449,394.86898 707.56173,393.71951 705.43236,393.71951 C 703.22556,393.71951 701.75435,395.85198 699.4314,399.93533 L 700.67031,400.63106 z" />
  </g>
</svg>
