<?xml version="1.0" encoding="UTF-8" standalone="no"?>
<!DOCTYPE svg PUBLIC "-//W3C//DTD SVG 1.1//EN"
 "http://www.w3.org/Graphics/SVG/1.1/DTD/svg11.dtd">
<!-- Generated by graphviz version 2.26.3 (20100126.1600)
 -->
<!-- Title: trs Pages: 1 -->
<svg width="400pt" height="394pt"
 viewBox="0.00 0.00 400.00 394.00" xmlns="http://www.w3.org/2000/svg" xmlns:xlink="http://www.w3.org/1999/xlink">
<g id="graph1" class="graph" transform="scale(1 1) rotate(0) translate(4 390)">
<title>trs</title>
<polygon fill="white" stroke="white" points="-4,5 -4,-390 397,-390 397,5 -4,5"/>
<g id="graph2" class="cluster"><title>cluster_trslhs</title>
<polygon fill="none" stroke="black" points="8,-98 8,-378 126,-378 126,-98 8,-98"/>
<text text-anchor="middle" x="67" y="-361.4" font-family="Times Roman,serif" font-size="14.00">LHS</text>
</g>
<g id="graph3" class="cluster"><title>cluster_trsrhs</title>
<polygon fill="none" stroke="black" points="134,-8 134,-265 384,-265 384,-8 134,-8"/>
<text text-anchor="middle" x="259" y="-248.4" font-family="Times Roman,serif" font-size="14.00">RHS</text>
</g>
<!-- trslhs0 -->
<g id="node2" class="node"><title>trslhs0</title>
<ellipse fill="none" stroke="black" cx="70" cy="-214" rx="34.2406" ry="18"/>
<text text-anchor="middle" x="70" y="-209.9" font-family="Times Roman,serif" font-size="14.00">(S,0)</text>
</g>
<!-- trslhs2 -->
<g id="node4" class="node"><title>trslhs2</title>
<ellipse fill="none" stroke="black" cx="67" cy="-124" rx="50.9221" ry="18"/>
<text text-anchor="middle" x="67" y="-119.9" font-family="Times Roman,serif" font-size="14.00">(head,0)</text>
</g>
<!-- trslhs0&#45;&gt;trslhs2 -->
<g id="edge3" class="edge"><title>trslhs0&#45;&gt;trslhs2</title>
<path fill="none" stroke="black" d="M69.3929,-195.787C68.9781,-183.344 68.4202,-166.605 67.9474,-152.421"/>
<polygon fill="black" stroke="black" points="71.4375,-152.064 67.6062,-142.186 64.4414,-152.297 71.4375,-152.064"/>
<text text-anchor="middle" x="86" y="-164.9" font-family="Times Roman,serif" font-size="14.00">head</text>
</g>
<!-- trsrhs3 -->
<g id="node11" class="node"><title>trsrhs3</title>
<ellipse fill="none" stroke="black" cx="176" cy="-124" rx="34.2406" ry="18"/>
<text text-anchor="middle" x="176" y="-119.9" font-family="Times Roman,serif" font-size="14.00">(S,0)</text>
</g>
<!-- trslhs0&#45;&gt;trsrhs3 -->
<g id="edge16" class="edge"><title>trslhs0&#45;&gt;trsrhs3</title>
<path fill="none" stroke="#0000aa" d="M88.4638,-198.323C105.487,-183.869 130.931,-162.266 150.006,-146.07"/>
<polygon fill="#0000aa" stroke="#0000aa" points="152.39,-148.638 157.748,-139.497 147.86,-143.301 152.39,-148.638"/>
</g>
<!-- trslhs1 -->
<g id="node3" class="node"><title>trslhs1</title>
<ellipse fill="none" stroke="black" cx="70" cy="-327" rx="47.9469" ry="18"/>
<text text-anchor="middle" x="70" y="-322.9" font-family="Times Roman,serif" font-size="14.00">(Op1,0)</text>
</g>
<!-- trslhs1&#45;&gt;trslhs0 -->
<g id="edge5" class="edge"><title>trslhs1&#45;&gt;trslhs0</title>
<path fill="none" stroke="black" d="M70,-308.845C70,-290.888 70,-263.147 70,-242.297"/>
<polygon fill="black" stroke="black" points="73.5001,-242.11 70,-232.11 66.5001,-242.11 73.5001,-242.11"/>
<text text-anchor="middle" x="74.5" y="-277.9" font-family="Times Roman,serif" font-size="14.00">x</text>
</g>
<!-- trsrhs1 -->
<g id="node9" class="node"><title>trsrhs1</title>
<ellipse fill="none" stroke="black" cx="234" cy="-214" rx="47.9469" ry="18"/>
<text text-anchor="middle" x="234" y="-209.9" font-family="Times Roman,serif" font-size="14.00">(Op2,0)</text>
</g>
<!-- trslhs1&#45;&gt;trsrhs1 -->
<g id="edge18" class="edge"><title>trslhs1&#45;&gt;trsrhs1</title>
<path fill="none" stroke="#0000aa" d="M93.1494,-311.05C121.719,-291.364 170.435,-257.798 202.421,-235.759"/>
<polygon fill="#0000aa" stroke="#0000aa" points="204.72,-238.425 210.968,-229.869 200.748,-232.661 204.72,-238.425"/>
</g>
<!-- trsrhs2 -->
<g id="node10" class="node"><title>trsrhs2</title>
<ellipse fill="none" stroke="black" cx="193" cy="-34" rx="50.9221" ry="18"/>
<text text-anchor="middle" x="193" y="-29.9" font-family="Times Roman,serif" font-size="14.00">(head,0)</text>
</g>
<!-- trslhs2&#45;&gt;trsrhs2 -->
<g id="edge20" class="edge"><title>trslhs2&#45;&gt;trsrhs2</title>
<path fill="none" stroke="#0000aa" d="M89.8176,-107.702C110.066,-93.2384 139.82,-71.9861 162.18,-56.0146"/>
<polygon fill="#0000aa" stroke="#0000aa" points="164.249,-58.8376 170.352,-50.1771 160.18,-53.1414 164.249,-58.8376"/>
</g>
<!-- trsrhs0 -->
<g id="node8" class="node"><title>trsrhs0</title>
<ellipse fill="none" stroke="black" cx="279" cy="-124" rx="50.9221" ry="18"/>
<text text-anchor="middle" x="279" y="-119.9" font-family="Times Roman,serif" font-size="14.00">(head,0)</text>
</g>
<!-- trsrhs1&#45;&gt;trsrhs0 -->
<g id="edge8" class="edge"><title>trsrhs1&#45;&gt;trsrhs0</title>
<path fill="none" stroke="black" d="M242.891,-196.219C249.362,-183.276 258.24,-165.521 265.573,-150.854"/>
<polygon fill="black" stroke="black" points="268.786,-152.254 270.128,-141.744 262.525,-149.123 268.786,-152.254"/>
<text text-anchor="middle" x="269.5" y="-164.9" font-family="Times Roman,serif" font-size="14.00">h2</text>
</g>
<!-- trsrhs1&#45;&gt;trsrhs2 -->
<g id="edge10" class="edge"><title>trsrhs1&#45;&gt;trsrhs2</title>
<path fill="none" stroke="black" d="M267.677,-201.123C292.36,-189.688 324.062,-170.356 339,-142 348.115,-124.698 349.698,-114.37 339,-98 319.311,-67.8717 281.949,-51.8377 249.951,-43.3532"/>
<polygon fill="black" stroke="black" points="250.765,-39.9491 240.218,-40.9552 249.09,-46.7459 250.765,-39.9491"/>
<text text-anchor="middle" x="351" y="-119.9" font-family="Times Roman,serif" font-size="14.00">h</text>
</g>
<!-- trsrhs1&#45;&gt;trsrhs3 -->
<g id="edge12" class="edge"><title>trsrhs1&#45;&gt;trsrhs3</title>
<path fill="none" stroke="black" d="M222.541,-196.219C214.011,-182.983 202.238,-164.714 192.667,-149.863"/>
<polygon fill="black" stroke="black" points="195.401,-147.643 187.042,-141.134 189.517,-151.435 195.401,-147.643"/>
<text text-anchor="middle" x="215.5" y="-164.9" font-family="Times Roman,serif" font-size="14.00">x</text>
</g>
<!-- trsrhs3&#45;&gt;trsrhs2 -->
<g id="edge14" class="edge"><title>trsrhs3&#45;&gt;trsrhs2</title>
<path fill="none" stroke="black" d="M179.44,-105.787C181.791,-93.3443 184.952,-76.6053 187.632,-62.4211"/>
<polygon fill="black" stroke="black" points="191.148,-62.6617 189.565,-52.1858 184.27,-61.3623 191.148,-62.6617"/>
<text text-anchor="middle" x="204" y="-74.9" font-family="Times Roman,serif" font-size="14.00">head</text>
</g>
</g>
</svg>
