<?xml version="1.0" encoding="UTF-8" standalone="no"?>
<!DOCTYPE svg PUBLIC "-//W3C//DTD SVG 1.1//EN"
 "http://www.w3.org/Graphics/SVG/1.1/DTD/svg11.dtd">
<!-- Generated by graphviz version 2.26.3 (20100126.1600)
 -->
<!-- Title: trs Pages: 1 -->
<svg width="298pt" height="468pt"
 viewBox="0.00 0.00 298.00 468.00" xmlns="http://www.w3.org/2000/svg" xmlns:xlink="http://www.w3.org/1999/xlink">
<g id="graph1" class="graph" transform="scale(1 1) rotate(0) translate(4 464)">
<title>trs</title>
<polygon fill="white" stroke="white" points="-4,5 -4,-464 295,-464 295,5 -4,5"/>
<g id="graph2" class="cluster"><title>cluster_trslhs</title>
<polygon fill="none" stroke="black" points="32,-195 32,-452 282,-452 282,-195 32,-195"/>
<text text-anchor="middle" x="157" y="-435.4" font-family="Times Roman,serif" font-size="14.00">LHS</text>
</g>
<g id="graph3" class="cluster"><title>cluster_trsrhs</title>
<polygon fill="none" stroke="black" points="8,-8 8,-175 212,-175 212,-8 8,-8"/>
<text text-anchor="middle" x="110" y="-158.4" font-family="Times Roman,serif" font-size="14.00">RHS</text>
</g>
<!-- trslhs0 -->
<g id="node2" class="node"><title>trslhs0</title>
<ellipse fill="none" stroke="black" cx="223" cy="-311" rx="50.9221" ry="18"/>
<text text-anchor="middle" x="223" y="-306.9" font-family="Times Roman,serif" font-size="14.00">(head,0)</text>
</g>
<!-- trsrhs1 -->
<g id="node12" class="node"><title>trsrhs1</title>
<ellipse fill="none" stroke="black" cx="153" cy="-34" rx="50.9221" ry="18"/>
<text text-anchor="middle" x="153" y="-29.9" font-family="Times Roman,serif" font-size="14.00">(head,0)</text>
</g>
<!-- trslhs0&#45;&gt;trsrhs1 -->
<g id="edge18" class="edge"><title>trslhs0&#45;&gt;trsrhs1</title>
<path fill="none" stroke="#0000aa" d="M223.756,-292.985C224.906,-257.064 225.765,-174.12 213,-106 209.894,-89.4231 210.861,-83.682 201,-70 197.243,-64.7871 192.509,-59.9962 187.488,-55.7265"/>
<polygon fill="#0000aa" stroke="#0000aa" points="189.496,-52.8541 179.459,-49.4603 185.189,-58.3722 189.496,-52.8541"/>
</g>
<!-- trslhs1 -->
<g id="node3" class="node"><title>trslhs1</title>
<ellipse fill="none" stroke="black" cx="120" cy="-401" rx="47.9469" ry="18"/>
<text text-anchor="middle" x="120" y="-396.9" font-family="Times Roman,serif" font-size="14.00">(Op2,0)</text>
</g>
<!-- trslhs1&#45;&gt;trslhs0 -->
<g id="edge3" class="edge"><title>trslhs1&#45;&gt;trslhs0</title>
<path fill="none" stroke="black" d="M139.374,-384.072C155.343,-370.118 178.173,-350.169 195.946,-334.639"/>
<polygon fill="black" stroke="black" points="198.486,-337.068 203.713,-327.852 193.88,-331.797 198.486,-337.068"/>
<text text-anchor="middle" x="189.5" y="-351.9" font-family="Times Roman,serif" font-size="14.00">h2</text>
</g>
<!-- trslhs2 -->
<g id="node4" class="node"><title>trslhs2</title>
<ellipse fill="none" stroke="black" cx="91" cy="-221" rx="50.9221" ry="18"/>
<text text-anchor="middle" x="91" y="-216.9" font-family="Times Roman,serif" font-size="14.00">(head,0)</text>
</g>
<!-- trslhs1&#45;&gt;trslhs2 -->
<g id="edge5" class="edge"><title>trslhs1&#45;&gt;trslhs2</title>
<path fill="none" stroke="black" d="M102.708,-384.19C90.0922,-370.642 74.0215,-350.383 67,-329 58.1262,-301.976 67.5495,-270.078 77.0709,-247.988"/>
<polygon fill="black" stroke="black" points="80.2636,-249.422 81.2454,-238.873 73.8993,-246.507 80.2636,-249.422"/>
<text text-anchor="middle" x="72" y="-306.9" font-family="Times Roman,serif" font-size="14.00">h</text>
</g>
<!-- trslhs3 -->
<g id="node5" class="node"><title>trslhs3</title>
<ellipse fill="none" stroke="black" cx="120" cy="-311" rx="34.2406" ry="18"/>
<text text-anchor="middle" x="120" y="-306.9" font-family="Times Roman,serif" font-size="14.00">(S,0)</text>
</g>
<!-- trslhs1&#45;&gt;trslhs3 -->
<g id="edge7" class="edge"><title>trslhs1&#45;&gt;trslhs3</title>
<path fill="none" stroke="black" d="M120,-382.787C120,-370.344 120,-353.605 120,-339.421"/>
<polygon fill="black" stroke="black" points="123.5,-339.186 120,-329.186 116.5,-339.186 123.5,-339.186"/>
<text text-anchor="middle" x="124.5" y="-351.9" font-family="Times Roman,serif" font-size="14.00">x</text>
</g>
<!-- trsrhs0 -->
<g id="node11" class="node"><title>trsrhs0</title>
<ellipse fill="none" stroke="black" cx="67" cy="-124" rx="50.9221" ry="18"/>
<text text-anchor="middle" x="67" y="-119.9" font-family="Times Roman,serif" font-size="14.00">(head,0)</text>
</g>
<!-- trslhs2&#45;&gt;trsrhs0 -->
<g id="edge16" class="edge"><title>trslhs2&#45;&gt;trsrhs0</title>
<path fill="none" stroke="#0000aa" d="M86.4858,-202.755C82.966,-188.529 78.0155,-168.521 73.9853,-152.232"/>
<polygon fill="#0000aa" stroke="#0000aa" points="77.2934,-151.03 71.494,-142.163 70.4983,-152.711 77.2934,-151.03"/>
</g>
<!-- trslhs3&#45;&gt;trslhs2 -->
<g id="edge9" class="edge"><title>trslhs3&#45;&gt;trslhs2</title>
<path fill="none" stroke="black" d="M114.271,-293.219C110.206,-280.605 104.669,-263.42 100.015,-248.979"/>
<polygon fill="black" stroke="black" points="103.215,-247.497 96.8168,-239.052 96.5525,-249.644 103.215,-247.497"/>
<text text-anchor="middle" x="126" y="-261.9" font-family="Times Roman,serif" font-size="14.00">head</text>
</g>
<!-- trsrhs2 -->
<g id="node13" class="node"><title>trsrhs2</title>
<ellipse fill="none" stroke="black" cx="170" cy="-124" rx="34.2406" ry="18"/>
<text text-anchor="middle" x="170" y="-119.9" font-family="Times Roman,serif" font-size="14.00">(S,0)</text>
</g>
<!-- trslhs3&#45;&gt;trsrhs2 -->
<g id="edge14" class="edge"><title>trslhs3&#45;&gt;trsrhs2</title>
<path fill="none" stroke="#0000aa" d="M135.056,-294.495C139.575,-288.707 144.098,-281.916 147,-275 163.889,-234.754 168.568,-183.84 169.757,-152.612"/>
<polygon fill="#0000aa" stroke="#0000aa" points="173.26,-152.533 170.046,-142.438 166.263,-152.334 173.26,-152.533"/>
</g>
<!-- trsrhs2&#45;&gt;trsrhs1 -->
<g id="edge12" class="edge"><title>trsrhs2&#45;&gt;trsrhs1</title>
<path fill="none" stroke="black" d="M166.56,-105.787C164.209,-93.3443 161.048,-76.6053 158.368,-62.4211"/>
<polygon fill="black" stroke="black" points="161.73,-61.3623 156.435,-52.1858 154.852,-62.6617 161.73,-61.3623"/>
<text text-anchor="middle" x="180" y="-74.9" font-family="Times Roman,serif" font-size="14.00">head</text>
</g>
</g>
</svg>
