<?xml version="1.0" encoding="UTF-8" standalone="no"?>
<!DOCTYPE svg PUBLIC "-//W3C//DTD SVG 1.1//EN"
 "http://www.w3.org/Graphics/SVG/1.1/DTD/svg11.dtd">
<!-- Generated by graphviz version 2.26.3 (20100126.1600)
 -->
<!-- Title: trs Pages: 1 -->
<svg width="708pt" height="484pt"
 viewBox="0.00 0.00 708.00 484.00" xmlns="http://www.w3.org/2000/svg" xmlns:xlink="http://www.w3.org/1999/xlink">
<g id="graph1" class="graph" transform="scale(1 1) rotate(0) translate(4 480)">
<title>trs</title>
<polygon fill="white" stroke="white" points="-4,5 -4,-480 705,-480 705,5 -4,5"/>
<g id="graph2" class="cluster"><title>cluster_trslhs</title>
<polygon fill="none" stroke="black" points="368,-188 368,-468 692,-468 692,-188 368,-188"/>
<text text-anchor="middle" x="530" y="-451.4" font-family="Times Roman,serif" font-size="14.00">LHS</text>
</g>
<g id="graph3" class="cluster"><title>cluster_trsrhs</title>
<polygon fill="none" stroke="black" points="8,-8 8,-265 360,-265 360,-8 8,-8"/>
<text text-anchor="middle" x="184" y="-248.4" font-family="Times Roman,serif" font-size="14.00">RHS</text>
</g>
<!-- trslhs0 -->
<g id="node2" class="node"><title>trslhs0</title>
<ellipse fill="none" stroke="black" cx="427" cy="-327" rx="50.9221" ry="18"/>
<text text-anchor="middle" x="427" y="-322.9" font-family="Times Roman,serif" font-size="14.00">(head,0)</text>
</g>
<!-- trsrhs4 -->
<g id="node16" class="node"><title>trsrhs4</title>
<ellipse fill="none" stroke="black" cx="181" cy="-214" rx="50.9221" ry="18"/>
<text text-anchor="middle" x="181" y="-209.9" font-family="Times Roman,serif" font-size="14.00">(head,0)</text>
</g>
<!-- trslhs0&#45;&gt;trsrhs4 -->
<g id="edge16" class="edge"><title>trslhs0&#45;&gt;trsrhs4</title>
<path fill="none" stroke="#0000aa" d="M383.316,-317.477C344.325,-307.83 286.52,-290.649 241,-265 228.092,-257.727 215.36,-247.472 204.968,-238.063"/>
<polygon fill="#0000aa" stroke="#0000aa" points="207.209,-235.367 197.513,-231.096 202.43,-240.481 207.209,-235.367"/>
</g>
<!-- trslhs4 -->
<g id="node3" class="node"><title>trslhs4</title>
<ellipse fill="none" stroke="black" cx="531" cy="-214" rx="50.9221" ry="18"/>
<text text-anchor="middle" x="531" y="-209.9" font-family="Times Roman,serif" font-size="14.00">(head,0)</text>
</g>
<!-- trsrhs0 -->
<g id="node14" class="node"><title>trsrhs0</title>
<ellipse fill="none" stroke="black" cx="301" cy="-34" rx="50.9221" ry="18"/>
<text text-anchor="middle" x="301" y="-29.9" font-family="Times Roman,serif" font-size="14.00">(head,0)</text>
</g>
<!-- trslhs4&#45;&gt;trsrhs0 -->
<g id="edge24" class="edge"><title>trslhs4&#45;&gt;trsrhs0</title>
<path fill="none" stroke="#0000aa" d="M509.774,-197.389C468.44,-165.04 377.096,-93.553 330.133,-56.7997"/>
<polygon fill="#0000aa" stroke="#0000aa" points="332.206,-53.978 322.174,-50.5712 327.892,-59.4906 332.206,-53.978"/>
</g>
<!-- trslhs2 -->
<g id="node4" class="node"><title>trslhs2</title>
<ellipse fill="none" stroke="black" cx="465" cy="-417" rx="47.9469" ry="18"/>
<text text-anchor="middle" x="465" y="-412.9" font-family="Times Roman,serif" font-size="14.00">(Op2,0)</text>
</g>
<!-- trslhs2&#45;&gt;trslhs0 -->
<g id="edge7" class="edge"><title>trslhs2&#45;&gt;trslhs0</title>
<path fill="none" stroke="black" d="M457.492,-399.219C452.115,-386.482 444.77,-369.086 438.636,-354.559"/>
<polygon fill="black" stroke="black" points="441.736,-352.903 434.622,-345.052 435.287,-355.626 441.736,-352.903"/>
<text text-anchor="middle" x="455" y="-367.9" font-family="Times Roman,serif" font-size="14.00">h</text>
</g>
<!-- trslhs3 -->
<g id="node5" class="node"><title>trslhs3</title>
<ellipse fill="none" stroke="black" cx="547" cy="-327" rx="50.9221" ry="18"/>
<text text-anchor="middle" x="547" y="-322.9" font-family="Times Roman,serif" font-size="14.00">(head,0)</text>
</g>
<!-- trslhs2&#45;&gt;trslhs3 -->
<g id="edge5" class="edge"><title>trslhs2&#45;&gt;trslhs3</title>
<path fill="none" stroke="black" d="M480.81,-399.647C493.175,-386.076 510.531,-367.027 524.368,-351.84"/>
<polygon fill="black" stroke="black" points="527.09,-354.049 531.238,-344.3 521.916,-349.334 527.09,-354.049"/>
<text text-anchor="middle" x="522.5" y="-367.9" font-family="Times Roman,serif" font-size="14.00">h2</text>
</g>
<!-- trslhs1 -->
<g id="node6" class="node"><title>trslhs1</title>
<ellipse fill="none" stroke="black" cx="650" cy="-327" rx="34.2406" ry="18"/>
<text text-anchor="middle" x="650" y="-322.9" font-family="Times Roman,serif" font-size="14.00">(S,0)</text>
</g>
<!-- trslhs2&#45;&gt;trslhs1 -->
<g id="edge9" class="edge"><title>trslhs2&#45;&gt;trslhs1</title>
<path fill="none" stroke="black" d="M494.314,-402.739C527.188,-386.746 580.459,-360.831 615.363,-343.851"/>
<polygon fill="black" stroke="black" points="617.227,-346.836 624.688,-339.314 614.164,-340.541 617.227,-346.836"/>
<text text-anchor="middle" x="578.5" y="-367.9" font-family="Times Roman,serif" font-size="14.00">x</text>
</g>
<!-- trsrhs3 -->
<g id="node15" class="node"><title>trsrhs3</title>
<ellipse fill="none" stroke="black" cx="64" cy="-214" rx="47.9469" ry="18"/>
<text text-anchor="middle" x="64" y="-209.9" font-family="Times Roman,serif" font-size="14.00">(Op1,0)</text>
</g>
<!-- trslhs2&#45;&gt;trsrhs3 -->
<g id="edge20" class="edge"><title>trslhs2&#45;&gt;trsrhs3</title>
<path fill="none" stroke="#0000aa" d="M428.469,-405.138C363.509,-383.137 224.968,-332.079 121,-265 109.202,-257.388 97.4264,-247.364 87.667,-238.219"/>
<polygon fill="#0000aa" stroke="#0000aa" points="89.9418,-235.55 80.3105,-231.136 85.0866,-240.593 89.9418,-235.55"/>
</g>
<!-- trsrhs1 -->
<g id="node13" class="node"><title>trsrhs1</title>
<ellipse fill="none" stroke="black" cx="301" cy="-214" rx="50.9221" ry="18"/>
<text text-anchor="middle" x="301" y="-209.9" font-family="Times Roman,serif" font-size="14.00">(head,0)</text>
</g>
<!-- trslhs3&#45;&gt;trsrhs1 -->
<g id="edge22" class="edge"><title>trslhs3&#45;&gt;trsrhs1</title>
<path fill="none" stroke="#0000aa" d="M508.35,-315.097C501.266,-313.003 493.924,-310.891 487,-309 454.764,-300.196 445.267,-302.792 414,-291 390.564,-282.162 384.951,-278.727 364,-265 351.525,-256.826 338.581,-246.679 327.695,-237.594"/>
<polygon fill="#0000aa" stroke="#0000aa" points="329.702,-234.706 319.813,-230.903 325.172,-240.043 329.702,-234.706"/>
</g>
<!-- trslhs1&#45;&gt;trslhs4 -->
<g id="edge3" class="edge"><title>trslhs1&#45;&gt;trslhs4</title>
<path fill="none" stroke="black" d="M633.203,-311.05C613.172,-292.028 579.493,-260.048 556.305,-238.029"/>
<polygon fill="black" stroke="black" points="558.539,-235.324 548.878,-230.976 553.719,-240.4 558.539,-235.324"/>
<text text-anchor="middle" x="628" y="-277.9" font-family="Times Roman,serif" font-size="14.00">head</text>
</g>
<!-- trsrhs2 -->
<g id="node12" class="node"><title>trsrhs2</title>
<ellipse fill="none" stroke="black" cx="301" cy="-124" rx="34.2406" ry="18"/>
<text text-anchor="middle" x="301" y="-119.9" font-family="Times Roman,serif" font-size="14.00">(S,0)</text>
</g>
<!-- trslhs1&#45;&gt;trsrhs2 -->
<g id="edge18" class="edge"><title>trslhs1&#45;&gt;trsrhs2</title>
<path fill="none" stroke="#0000aa" d="M623.3,-315.417C617.935,-313.205 612.312,-310.967 607,-309 547.425,-286.937 526.671,-295.606 471,-265 412.145,-232.644 354.245,-178.557 323.545,-147.623"/>
<polygon fill="#0000aa" stroke="#0000aa" points="325.844,-144.969 316.342,-140.285 320.849,-149.873 325.844,-144.969"/>
</g>
<!-- trsrhs2&#45;&gt;trsrhs0 -->
<g id="edge12" class="edge"><title>trsrhs2&#45;&gt;trsrhs0</title>
<path fill="none" stroke="black" d="M301,-105.787C301,-93.3443 301,-76.6053 301,-62.4211"/>
<polygon fill="black" stroke="black" points="304.5,-62.1857 301,-52.1858 297.5,-62.1858 304.5,-62.1857"/>
<text text-anchor="middle" x="318" y="-74.9" font-family="Times Roman,serif" font-size="14.00">head</text>
</g>
<!-- trsrhs3&#45;&gt;trsrhs2 -->
<g id="edge14" class="edge"><title>trsrhs3&#45;&gt;trsrhs2</title>
<path fill="none" stroke="black" d="M93.9624,-199.746C102.621,-195.788 112.128,-191.593 121,-188 169.05,-168.541 225.527,-148.986 262.228,-136.705"/>
<polygon fill="black" stroke="black" points="263.65,-139.921 272.032,-133.441 261.438,-133.28 263.65,-139.921"/>
<text text-anchor="middle" x="199.5" y="-164.9" font-family="Times Roman,serif" font-size="14.00">x</text>
</g>
</g>
</svg>
