<?xml version="1.0" encoding="UTF-8" standalone="no"?>
<svg
   xmlns:dc="http://purl.org/dc/elements/1.1/"
   xmlns:cc="http://creativecommons.org/ns#"
   xmlns:rdf="http://www.w3.org/1999/02/22-rdf-syntax-ns#"
   xmlns:svg="http://www.w3.org/2000/svg"
   xmlns="http://www.w3.org/2000/svg"
   xmlns:sodipodi="http://sodipodi.sourceforge.net/DTD/sodipodi-0.dtd"
   xmlns:inkscape="http://www.inkscape.org/namespaces/inkscape"
   width="659"
   height="71"
   version="1.1"
   id="svg34"
   sodipodi:docname="round_new.svg"
   inkscape:version="0.92.5 (2060ec1f9f, 2020-04-08)">
  <metadata
     id="metadata38">
    <rdf:RDF>
      <cc:Work
         rdf:about="">
        <dc:format>image/svg+xml</dc:format>
        <dc:type
           rdf:resource="http://purl.org/dc/dcmitype/StillImage" />
      </cc:Work>
    </rdf:RDF>
  </metadata>
  <sodipodi:namedview
     pagecolor="#ffffff"
     bordercolor="#666666"
     borderopacity="1"
     objecttolerance="10"
     gridtolerance="10"
     guidetolerance="10"
     inkscape:pageopacity="0"
     inkscape:pageshadow="2"
     inkscape:window-width="1920"
     inkscape:window-height="1016"
     id="namedview36"
     showgrid="false"
     inkscape:zoom="2.0030349"
     inkscape:cx="327.98013"
     inkscape:cy="-16.381533"
     inkscape:window-x="0"
     inkscape:window-y="27"
     inkscape:window-maximized="1"
     inkscape:current-layer="svg34" />
  <defs
     id="defs4">
    <style
       type="text/css"
       id="style2">
    .line                 {fill: none; stroke: #262626; stroke-width: 1;}
    .bold-line            {stroke: #0A0A0A; shape-rendering: crispEdges; stroke-width: 2;}
    .thin-line            {stroke: #0F0F0F; shape-rendering: crispEdges}
    .filled               {fill: #262626; stroke: none;}
    text.terminal         {font-family: Verdana, Sans-serif;
                            font-size: 12px;
                            fill: #0A0A0A;
                            font-weight: bold;
                          }
    text.nonterminal      {font-family: Verdana, Sans-serif;
                            font-size: 12px;
                            fill: #0D0D0D;
                            font-weight: normal;
                          }
    text.regexp           {font-family: Verdana, Sans-serif;
                            font-size: 12px;
                            fill: #0F0F0F;
                            font-weight: normal;
                          }
    rect, circle, polygon {fill: #262626; stroke: #262626;}
    rect.terminal         {fill: #FFFFFF; stroke: #262626; stroke-width: 1;}
    rect.nonterminal      {fill: #FFFFFF; stroke: #262626; stroke-width: 1;}
    rect.text             {fill: none; stroke: none;}
    polygon.regexp        {fill: #FFFFFF; stroke: #262626; stroke-width: 1;}
  </style>
  </defs>
  <polygon
     points="9 51 1 47 1 55"
     id="polygon6" />
  <polygon
     points="17 51 9 47 9 55"
     id="polygon8" />
  <rect
     x="31"
     y="37"
     width="212"
     height="32"
     rx="10"
     id="rect10" />
  <rect
     x="29"
     y="35"
     width="212"
     height="32"
     class="terminal"
     rx="10"
     id="rect12" />
  <text
     class="terminal"
     x="39"
     y="55"
     id="text14">Send: <tspan
   style="fill:#008000;fill-opacity:1;font-style:italic"
   id="tspan845">() → [id→T]×Progress</tspan>
</text>
  <rect
     x="283"
     y="3"
     width="192"
     height="32"
     rx="10"
     id="rect16" />
  <rect
     x="281"
     y="1"
     width="192"
     height="32"
     class="terminal"
     rx="10"
     id="rect18" />
  <text
     class="terminal"
     x="291"
     y="21"
     id="text20">Receive: <tspan
   style="font-style:italic;fill:#008000;fill-opacity:1"
   id="tspan847">id×T → Progress</tspan>
</text>
  <rect
     x="515"
     y="37"
     width="116"
     height="32"
     rx="10"
     id="rect22" />
  <rect
     x="513"
     y="35"
     width="116"
     height="32"
     class="terminal"
     rx="10"
     id="rect24" />
  <text
     class="terminal"
     x="523"
     y="55"
     id="text26">Finish: <tspan
   style="font-style:italic;fill:#008000;fill-opacity:1"
   id="tspan849">() → ()</tspan>
</text>
  <path
     class="line"
     d="m17 51 h2 m0 0 h10 m212 0 h10 m20 0 h10 m0 0 h202 m-232 0 l20 0 m-1 0 q-9 0 -9 -10 l0 -14 q0 -10 10 -10 m212 34 l20 0 m-20 0 q10 0 10 -10 l0 -14 q0 -10 -10 -10 m-212 0 h10 m192 0 h10 m20 34 h10 m116 0 h10 m3 0 h-3"
     id="path28" />
  <polygon
     points="649 51 657 47 657 55"
     id="polygon30" />
  <polygon
     points="649 51 641 47 641 55"
     id="polygon32" />
</svg>
